<?xml version="1.0" encoding="UTF-8" standalone="no"?>
<!-- Created with Inkscape (http://www.inkscape.org/) -->

<svg
   width="147.5675mm"
   height="97.919312mm"
   viewBox="0 0 147.5675 97.919312"
   version="1.1"
   id="svg5"
   xml:space="preserve"
   xmlns:inkscape="http://www.inkscape.org/namespaces/inkscape"
   xmlns:sodipodi="http://sodipodi.sourceforge.net/DTD/sodipodi-0.dtd"
   xmlns="http://www.w3.org/2000/svg"
   xmlns:svg="http://www.w3.org/2000/svg"><sodipodi:namedview
     id="namedview7"
     pagecolor="#ffffff"
     bordercolor="#000000"
     borderopacity="0.25"
     inkscape:showpageshadow="2"
     inkscape:pageopacity="0.0"
     inkscape:pagecheckerboard="0"
     inkscape:deskcolor="#d1d1d1"
     inkscape:document-units="mm"
     showgrid="false" /><defs
     id="defs2"><clipPath
       clipPathUnits="userSpaceOnUse"
       id="clipPath37712"><path
         d="M -1021,-463 H 1794 V 1233 H -1021 Z"
         id="path37710" /></clipPath><clipPath
       clipPathUnits="userSpaceOnUse"
       id="clipPath37732"><path
         d="M -1021,-463 H 1794 V 1233 H -1021 Z"
         id="path37730" /></clipPath><clipPath
       clipPathUnits="userSpaceOnUse"
       id="clipPath37776"><path
         d="m 54.825,47.23125 h 334.8 v 217.44 h -334.8 z"
         id="path37774" /></clipPath><clipPath
       clipPathUnits="userSpaceOnUse"
       id="clipPath37786"><path
         d="m 54.825,47.23125 h 334.8 v 217.44 h -334.8 z"
         id="path37784" /></clipPath><clipPath
       clipPathUnits="userSpaceOnUse"
       id="clipPath37796"><path
         d="m 54.825,47.23125 h 334.8 v 217.44 h -334.8 z"
         id="path37794" /></clipPath><clipPath
       clipPathUnits="userSpaceOnUse"
       id="clipPath37806"><path
         d="m 54.825,47.23125 h 334.8 v 217.44 h -334.8 z"
         id="path37804" /></clipPath><clipPath
       clipPathUnits="userSpaceOnUse"
       id="clipPath37816"><path
         d="m 54.825,47.23125 h 334.8 v 217.44 h -334.8 z"
         id="path37814" /></clipPath><clipPath
       clipPathUnits="userSpaceOnUse"
       id="clipPath37826"><path
         d="m 54.825,47.23125 h 334.8 v 217.44 h -334.8 z"
         id="path37824" /></clipPath><clipPath
       clipPathUnits="userSpaceOnUse"
       id="clipPath37836"><path
         d="m 54.825,47.23125 h 334.8 v 217.44 h -334.8 z"
         id="path37834" /></clipPath><clipPath
       clipPathUnits="userSpaceOnUse"
       id="clipPath37846"><path
         d="m 54.825,47.23125 h 334.8 v 217.44 h -334.8 z"
         id="path37844" /></clipPath><clipPath
       clipPathUnits="userSpaceOnUse"
       id="clipPath37856"><path
         d="m 54.825,47.23125 h 334.8 v 217.44 h -334.8 z"
         id="path37854" /></clipPath><clipPath
       clipPathUnits="userSpaceOnUse"
       id="clipPath37866"><path
         d="m 54.825,47.23125 h 334.8 v 217.44 h -334.8 z"
         id="path37864" /></clipPath><clipPath
       clipPathUnits="userSpaceOnUse"
       id="clipPath37876"><path
         d="m 54.825,47.23125 h 334.8 v 217.44 h -334.8 z"
         id="path37874" /></clipPath><clipPath
       clipPathUnits="userSpaceOnUse"
       id="clipPath37886"><path
         d="m 54.825,47.23125 h 334.8 v 217.44 h -334.8 z"
         id="path37884" /></clipPath></defs><path
     d="m 19.341011,81.257182 v 1.234723"
     style="fill:#000000;fill-opacity:1;fill-rule:nonzero;stroke:#000000;stroke-width:0.282222;stroke-linecap:butt;stroke-linejoin:round;stroke-miterlimit:10;stroke-dasharray:none;stroke-opacity:1"
     id="path37634" /><path
     d="m 58.711011,81.257182 v 1.234723"
     style="fill:#000000;fill-opacity:1;fill-rule:nonzero;stroke:#000000;stroke-width:0.282222;stroke-linecap:butt;stroke-linejoin:round;stroke-miterlimit:10;stroke-dasharray:none;stroke-opacity:1"
     id="path37650" /><path
     d="m 98.081011,81.257182 v 1.234723"
     style="fill:#000000;fill-opacity:1;fill-rule:nonzero;stroke:#000000;stroke-width:0.282222;stroke-linecap:butt;stroke-linejoin:round;stroke-miterlimit:10;stroke-dasharray:none;stroke-opacity:1"
     id="path37666" /><path
     d="m 137.45101,81.257182 v 1.234723"
     style="fill:#000000;fill-opacity:1;fill-rule:nonzero;stroke:#000000;stroke-width:0.282222;stroke-linecap:butt;stroke-linejoin:round;stroke-miterlimit:10;stroke-dasharray:none;stroke-opacity:1"
     id="path37682" /><path
     d="m 19.341011,81.257182 h -1.2347"
     style="fill:#000000;fill-opacity:1;fill-rule:nonzero;stroke:#000000;stroke-width:0.282222;stroke-linecap:butt;stroke-linejoin:round;stroke-miterlimit:10;stroke-dasharray:none;stroke-opacity:1"
     id="path37696" /><g
     id="g37698"
     transform="matrix(0.35277776,0,0,-0.35277778,9.0719108,83.266362)"><text
       xml:space="preserve"
       transform="matrix(1,0,0,-1,12.568359,0)"
       style="font-variant:normal;font-weight:normal;font-size:15px;font-family:DejaVuSans;-inkscape-font-specification:DejaVuSans;writing-mode:lr-tb;fill:#000000;fill-opacity:1;fill-rule:nonzero;stroke:none"
       id="text37702"><tspan
         x="0"
         y="0"
         id="tspan37700">2</tspan></text><g
       id="g37704"
       transform="scale(0.015)"><g
         id="g37706"><g
           id="g37708"
           clip-path="url(#clipPath37712)"><path
             d="M 106,355 H 732 V 272 H 106 Z"
             style="fill:#000000;fill-opacity:1;fill-rule:nonzero;stroke:none"
             id="path37714" /></g></g></g></g><path
     d="m 19.341011,62.080182 h -1.2347"
     style="fill:#000000;fill-opacity:1;fill-rule:nonzero;stroke:#000000;stroke-width:0.282222;stroke-linecap:butt;stroke-linejoin:round;stroke-miterlimit:10;stroke-dasharray:none;stroke-opacity:1"
     id="path37716" /><g
     id="g37718"
     transform="matrix(0.35277776,0,0,-0.35277778,9.0719108,64.089362)"><text
       xml:space="preserve"
       transform="matrix(1,0,0,-1,12.568359,0)"
       style="font-variant:normal;font-weight:normal;font-size:15px;font-family:DejaVuSans;-inkscape-font-specification:DejaVuSans;writing-mode:lr-tb;fill:#000000;fill-opacity:1;fill-rule:nonzero;stroke:none"
       id="text37722"><tspan
         x="0"
         y="0"
         id="tspan37720">1</tspan></text><g
       id="g37724"
       transform="scale(0.015)"><g
         id="g37726"><g
           id="g37728"
           clip-path="url(#clipPath37732)"><path
             d="M 106,355 H 732 V 272 H 106 Z"
             style="fill:#000000;fill-opacity:1;fill-rule:nonzero;stroke:none"
             id="path37734" /></g></g></g></g><path
     d="m 19.341011,42.903182 h -1.2347"
     style="fill:#000000;fill-opacity:1;fill-rule:nonzero;stroke:#000000;stroke-width:0.282222;stroke-linecap:butt;stroke-linejoin:round;stroke-miterlimit:10;stroke-dasharray:none;stroke-opacity:1"
     id="path37736" /><g
     id="g37738"
     transform="matrix(0.35277776,0,0,-0.35277778,13.503611,44.912361)"><text
       xml:space="preserve"
       transform="scale(1,-1)"
       style="font-variant:normal;font-weight:normal;font-size:15px;font-family:DejaVuSans;-inkscape-font-specification:DejaVuSans;writing-mode:lr-tb;fill:#000000;fill-opacity:1;fill-rule:nonzero;stroke:none"
       id="text37742"><tspan
         x="0"
         y="0"
         id="tspan37740">0</tspan></text></g><path
     d="m 19.341011,23.726182 h -1.2347"
     style="fill:#000000;fill-opacity:1;fill-rule:nonzero;stroke:#000000;stroke-width:0.282222;stroke-linecap:butt;stroke-linejoin:round;stroke-miterlimit:10;stroke-dasharray:none;stroke-opacity:1"
     id="path37744" /><g
     id="g37746"
     transform="matrix(0.35277776,0,0,-0.35277778,13.503611,25.735361)"><text
       xml:space="preserve"
       transform="scale(1,-1)"
       style="font-variant:normal;font-weight:normal;font-size:15px;font-family:DejaVuSans;-inkscape-font-specification:DejaVuSans;writing-mode:lr-tb;fill:#000000;fill-opacity:1;fill-rule:nonzero;stroke:none"
       id="text37750"><tspan
         x="0"
         y="0"
         id="tspan37748">1</tspan></text></g><path
     d="m 19.341011,4.5491822 h -1.2347"
     style="fill:#000000;fill-opacity:1;fill-rule:nonzero;stroke:#000000;stroke-width:0.282222;stroke-linecap:butt;stroke-linejoin:round;stroke-miterlimit:10;stroke-dasharray:none;stroke-opacity:1"
     id="path37752" /><g
     id="g37754"
     transform="matrix(0.35277776,0,0,-0.35277778,13.503611,6.558361)"><text
       xml:space="preserve"
       transform="scale(1,-1)"
       style="font-variant:normal;font-weight:normal;font-size:15px;font-family:DejaVuSans;-inkscape-font-specification:DejaVuSans;writing-mode:lr-tb;fill:#000000;fill-opacity:1;fill-rule:nonzero;stroke:none"
       id="text37758"><tspan
         x="0"
         y="0"
         id="tspan37756">2</tspan></text></g><g
     id="g37770"
     transform="matrix(0.35277776,0,0,-0.35277778,1.0764729e-5,97.919318)"><g
       id="g37772"
       clip-path="url(#clipPath37776)"><path
         d="m 54.825,210.31125 h 334.8"
         style="fill:none;stroke:#000080;stroke-width:1.5;stroke-linecap:butt;stroke-linejoin:round;stroke-miterlimit:10;stroke-dasharray:5.55, 2.4;stroke-dashoffset:0;stroke-opacity:0.5"
         id="path37778" /></g></g><g
     id="g37780"
     transform="matrix(0.35277776,0,0,-0.35277778,1.0764729e-5,97.919318)"><g
       id="g37782"
       clip-path="url(#clipPath37786)"><path
         d="m 54.825,101.59125 h 334.8"
         style="fill:none;stroke:#000080;stroke-width:1.5;stroke-linecap:butt;stroke-linejoin:round;stroke-miterlimit:10;stroke-dasharray:5.55, 2.4;stroke-dashoffset:0;stroke-opacity:0.5"
         id="path37788" /></g></g><g
     id="g37790"
     transform="matrix(0.35277776,0,0,-0.35277778,1.0764729e-5,97.919318)"
     style="stroke-width:1.70079;stroke-dasharray:none"><g
       id="g37792"
       clip-path="url(#clipPath37796)"
       style="stroke-width:1.70079;stroke-dasharray:none"><path
         d="m 54.825,156.4959 4.464446,1.89055 2.232224,1.32338 1.116111,0.84836 2.232224,2.13381 5.580558,6.37553 2.232223,1.84826 2.232223,1.33613 2.232223,1.0297 6.69667,2.85922 2.232223,1.21676 2.232223,1.45515 2.232224,1.70372 7.812781,6.51027 2.232227,1.47113 2.23222,1.2015 2.23222,0.9686 3.34834,1.13018 3.34833,0.88244 5.58056,1.20549 15.62556,3.20443 6.69667,1.62918 6.69667,1.84526 14.50945,4.13973 4.46445,1.0153 4.46445,0.78873 4.46444,0.55835 5.58056,0.4233 6.69667,0.23204 10.045,0.0824 95.9856,-0.0169 h 97.10171 v 0"
         style="fill:none;stroke:#ff0000;stroke-width:1.70079;stroke-linecap:square;stroke-linejoin:round;stroke-miterlimit:10;stroke-dasharray:none;stroke-opacity:1"
         id="path37798" /></g></g><g
     id="g37800"
     transform="matrix(0.35277776,0,0,-0.35277778,1.0764729e-5,97.919318)"
     style="stroke-width:1.70079;stroke-dasharray:none"><g
       id="g37802"
       clip-path="url(#clipPath37806)"
       style="stroke-width:1.70079;stroke-dasharray:none"><path
         d="m 54.825,233.75797 2.232223,-7.01898 2.232223,-6.0131 1.116112,-2.57846 1.116112,-2.28011 1.116111,-1.97938 1.116112,-1.68491 1.116112,-1.40584 1.116111,-1.14974 1.116112,-0.92147 1.116111,-0.72309 1.116112,-0.55427 2.232223,-0.71011 2.232223,-0.32942 2.232224,-0.087 3.348334,0.1212 18.973898,1.18605 8.928897,0.14118 21.20612,0.0219 236.61566,-0.005 h 24.55445 v 0"
         style="fill:none;stroke:#0000ff;stroke-width:1.70079;stroke-linecap:square;stroke-linejoin:round;stroke-miterlimit:10;stroke-dasharray:none;stroke-opacity:1"
         id="path37808" /></g></g><g
     id="g37810"
     transform="matrix(0.35277776,0,0,-0.35277778,1.0764729e-5,97.919318)"
     style="stroke-width:1.70079;stroke-dasharray:none"><g
       id="g37812"
       clip-path="url(#clipPath37816)"
       style="stroke-width:1.70079;stroke-dasharray:none"><path
         d="m 54.825,182.80681 1.116112,-0.008 1.116111,0.23306 1.116112,0.41155 2.232223,1.16189 6.69667,3.94487 2.232223,1.05669 3.348335,1.28032 3.348335,1.00033 4.464446,1.06968 7.812781,1.57666 11.161116,2.28298 6.696666,1.58959 6.69667,1.80852 16.74168,4.73812 4.46444,0.9664 4.46445,0.73526 4.46445,0.50944 5.58055,0.37673 6.69667,0.19938 11.16112,0.0657 223.22232,-0.0184 v 0"
         style="fill:none;stroke:#008000;stroke-width:1.70079;stroke-linecap:square;stroke-linejoin:round;stroke-miterlimit:10;stroke-dasharray:none;stroke-opacity:1"
         id="path37818" /></g></g><g
     id="g37820"
     transform="matrix(0.35277776,0,0,-0.35277778,1.0764729e-5,97.919318)"
     style="stroke-width:1.70079;stroke-dasharray:none"><g
       id="g37822"
       clip-path="url(#clipPath37826)"
       style="stroke-width:1.70079;stroke-dasharray:none"><path
         d="m 54.825,130.185 1.116112,0.81945 1.116111,0.36256 1.116112,0.015 1.116111,-0.24892 1.116112,-0.44916 2.232223,-1.30785 3.348335,-2.43933 3.348335,-2.36506 2.232223,-1.33478 2.232223,-1.11068 2.232224,-0.91187 3.348334,-1.08569 4.464447,-1.12048 6.69667,-1.38088 12.277228,-2.499 6.69667,-1.58355 6.69667,-1.80251 17.85778,-5.01067 4.46445,-0.92022 4.46445,-0.68688 4.46444,-0.46663 5.58056,-0.33725 6.69667,-0.1726 12.27723,-0.0514 191.9712,0.0179 h 25.67056 v 0"
         style="fill:none;stroke:#000000;stroke-width:1.70079;stroke-linecap:square;stroke-linejoin:round;stroke-miterlimit:10;stroke-dasharray:none;stroke-opacity:1"
         id="path37828" /></g></g><g
     id="g37830"
     transform="matrix(0.35277776,0,0,-0.35277778,1.0764729e-5,97.919318)"
     style="stroke-width:1.70079;stroke-dasharray:none"><g
       id="g37832"
       clip-path="url(#clipPath37836)"
       style="stroke-width:1.70079;stroke-dasharray:none"><path
         d="m 54.825,79.233835 1.116112,4.40158 1.116111,3.944562 1.116112,3.494558 1.116111,3.057168 1.116112,2.631693 1.116112,2.222132 1.116111,1.837102 1.116112,1.48593 1.116112,1.17529 1.116111,0.90796 1.116112,0.68318 1.116111,0.49769 1.116112,0.34704 2.232223,0.35688 2.232223,0.0539 3.348335,-0.22562 15.625563,-1.5713 6.696669,-0.28431 8.928896,-0.12923 23.43834,-0.009 253.35734,0.003 h 4.46444 v 0"
         style="fill:none;stroke:#808080;stroke-width:1.70079;stroke-linecap:square;stroke-linejoin:round;stroke-miterlimit:10;stroke-dasharray:none;stroke-opacity:1"
         id="path37838" /></g></g><g
     id="g37840"
     transform="matrix(0.35277776,0,0,-0.35277778,1.0764729e-5,97.919318)"
     style="stroke-width:1.70079;stroke-dasharray:none"><g
       id="g37842"
       clip-path="url(#clipPath37846)"
       style="stroke-width:1.70079;stroke-dasharray:none"><path
         d="m 54.825,195.67694 1.116112,-0.73567 1.116111,-0.5048 1.116112,-0.3313 2.232223,-0.30176 2.232223,0.004 3.348335,0.31324 4.464447,0.6857 6.696669,1.27141 6.69667,1.47263 6.69667,1.69245 7.812781,2.22743 10.045007,2.88216 4.46444,1.07762 4.46445,0.86079 4.46445,0.62724 4.46444,0.41565 5.58056,0.29171 7.81278,0.15364 16.74168,0.0198 112.72727,-0.0114 h 120.54005 v 0"
         style="fill:none;stroke:#ffff00;stroke-width:1.70079;stroke-linecap:square;stroke-linejoin:round;stroke-miterlimit:10;stroke-dasharray:none;stroke-opacity:1"
         id="path37848" /></g></g><g
     id="g37850"
     transform="matrix(0.35277776,0,0,-0.35277778,1.0764729e-5,97.919318)"
     style="stroke-width:1.70079;stroke-dasharray:none"><g
       id="g37852"
       clip-path="url(#clipPath37856)"
       style="stroke-width:1.70079;stroke-dasharray:none"><path
         d="m 54.825,117.31487 1.116112,1.56785 1.116111,1.14006 1.116112,0.81111 1.116111,0.55504 1.116112,0.35457 1.116112,0.19773 2.232223,0.0579 2.232223,-0.23014 3.348335,-0.60793 17.857786,-3.63015 11.161116,-2.24716 6.696667,-1.5605 6.69667,-1.77983 18.9739,-5.30441 4.46445,-0.89957 4.46444,-0.66585 4.46445,-0.44843 5.58056,-0.32079 7.81278,-0.17439 15.62556,-0.0289 111.61116,0.0134 h 104.91449 v 0"
         style="fill:none;stroke:#ffc0cb;stroke-width:1.70079;stroke-linecap:square;stroke-linejoin:round;stroke-miterlimit:10;stroke-dasharray:none;stroke-opacity:1"
         id="path37858" /></g></g><g
     id="g37860"
     transform="matrix(0.35277776,0,0,-0.35277778,1.0764729e-5,97.919318)"
     style="stroke-width:1.70079;stroke-dasharray:none"><g
       id="g37862"
       clip-path="url(#clipPath37866)"
       style="stroke-width:1.70079;stroke-dasharray:none"><path
         d="m 54.825,221.20387 2.232223,-4.67327 1.116112,-1.94859 1.116111,-1.68472 1.116112,-1.4283 1.116112,-1.18758 1.116111,-0.96852 1.116112,-0.77452 1.116112,-0.60664 2.232223,-0.80925 2.232223,-0.41468 2.232223,-0.15673 3.348335,0.0423 6.69667,0.43452 7.812781,0.45223 7.812781,0.22502 12.277229,0.0882 92.63726,-0.005 h 187.50675 v 0"
         style="fill:none;stroke:#800080;stroke-width:1.70079;stroke-linecap:square;stroke-linejoin:round;stroke-miterlimit:10;stroke-dasharray:none;stroke-opacity:1"
         id="path37868" /></g></g><g
     id="g37870"
     transform="matrix(0.35277776,0,0,-0.35277778,1.0764729e-5,97.919318)"
     style="stroke-width:1.70079;stroke-dasharray:none"><g
       id="g37872"
       clip-path="url(#clipPath37876)"
       style="stroke-width:1.70079;stroke-dasharray:none"><path
         d="m 54.825,91.787936 1.116112,3.258112 1.116111,2.754731 1.116112,2.280901 1.116111,1.84622 1.116112,1.45977 1.116112,1.12646 1.116111,0.84636 1.116112,0.61592 1.116112,0.42946 1.116111,0.28069 2.232223,0.23515 2.232224,-0.051 3.348334,-0.35497 12.277228,-1.62206 5.580558,-0.42255 6.69667,-0.25556 10.045007,-0.10872 41.29613,0.008 239.96399,-1e-4 v 0"
         style="fill:none;stroke:#ffa500;stroke-width:1.70079;stroke-linecap:square;stroke-linejoin:round;stroke-miterlimit:10;stroke-dasharray:none;stroke-opacity:1"
         id="path37878" /></g></g><g
     id="g37880"
     transform="matrix(0.35277776,0,0,-0.35277778,1.0764729e-5,97.919318)"
     style="stroke-width:1.70079;stroke-dasharray:none"><g
       id="g37882"
       clip-path="url(#clipPath37886)"
       style="stroke-width:1.70079;stroke-dasharray:none"><path
         d="m 54.825,169.64236 2.232223,0.41596 5.580558,1.46109 8.928893,2.48174 3.348335,1.19618 2.232223,0.98752 2.232223,1.19694 2.232224,1.44611 2.232223,1.69938 7.812781,6.50355 2.232223,1.46988 2.232224,1.20059 2.232223,0.96796 3.348337,1.12961 3.34833,0.88216 5.58056,1.20532 15.62556,3.20441 6.69667,1.62922 6.69667,1.84529 14.50945,4.13968 4.46445,1.01526 4.46445,0.78866 4.46444,0.5583 5.58056,0.42325 6.69667,0.232 10.045,0.0824 95.9856,-0.0169 h 103.79838 v 0"
         style="fill:none;stroke:#a52a2a;stroke-width:1.70079;stroke-linecap:square;stroke-linejoin:round;stroke-miterlimit:10;stroke-dasharray:none;stroke-opacity:1"
         id="path37888" /></g></g><g
     id="g37890"
     transform="matrix(0.35277776,0,0,-0.35277778,1.0764729e-5,97.919318)"><path
       d="m 54.825,47.23125 v 217.44"
       style="fill:none;stroke:#000000;stroke-width:1.98425;stroke-linecap:square;stroke-linejoin:miter;stroke-miterlimit:10;stroke-dasharray:none;stroke-opacity:1"
       id="path37892" /><path
       d="m 389.625,47.23125 v 217.44"
       style="fill:none;stroke:#000000;stroke-width:1.98425;stroke-linecap:square;stroke-linejoin:miter;stroke-miterlimit:10;stroke-dasharray:none;stroke-opacity:1"
       id="path37894" /><path
       d="m 54.825,47.23125 h 334.8"
       style="fill:none;stroke:#000000;stroke-width:1.98425;stroke-linecap:square;stroke-linejoin:miter;stroke-miterlimit:10;stroke-dasharray:none;stroke-opacity:1"
       id="path37896" /><path
       d="m 54.825,264.67125 h 334.8"
       style="fill:none;stroke:#000000;stroke-width:1.98425;stroke-linecap:square;stroke-linejoin:miter;stroke-miterlimit:10;stroke-dasharray:none;stroke-opacity:1"
       id="path37898" /></g><g
     id="g38053"
     transform="matrix(0.35277776,0,0,-0.35277778,14.684211,87.744986)"><text
       xml:space="preserve"
       transform="scale(1,-1)"
       style="font-variant:normal;font-weight:normal;font-size:15px;font-family:DejaVuSans;-inkscape-font-specification:DejaVuSans;writing-mode:lr-tb;fill:#000000;fill-opacity:1;fill-rule:nonzero;stroke:none"
       id="text38057"><tspan
         x="0 9.54 19.08"
         y="0"
         sodipodi:role="line"
         id="tspan38055">100</tspan></text></g><g
     id="g38061"
     transform="matrix(0.35277776,0,0,-0.35277778,54.054211,87.744986)"><text
       xml:space="preserve"
       transform="scale(1,-1)"
       style="font-variant:normal;font-weight:normal;font-size:15px;font-family:DejaVuSans;-inkscape-font-specification:DejaVuSans;writing-mode:lr-tb;fill:#000000;fill-opacity:1;fill-rule:nonzero;stroke:none"
       id="text38065"><tspan
         x="0 9.54 19.08"
         y="0"
         sodipodi:role="line"
         id="tspan38063">101</tspan></text></g><g
     id="g38069"
     transform="matrix(0.35277776,0,0,-0.35277778,93.424211,87.744986)"><text
       xml:space="preserve"
       transform="scale(1,-1)"
       style="font-variant:normal;font-weight:normal;font-size:15px;font-family:DejaVuSans;-inkscape-font-specification:DejaVuSans;writing-mode:lr-tb;fill:#000000;fill-opacity:1;fill-rule:nonzero;stroke:none"
       id="text38073"><tspan
         x="0 9.54 19.08"
         y="0"
         sodipodi:role="line"
         id="tspan38071">102</tspan></text></g><g
     id="g38077"
     transform="matrix(0.35277776,0,0,-0.35277778,132.79421,87.744986)"><text
       xml:space="preserve"
       transform="scale(1,-1)"
       style="font-variant:normal;font-weight:normal;font-size:15px;font-family:DejaVuSans;-inkscape-font-specification:DejaVuSans;writing-mode:lr-tb;fill:#000000;fill-opacity:1;fill-rule:nonzero;stroke:none"
       id="text38081"><tspan
         x="0 9.54 19.08"
         y="0"
         sodipodi:role="line"
         id="tspan38079">103</tspan></text></g></svg>
