<?xml version="1.0" encoding="UTF-8" standalone="no"?>
<!-- Created with Inkscape (http://www.inkscape.org/) -->

<svg
   width="141.89935mm"
   height="92.962456mm"
   viewBox="0 0 141.89935 92.962456"
   version="1.1"
   id="svg5"
   xml:space="preserve"
   xmlns:inkscape="http://www.inkscape.org/namespaces/inkscape"
   xmlns:sodipodi="http://sodipodi.sourceforge.net/DTD/sodipodi-0.dtd"
   xmlns="http://www.w3.org/2000/svg"
   xmlns:svg="http://www.w3.org/2000/svg"><sodipodi:namedview
     id="namedview7"
     pagecolor="#ffffff"
     bordercolor="#000000"
     borderopacity="0.25"
     inkscape:showpageshadow="2"
     inkscape:pageopacity="0.0"
     inkscape:pagecheckerboard="0"
     inkscape:deskcolor="#d1d1d1"
     inkscape:document-units="mm"
     showgrid="false" /><defs
     id="defs2"><clipPath
       clipPathUnits="userSpaceOnUse"
       id="clipPath152"><path
         d="M 38.059375,28.715625 H 395.03437 V 256.31562 H 38.059375 Z"
         id="path150" /></clipPath><clipPath
       clipPathUnits="userSpaceOnUse"
       id="clipPath162"><path
         d="M 38.059375,28.715625 H 395.03437 V 256.31562 H 38.059375 Z"
         id="path160" /></clipPath><clipPath
       clipPathUnits="userSpaceOnUse"
       id="clipPath172"><path
         d="M 38.059375,28.715625 H 395.03437 V 256.31562 H 38.059375 Z"
         id="path170" /></clipPath><clipPath
       clipPathUnits="userSpaceOnUse"
       id="clipPath182"><path
         d="M 38.059375,28.715625 H 395.03437 V 256.31562 H 38.059375 Z"
         id="path180" /></clipPath><clipPath
       clipPathUnits="userSpaceOnUse"
       id="clipPath192"><path
         d="M 38.059375,28.715625 H 395.03437 V 256.31562 H 38.059375 Z"
         id="path190" /></clipPath><clipPath
       clipPathUnits="userSpaceOnUse"
       id="clipPath202"><path
         d="M 38.059375,28.715625 H 395.03437 V 256.31562 H 38.059375 Z"
         id="path200" /></clipPath><clipPath
       clipPathUnits="userSpaceOnUse"
       id="clipPath212"><path
         d="M 38.059375,28.715625 H 395.03437 V 256.31562 H 38.059375 Z"
         id="path210" /></clipPath><clipPath
       clipPathUnits="userSpaceOnUse"
       id="clipPath222"><path
         d="M 38.059375,28.715625 H 395.03437 V 256.31562 H 38.059375 Z"
         id="path220" /></clipPath><clipPath
       clipPathUnits="userSpaceOnUse"
       id="clipPath232"><path
         d="M 38.059375,28.715625 H 395.03437 V 256.31562 H 38.059375 Z"
         id="path230" /></clipPath><clipPath
       clipPathUnits="userSpaceOnUse"
       id="clipPath242"><path
         d="M 38.059375,28.715625 H 395.03437 V 256.31562 H 38.059375 Z"
         id="path240" /></clipPath><clipPath
       clipPathUnits="userSpaceOnUse"
       id="clipPath252"><path
         d="M 38.059375,28.715625 H 395.03437 V 256.31562 H 38.059375 Z"
         id="path250" /></clipPath><clipPath
       clipPathUnits="userSpaceOnUse"
       id="clipPath262"><path
         d="M 38.059375,28.715625 H 395.03437 V 256.31562 H 38.059375 Z"
         id="path260" /></clipPath><clipPath
       clipPathUnits="userSpaceOnUse"
       id="clipPath272"><path
         d="M 38.059375,28.715625 H 395.03437 V 256.31562 H 38.059375 Z"
         id="path270" /></clipPath><clipPath
       clipPathUnits="userSpaceOnUse"
       id="clipPath282"><path
         d="M 38.059375,28.715625 H 395.03437 V 256.31562 H 38.059375 Z"
         id="path280" /></clipPath><clipPath
       clipPathUnits="userSpaceOnUse"
       id="clipPath292"><path
         d="M 38.059375,28.715625 H 395.03437 V 256.31562 H 38.059375 Z"
         id="path290" /></clipPath><clipPath
       clipPathUnits="userSpaceOnUse"
       id="clipPath302"><path
         d="M 38.059375,28.715625 H 395.03437 V 256.31562 H 38.059375 Z"
         id="path300" /></clipPath><clipPath
       clipPathUnits="userSpaceOnUse"
       id="clipPath312"><path
         d="M 38.059375,28.715625 H 395.03437 V 256.31562 H 38.059375 Z"
         id="path310" /></clipPath><clipPath
       clipPathUnits="userSpaceOnUse"
       id="clipPath322"><path
         d="M 38.059375,28.715625 H 395.03437 V 256.31562 H 38.059375 Z"
         id="path320" /></clipPath><clipPath
       clipPathUnits="userSpaceOnUse"
       id="clipPath332"><path
         d="M 38.059375,28.715625 H 395.03437 V 256.31562 H 38.059375 Z"
         id="path330" /></clipPath><clipPath
       clipPathUnits="userSpaceOnUse"
       id="clipPath342"><path
         d="M 38.059375,28.715625 H 395.03437 V 256.31562 H 38.059375 Z"
         id="path340" /></clipPath><clipPath
       clipPathUnits="userSpaceOnUse"
       id="clipPath352"><path
         d="M 38.059375,28.715625 H 395.03437 V 256.31562 H 38.059375 Z"
         id="path350" /></clipPath><clipPath
       clipPathUnits="userSpaceOnUse"
       id="clipPath362"><path
         d="M 38.059375,28.715625 H 395.03437 V 256.31562 H 38.059375 Z"
         id="path360" /></clipPath><clipPath
       clipPathUnits="userSpaceOnUse"
       id="clipPath372"><path
         d="M 38.059375,28.715625 H 395.03437 V 256.31562 H 38.059375 Z"
         id="path370" /></clipPath><clipPath
       clipPathUnits="userSpaceOnUse"
       id="clipPath382"><path
         d="M 38.059375,28.715625 H 395.03437 V 256.31562 H 38.059375 Z"
         id="path380" /></clipPath><clipPath
       clipPathUnits="userSpaceOnUse"
       id="clipPath392"><path
         d="M 38.059375,28.715625 H 395.03437 V 256.31562 H 38.059375 Z"
         id="path390" /></clipPath><clipPath
       clipPathUnits="userSpaceOnUse"
       id="clipPath402"><path
         d="M 38.059375,28.715625 H 395.03437 V 256.31562 H 38.059375 Z"
         id="path400" /></clipPath><clipPath
       clipPathUnits="userSpaceOnUse"
       id="clipPath412"><path
         d="M 38.059375,28.715625 H 395.03437 V 256.31562 H 38.059375 Z"
         id="path410" /></clipPath><clipPath
       clipPathUnits="userSpaceOnUse"
       id="clipPath422"><path
         d="M 38.059375,28.715625 H 395.03437 V 256.31562 H 38.059375 Z"
         id="path420" /></clipPath><clipPath
       clipPathUnits="userSpaceOnUse"
       id="clipPath432"><path
         d="M 38.059375,28.715625 H 395.03437 V 256.31562 H 38.059375 Z"
         id="path430" /></clipPath><clipPath
       clipPathUnits="userSpaceOnUse"
       id="clipPath442"><path
         d="M 38.059375,28.715625 H 395.03437 V 256.31562 H 38.059375 Z"
         id="path440" /></clipPath><clipPath
       clipPathUnits="userSpaceOnUse"
       id="clipPath452"><path
         d="M 38.059375,28.715625 H 395.03437 V 256.31562 H 38.059375 Z"
         id="path450" /></clipPath><clipPath
       clipPathUnits="userSpaceOnUse"
       id="clipPath462"><path
         d="M 38.059375,28.715625 H 395.03437 V 256.31562 H 38.059375 Z"
         id="path460" /></clipPath><clipPath
       clipPathUnits="userSpaceOnUse"
       id="clipPath484"><path
         d="M -1021,-463 H 1794 V 1233 H -1021 Z"
         id="path482" /></clipPath><clipPath
       clipPathUnits="userSpaceOnUse"
       id="clipPath504"><path
         d="M -1021,-463 H 1794 V 1233 H -1021 Z"
         id="path502" /></clipPath></defs><g
     id="g146"
     transform="matrix(0.35277776,0,0,-0.35277778,-5.0620426e-6,92.96246)"><g
       id="g148"
       clip-path="url(#clipPath152)"><path
         d="m 54.285511,28.715625 h 8.215766 v 5.103359 h -8.215766 z"
         style="fill:#ff7f50;fill-opacity:1;fill-rule:nonzero;stroke:none"
         id="path154" /></g></g><g
     id="g156"
     transform="matrix(0.35277776,0,0,-0.35277778,-5.0620426e-6,92.96246)"><g
       id="g158"
       clip-path="url(#clipPath162)"><path
         d="M 74.824924,28.715625 H 83.04069 V 43.706743 H 74.824924 Z"
         style="fill:#ff7f50;fill-opacity:1;fill-rule:nonzero;stroke:none"
         id="path164" /></g></g><g
     id="g166"
     transform="matrix(0.35277776,0,0,-0.35277778,-5.0620426e-6,92.96246)"><g
       id="g168"
       clip-path="url(#clipPath172)"><path
         d="M 95.364338,28.715625 H 103.5801 V 60.452141 H 95.364338 Z"
         style="fill:#ff7f50;fill-opacity:1;fill-rule:nonzero;stroke:none"
         id="path174" /></g></g><g
     id="g176"
     transform="matrix(0.35277776,0,0,-0.35277778,-5.0620426e-6,92.96246)"><g
       id="g178"
       clip-path="url(#clipPath182)"><path
         d="m 115.90375,28.715625 h 8.21577 v 55.817993 h -8.21577 z"
         style="fill:#ff7f50;fill-opacity:1;fill-rule:nonzero;stroke:none"
         id="path184" /></g></g><g
     id="g186"
     transform="matrix(0.35277776,0,0,-0.35277778,-5.0620426e-6,92.96246)"><g
       id="g188"
       clip-path="url(#clipPath192)"><path
         d="m 136.44316,28.715625 h 8.21577 v 93.774225 h -8.21577 z"
         style="fill:#ff7f50;fill-opacity:1;fill-rule:nonzero;stroke:none"
         id="path194" /></g></g><g
     id="g196"
     transform="matrix(0.35277776,0,0,-0.35277778,-5.0620426e-6,92.96246)"><g
       id="g198"
       clip-path="url(#clipPath202)"><path
         d="m 156.98258,28.715625 h 8.21576 V 167.30373 h -8.21576 z"
         style="fill:#ff7f50;fill-opacity:1;fill-rule:nonzero;stroke:none"
         id="path204" /></g></g><g
     id="g206"
     transform="matrix(0.35277776,0,0,-0.35277778,-5.0620426e-6,92.96246)"><g
       id="g208"
       clip-path="url(#clipPath212)"><path
         d="m 177.52199,28.715625 h 8.21576 V 207.17372 h -8.21576 z"
         style="fill:#ff7f50;fill-opacity:1;fill-rule:nonzero;stroke:none"
         id="path214" /></g></g><g
     id="g216"
     transform="matrix(0.35277776,0,0,-0.35277778,-5.0620426e-6,92.96246)"><g
       id="g218"
       clip-path="url(#clipPath222)"><path
         d="m 198.0614,28.715625 h 8.21577 V 239.86712 h -8.21577 z"
         style="fill:#ff7f50;fill-opacity:1;fill-rule:nonzero;stroke:none"
         id="path224" /></g></g><g
     id="g226"
     transform="matrix(0.35277776,0,0,-0.35277778,-5.0620426e-6,92.96246)"><g
       id="g228"
       clip-path="url(#clipPath232)"><path
         d="m 218.60082,28.715625 h 8.21576 V 241.46192 h -8.21576 z"
         style="fill:#ff7f50;fill-opacity:1;fill-rule:nonzero;stroke:none"
         id="path234" /></g></g><g
     id="g236"
     transform="matrix(0.35277776,0,0,-0.35277778,-5.0620426e-6,92.96246)"><g
       id="g238"
       clip-path="url(#clipPath242)"><path
         d="m 239.14023,28.715625 h 8.21576 V 225.83288 h -8.21576 z"
         style="fill:#ff7f50;fill-opacity:1;fill-rule:nonzero;stroke:none"
         id="path244" /></g></g><g
     id="g246"
     transform="matrix(0.35277776,0,0,-0.35277778,-5.0620426e-6,92.96246)"><g
       id="g248"
       clip-path="url(#clipPath252)"><path
         d="m 259.67964,28.715625 h 8.21577 V 187.87664 h -8.21577 z"
         style="fill:#ff7f50;fill-opacity:1;fill-rule:nonzero;stroke:none"
         id="path254" /></g></g><g
     id="g256"
     transform="matrix(0.35277776,0,0,-0.35277778,-5.0620426e-6,92.96246)"><g
       id="g258"
       clip-path="url(#clipPath262)"><path
         d="m 280.21906,28.715625 h 8.21576 V 154.54533 h -8.21576 z"
         style="fill:#ff7f50;fill-opacity:1;fill-rule:nonzero;stroke:none"
         id="path264" /></g></g><g
     id="g266"
     transform="matrix(0.35277776,0,0,-0.35277778,-5.0620426e-6,92.96246)"><g
       id="g268"
       clip-path="url(#clipPath272)"><path
         d="m 300.75847,28.715625 h 8.21576 v 80.537395 h -8.21576 z"
         style="fill:#ff7f50;fill-opacity:1;fill-rule:nonzero;stroke:none"
         id="path274" /></g></g><g
     id="g276"
     transform="matrix(0.35277776,0,0,-0.35277778,-5.0620426e-6,92.96246)"><g
       id="g278"
       clip-path="url(#clipPath282)"><path
         d="m 321.29788,28.715625 h 8.21577 V 71.61574 h -8.21577 z"
         style="fill:#ff7f50;fill-opacity:1;fill-rule:nonzero;stroke:none"
         id="path284" /></g></g><g
     id="g286"
     transform="matrix(0.35277776,0,0,-0.35277778,-5.0620426e-6,92.96246)"><g
       id="g288"
       clip-path="url(#clipPath292)"><path
         d="m 341.83729,28.715625 h 8.21577 v 25.676277 h -8.21577 z"
         style="fill:#ff7f50;fill-opacity:1;fill-rule:nonzero;stroke:none"
         id="path294" /></g></g><g
     id="g296"
     transform="matrix(0.35277776,0,0,-0.35277778,-5.0620426e-6,92.96246)"><g
       id="g298"
       clip-path="url(#clipPath302)"><path
         d="m 362.37671,28.715625 h 8.21576 v 11.323079 h -8.21576 z"
         style="fill:#ff7f50;fill-opacity:1;fill-rule:nonzero;stroke:none"
         id="path304" /></g></g><g
     id="g306"
     transform="matrix(0.35277776,0,0,-0.35277778,-5.0620426e-6,92.96246)"><g
       id="g308"
       clip-path="url(#clipPath312)"><path
         d="m 62.501277,28.715625 h 8.215765 v 5.419048 h -8.215765 z"
         style="fill:#2e8b57;fill-opacity:1;fill-rule:nonzero;stroke:none"
         id="path314" /></g></g><g
     id="g316"
     transform="matrix(0.35277776,0,0,-0.35277778,-5.0620426e-6,92.96246)"><g
       id="g318"
       clip-path="url(#clipPath322)"><path
         d="m 83.04069,28.715625 h 8.215765 V 40.350639 H 83.04069 Z"
         style="fill:#2e8b57;fill-opacity:1;fill-rule:nonzero;stroke:none"
         id="path324" /></g></g><g
     id="g326"
     transform="matrix(0.35277776,0,0,-0.35277778,-5.0620426e-6,92.96246)"><g
       id="g328"
       clip-path="url(#clipPath332)"><path
         d="m 103.5801,28.715625 h 8.21577 v 32.833053 h -8.21577 z"
         style="fill:#2e8b57;fill-opacity:1;fill-rule:nonzero;stroke:none"
         id="path334" /></g></g><g
     id="g336"
     transform="matrix(0.35277776,0,0,-0.35277778,-5.0620426e-6,92.96246)"><g
       id="g338"
       clip-path="url(#clipPath342)"><path
         d="m 124.11952,28.715625 h 8.21576 V 81.15288 h -8.21576 z"
         style="fill:#2e8b57;fill-opacity:1;fill-rule:nonzero;stroke:none"
         id="path344" /></g></g><g
     id="g346"
     transform="matrix(0.35277776,0,0,-0.35277778,-5.0620426e-6,92.96246)"><g
       id="g348"
       clip-path="url(#clipPath352)"><path
         d="m 144.65893,28.715625 h 8.21576 v 93.558265 h -8.21576 z"
         style="fill:#2e8b57;fill-opacity:1;fill-rule:nonzero;stroke:none"
         id="path354" /></g></g><g
     id="g356"
     transform="matrix(0.35277776,0,0,-0.35277778,-5.0620426e-6,92.96246)"><g
       id="g358"
       clip-path="url(#clipPath362)"><path
         d="m 165.19834,28.715625 h 8.21577 V 164.3512 h -8.21577 z"
         style="fill:#2e8b57;fill-opacity:1;fill-rule:nonzero;stroke:none"
         id="path364" /></g></g><g
     id="g366"
     transform="matrix(0.35277776,0,0,-0.35277778,-5.0620426e-6,92.96246)"><g
       id="g368"
       clip-path="url(#clipPath372)"><path
         d="m 185.73775,28.715625 h 8.21577 V 205.79097 h -8.21577 z"
         style="fill:#2e8b57;fill-opacity:1;fill-rule:nonzero;stroke:none"
         id="path374" /></g></g><g
     id="g376"
     transform="matrix(0.35277776,0,0,-0.35277778,-5.0620426e-6,92.96246)"><g
       id="g378"
       clip-path="url(#clipPath382)"><path
         d="m 206.27717,28.715625 h 8.21576 V 228.1047 h -8.21576 z"
         style="fill:#2e8b57;fill-opacity:1;fill-rule:nonzero;stroke:none"
         id="path384" /></g></g><g
     id="g386"
     transform="matrix(0.35277776,0,0,-0.35277778,-5.0620426e-6,92.96246)"><g
       id="g388"
       clip-path="url(#clipPath392)"><path
         d="m 226.81658,28.715625 h 8.21577 V 245.47753 h -8.21577 z"
         style="fill:#2e8b57;fill-opacity:1;fill-rule:nonzero;stroke:none"
         id="path394" /></g></g><g
     id="g396"
     transform="matrix(0.35277776,0,0,-0.35277778,-5.0620426e-6,92.96246)"><g
       id="g398"
       clip-path="url(#clipPath402)"><path
         d="m 247.35599,28.715625 h 8.21577 V 237.98649 h -8.21577 z"
         style="fill:#2e8b57;fill-opacity:1;fill-rule:nonzero;stroke:none"
         id="path404" /></g></g><g
     id="g406"
     transform="matrix(0.35277776,0,0,-0.35277778,-5.0620426e-6,92.96246)"><g
       id="g408"
       clip-path="url(#clipPath412)"><path
         d="m 267.89541,28.715625 h 8.21576 V 202.12515 h -8.21576 z"
         style="fill:#2e8b57;fill-opacity:1;fill-rule:nonzero;stroke:none"
         id="path414" /></g></g><g
     id="g416"
     transform="matrix(0.35277776,0,0,-0.35277778,-5.0620426e-6,92.96246)"><g
       id="g418"
       clip-path="url(#clipPath422)"><path
         d="m 288.43482,28.715625 h 8.21577 V 144.747 h -8.21577 z"
         style="fill:#2e8b57;fill-opacity:1;fill-rule:nonzero;stroke:none"
         id="path424" /></g></g><g
     id="g426"
     transform="matrix(0.35277776,0,0,-0.35277778,-5.0620426e-6,92.96246)"><g
       id="g428"
       clip-path="url(#clipPath432)"><path
         d="M 308.97423,28.715625 H 317.19 v 87.342295 h -8.21577 z"
         style="fill:#2e8b57;fill-opacity:1;fill-rule:nonzero;stroke:none"
         id="path434" /></g></g><g
     id="g436"
     transform="matrix(0.35277776,0,0,-0.35277778,-5.0620426e-6,92.96246)"><g
       id="g438"
       clip-path="url(#clipPath442)"><path
         d="m 329.51365,28.715625 h 8.21576 v 41.59916 h -8.21576 z"
         style="fill:#2e8b57;fill-opacity:1;fill-rule:nonzero;stroke:none"
         id="path444" /></g></g><g
     id="g446"
     transform="matrix(0.35277776,0,0,-0.35277778,-5.0620426e-6,92.96246)"><g
       id="g448"
       clip-path="url(#clipPath452)"><path
         d="m 350.05306,28.715625 h 8.21577 v 22.632493 h -8.21577 z"
         style="fill:#2e8b57;fill-opacity:1;fill-rule:nonzero;stroke:none"
         id="path454" /></g></g><g
     id="g456"
     transform="matrix(0.35277776,0,0,-0.35277778,-5.0620426e-6,92.96246)"><g
       id="g458"
       clip-path="url(#clipPath462)"><path
         d="m 370.59247,28.715625 h 8.21577 v 9.881793 h -8.21577 z"
         style="fill:#2e8b57;fill-opacity:1;fill-rule:nonzero;stroke:none"
         id="path464" /></g></g><g
     id="g466"
     transform="matrix(0.35277776,0,0,-0.35277778,-5.0620426e-6,92.96246)"><path
       d="m 86.463925,28.715625 v -3.5"
       style="fill:#000000;fill-opacity:1;fill-rule:nonzero;stroke:#000000;stroke-width:0.8;stroke-linecap:butt;stroke-linejoin:round;stroke-miterlimit:10;stroke-dasharray:none;stroke-opacity:1"
       id="path468" /><g
       id="g470"
       transform="translate(68.252988,10.325)"><text
         xml:space="preserve"
         transform="matrix(1,0,0,-1,12.568359,0)"
         style="font-variant:normal;font-weight:normal;font-size:15px;font-family:DejaVuSans;-inkscape-font-specification:DejaVuSans;writing-mode:lr-tb;fill:#000000;fill-opacity:1;fill-rule:nonzero;stroke:none"
         id="text474"><tspan
           x="0 9.54 14.31"
           y="0"
           sodipodi:role="line"
           id="tspan472">0.4</tspan></text><g
         id="g476"
         transform="scale(0.015)"><g
           id="g478"><g
             id="g480"
             clip-path="url(#clipPath484)"><path
               d="M 106,355 H 732 V 272 H 106 Z"
               style="fill:#000000;fill-opacity:1;fill-rule:nonzero;stroke:none"
               id="path486" /></g></g></g></g><path
       d="m 154.92864,28.715625 v -3.5"
       style="fill:#000000;fill-opacity:1;fill-rule:nonzero;stroke:#000000;stroke-width:0.8;stroke-linecap:butt;stroke-linejoin:round;stroke-miterlimit:10;stroke-dasharray:none;stroke-opacity:1"
       id="path488" /><g
       id="g490"
       transform="translate(136.7177,10.325)"><text
         xml:space="preserve"
         transform="matrix(1,0,0,-1,12.568359,0)"
         style="font-variant:normal;font-weight:normal;font-size:15px;font-family:DejaVuSans;-inkscape-font-specification:DejaVuSans;writing-mode:lr-tb;fill:#000000;fill-opacity:1;fill-rule:nonzero;stroke:none"
         id="text494"><tspan
           x="0 9.54 14.31"
           y="0"
           sodipodi:role="line"
           id="tspan492">0.2</tspan></text><g
         id="g496"
         transform="scale(0.015)"><g
           id="g498"><g
             id="g500"
             clip-path="url(#clipPath504)"><path
               d="M 106,355 H 732 V 272 H 106 Z"
               style="fill:#000000;fill-opacity:1;fill-rule:nonzero;stroke:none"
               id="path506" /></g></g></g></g><path
       d="m 223.39335,28.715625 v -3.5"
       style="fill:#000000;fill-opacity:1;fill-rule:nonzero;stroke:#000000;stroke-width:0.8;stroke-linecap:butt;stroke-linejoin:round;stroke-miterlimit:10;stroke-dasharray:none;stroke-opacity:1"
       id="path508" /><g
       id="g510"
       transform="translate(211.46366,10.325)"><text
         xml:space="preserve"
         transform="scale(1,-1)"
         style="font-variant:normal;font-weight:normal;font-size:15px;font-family:DejaVuSans;-inkscape-font-specification:DejaVuSans;writing-mode:lr-tb;fill:#000000;fill-opacity:1;fill-rule:nonzero;stroke:none"
         id="text514"><tspan
           x="0 9.54 14.31"
           y="0"
           sodipodi:role="line"
           id="tspan512">0.0</tspan></text></g><path
       d="m 291.85806,28.715625 v -3.5"
       style="fill:#000000;fill-opacity:1;fill-rule:nonzero;stroke:#000000;stroke-width:0.8;stroke-linecap:butt;stroke-linejoin:round;stroke-miterlimit:10;stroke-dasharray:none;stroke-opacity:1"
       id="path516" /><g
       id="g518"
       transform="translate(279.92837,10.325)"><text
         xml:space="preserve"
         transform="scale(1,-1)"
         style="font-variant:normal;font-weight:normal;font-size:15px;font-family:DejaVuSans;-inkscape-font-specification:DejaVuSans;writing-mode:lr-tb;fill:#000000;fill-opacity:1;fill-rule:nonzero;stroke:none"
         id="text522"><tspan
           x="0 9.54 14.31"
           y="0"
           sodipodi:role="line"
           id="tspan520">0.2</tspan></text></g><path
       d="m 360.32277,28.715625 v -3.5"
       style="fill:#000000;fill-opacity:1;fill-rule:nonzero;stroke:#000000;stroke-width:0.8;stroke-linecap:butt;stroke-linejoin:round;stroke-miterlimit:10;stroke-dasharray:none;stroke-opacity:1"
       id="path524" /><g
       id="g526"
       transform="translate(348.39308,10.325)"><text
         xml:space="preserve"
         transform="scale(1,-1)"
         style="font-variant:normal;font-weight:normal;font-size:15px;font-family:DejaVuSans;-inkscape-font-specification:DejaVuSans;writing-mode:lr-tb;fill:#000000;fill-opacity:1;fill-rule:nonzero;stroke:none"
         id="text530"><tspan
           x="0 9.54 14.31"
           y="0"
           sodipodi:role="line"
           id="tspan528">0.4</tspan></text></g><path
       d="m 38.059375,28.715625 h -3.5"
       style="fill:#000000;fill-opacity:1;fill-rule:nonzero;stroke:#000000;stroke-width:0.8;stroke-linecap:butt;stroke-linejoin:round;stroke-miterlimit:10;stroke-dasharray:none;stroke-opacity:1"
       id="path532" /><g
       id="g534"
       transform="translate(7.2,23.020312)"><text
         xml:space="preserve"
         transform="scale(1,-1)"
         style="font-variant:normal;font-weight:normal;font-size:15px;font-family:DejaVuSans;-inkscape-font-specification:DejaVuSans;writing-mode:lr-tb;fill:#000000;fill-opacity:1;fill-rule:nonzero;stroke:none"
         id="text538"><tspan
           x="0 9.54 14.31"
           y="0"
           sodipodi:role="line"
           id="tspan536">0.0</tspan></text></g><path
       d="m 38.059375,76.262986 h -3.5"
       style="fill:#000000;fill-opacity:1;fill-rule:nonzero;stroke:#000000;stroke-width:0.8;stroke-linecap:butt;stroke-linejoin:round;stroke-miterlimit:10;stroke-dasharray:none;stroke-opacity:1"
       id="path540" /><g
       id="g542"
       transform="translate(7.2,70.567674)"><text
         xml:space="preserve"
         transform="scale(1,-1)"
         style="font-variant:normal;font-weight:normal;font-size:15px;font-family:DejaVuSans;-inkscape-font-specification:DejaVuSans;writing-mode:lr-tb;fill:#000000;fill-opacity:1;fill-rule:nonzero;stroke:none"
         id="text546"><tspan
           x="0 9.54 14.31"
           y="0"
           sodipodi:role="line"
           id="tspan544">0.5</tspan></text></g><path
       d="m 38.059375,123.81035 h -3.5"
       style="fill:#000000;fill-opacity:1;fill-rule:nonzero;stroke:#000000;stroke-width:0.8;stroke-linecap:butt;stroke-linejoin:round;stroke-miterlimit:10;stroke-dasharray:none;stroke-opacity:1"
       id="path548" /><g
       id="g550"
       transform="translate(7.2,118.11504)"><text
         xml:space="preserve"
         transform="scale(1,-1)"
         style="font-variant:normal;font-weight:normal;font-size:15px;font-family:DejaVuSans;-inkscape-font-specification:DejaVuSans;writing-mode:lr-tb;fill:#000000;fill-opacity:1;fill-rule:nonzero;stroke:none"
         id="text554"><tspan
           x="0 9.54 14.31"
           y="0"
           sodipodi:role="line"
           id="tspan552">1.0</tspan></text></g><path
       d="m 38.059375,171.35771 h -3.5"
       style="fill:#000000;fill-opacity:1;fill-rule:nonzero;stroke:#000000;stroke-width:0.8;stroke-linecap:butt;stroke-linejoin:round;stroke-miterlimit:10;stroke-dasharray:none;stroke-opacity:1"
       id="path556" /><g
       id="g558"
       transform="translate(7.2,165.6624)"><text
         xml:space="preserve"
         transform="scale(1,-1)"
         style="font-variant:normal;font-weight:normal;font-size:15px;font-family:DejaVuSans;-inkscape-font-specification:DejaVuSans;writing-mode:lr-tb;fill:#000000;fill-opacity:1;fill-rule:nonzero;stroke:none"
         id="text562"><tspan
           x="0 9.54 14.31"
           y="0"
           sodipodi:role="line"
           id="tspan560">1.5</tspan></text></g><path
       d="m 38.059375,218.90507 h -3.5"
       style="fill:#000000;fill-opacity:1;fill-rule:nonzero;stroke:#000000;stroke-width:0.8;stroke-linecap:butt;stroke-linejoin:round;stroke-miterlimit:10;stroke-dasharray:none;stroke-opacity:1"
       id="path564" /><g
       id="g566"
       transform="translate(7.2,213.20976)"><text
         xml:space="preserve"
         transform="scale(1,-1)"
         style="font-variant:normal;font-weight:normal;font-size:15px;font-family:DejaVuSans;-inkscape-font-specification:DejaVuSans;writing-mode:lr-tb;fill:#000000;fill-opacity:1;fill-rule:nonzero;stroke:none"
         id="text570"><tspan
           x="0 9.54 14.31"
           y="0"
           sodipodi:role="line"
           id="tspan568">2.0</tspan></text></g><path
       d="M 38.059375,28.715625 V 256.31562"
       style="fill:none;stroke:#000000;stroke-width:1.98425;stroke-linecap:square;stroke-linejoin:miter;stroke-miterlimit:10;stroke-dasharray:none;stroke-opacity:1"
       id="path572" /><path
       d="M 395.03437,28.715625 V 256.31562"
       style="fill:none;stroke:#000000;stroke-width:1.98425;stroke-linecap:square;stroke-linejoin:miter;stroke-miterlimit:10;stroke-dasharray:none;stroke-opacity:1"
       id="path574" /><path
       d="M 38.059375,28.715625 H 395.03437"
       style="fill:none;stroke:#000000;stroke-width:1.98425;stroke-linecap:square;stroke-linejoin:miter;stroke-miterlimit:10;stroke-dasharray:none;stroke-opacity:1"
       id="path576" /><path
       d="M 38.059375,256.31562 H 395.03437"
       style="fill:none;stroke:#000000;stroke-width:1.98425;stroke-linecap:square;stroke-linejoin:miter;stroke-miterlimit:10;stroke-dasharray:none;stroke-opacity:1"
       id="path578" /><path
       d="m 291.90625,211.46562 h 94.72812 c 1.6,0 2.4,0.8 2.4,2.4 v 34.05 c 0,1.6 -0.8,2.4 -2.4,2.4 h -94.72812 c -1.6,0 -2.4,-0.8 -2.4,-2.4 v -34.05 c 0,-1.6 0.8,-2.4 2.4,-2.4 z"
       style="fill:#ffffff;fill-opacity:0.8;fill-rule:nonzero;stroke:#cccccc;stroke-width:1;stroke-linecap:butt;stroke-linejoin:miter;stroke-miterlimit:10;stroke-dasharray:none;stroke-opacity:0.8"
       id="path580" /><path
       d="m 294.30625,236.39062 h 24 v 8.4 h -24 z"
       style="fill:#ff7f50;fill-opacity:1;fill-rule:nonzero;stroke:none"
       id="path582" /><g
       id="g584"
       transform="translate(327.90625,236.39062)"><g
         aria-label="True"
         transform="scale(1,-1)"
         id="text588"
         style="font-size:12px;font-family:DejaVuSans;-inkscape-font-specification:DejaVuSans"><path
           d="M 7.3945312,-7.6933594 H 4.2773437 V 0 H 3.1171875 V -7.6933594 H 0 v -1.03125 h 7.3945312 z"
           id="path1542" /><path
           d="m 10.749969,-5.34375 h -0.05859 Q 10.445285,-5.402344 10.21091,-5.425781 9.9823944,-5.455078 9.6659882,-5.455078 q -0.5097657,0 -0.984375,0.2285156 -0.4746094,0.2226563 -0.9140625,0.5800781 V 0 H 6.6659842 v -6.5449219 h 1.1015625 v 0.9667969 q 0.65625,-0.5273437 1.1542968,-0.7441406 0.5039063,-0.2226563 1.0253907,-0.2226563 0.2871098,0 0.4160158,0.017578 0.128906,0.011719 0.386719,0.052734 z"
           id="path1544" /><path
           d="m 17.023766,0 h -1.101563 v -0.7265625 q -0.556641,0.43945312 -1.066406,0.67382813 -0.509766,0.23437499 -1.125,0.23437499 -1.03125,0 -1.605469,-0.62695312 -0.574219,-0.6328125 -0.574219,-1.8515625 v -4.2480469 h 1.101563 v 3.7265625 q 0,0.4980469 0.04687,0.8554688 0.04687,0.3515625 0.199219,0.6035156 0.158203,0.2578125 0.410156,0.375 0.251953,0.1171875 0.732422,0.1171875 0.427734,0 0.93164,-0.2226562 0.509766,-0.2226563 0.949219,-0.5683594 v -4.8867188 h 1.101563 z"
           id="path1546" /><path
           d="m 24.6845,-3.1582031 h -4.822266 q 0,0.6035156 0.181641,1.0546875 0.18164,0.4453125 0.498047,0.7324219 0.304687,0.28125 0.720703,0.42187495 0.421875,0.140625 0.925781,0.140625 0.667969,0 1.341797,-0.26367185 0.679687,-0.2695313 0.966797,-0.5273438 h 0.05859 v 1.2011719 q -0.55664,0.234375 -1.136718,0.39257812 -0.580078,0.15820313 -1.21875,0.15820313 -1.628907,0 -2.542969,-0.87890625 -0.914063,-0.8847656 -0.914063,-2.5078125 0,-1.6054687 0.873047,-2.5488281 0.878907,-0.9433594 2.308594,-0.9433594 1.324219,0 2.039063,0.7734375 0.720703,0.7734375 0.720703,2.1972656 z m -1.072266,-0.84375 q -0.0059,-0.8671875 -0.439453,-1.3417969 -0.427734,-0.4746094 -1.306641,-0.4746094 -0.884765,0 -1.412109,0.5214844 -0.521484,0.5214844 -0.591797,1.2949219 z"
           id="path1548" /></g></g><path
       d="m 294.30625,218.76562 h 24 v 8.4 h -24 z"
       style="fill:#2e8b57;fill-opacity:1;fill-rule:nonzero;stroke:none"
       id="path590" /><g
       id="g592"
       transform="translate(327.90625,218.76562)"><g
         aria-label="Predicted"
         transform="scale(1,-1)"
         id="text596"
         style="font-size:12px;font-family:DejaVuSans;-inkscape-font-specification:DejaVuSans"><path
           d="m 6.8789062,-6.0878906 q 0,0.5800781 -0.2050781,1.078125 -0.1992187,0.4921875 -0.5625,0.8554687 -0.4511719,0.4511719 -1.0664062,0.6796875 -0.6152344,0.2226563 -1.5527344,0.2226563 H 2.3320313 V 0 H 1.171875 v -8.7246094 h 2.3671875 q 0.7851562,0 1.3300781,0.1347656 0.5449219,0.1289063 0.9667969,0.4101563 0.4980469,0.3339844 0.7675781,0.8320313 0.2753906,0.4980468 0.2753906,1.2597656 z m -1.2070312,0.029297 q 0,-0.4511719 -0.1582031,-0.7851563 Q 5.3554687,-7.1777344 5.0332031,-7.3886719 4.7519531,-7.5703125 4.3886719,-7.6464844 4.03125,-7.7285156 3.4804688,-7.7285156 H 2.3320313 v 3.4863281 h 0.9785156 q 0.703125,0 1.1425781,-0.1230469 0.4394531,-0.1289062 0.7148437,-0.4042968 0.2753907,-0.28125 0.3867188,-0.5917969 Q 5.671875,-5.671875 5.671875,-6.0585936 Z"
           id="path1551" /><path
           d="m 12.200844,-5.34375 h -0.05859 q -0.246094,-0.058594 -0.480469,-0.082031 -0.228515,-0.029297 -0.544922,-0.029297 -0.509765,0 -0.984375,0.2285156 -0.4746089,0.2226563 -0.9140621,0.5800781 V 0 H 8.1168594 v -6.5449219 h 1.1015625 v 0.9667969 q 0.65625,-0.5273437 1.1542971,-0.7441406 0.503906,-0.2226563 1.02539,-0.2226563 0.28711,0 0.416016,0.017578 0.128906,0.011719 0.386719,0.052734 z"
           id="path1553" /><path
           d="M 18.277375,-3.1582031 H 13.45511 q 0,0.6035156 0.18164,1.0546875 0.181641,0.4453125 0.498047,0.7324219 0.304688,0.28125 0.720703,0.42187495 0.421875,0.140625 0.925781,0.140625 0.667969,0 1.341797,-0.26367185 0.679688,-0.2695313 0.966797,-0.5273438 h 0.05859 v 1.2011719 q -0.556641,0.234375 -1.136719,0.39257812 -0.580078,0.15820313 -1.21875,0.15820313 -1.628906,0 -2.542969,-0.87890625 -0.914062,-0.8847656 -0.914062,-2.5078125 0,-1.6054687 0.873047,-2.5488281 0.878906,-0.9433594 2.308594,-0.9433594 1.324218,0 2.039062,0.7734375 0.720703,0.7734375 0.720703,2.1972656 z m -1.072265,-0.84375 q -0.0059,-0.8671875 -0.439454,-1.3417969 -0.427734,-0.4746094 -1.30664,-0.4746094 -0.884766,0 -1.41211,0.5214844 -0.521484,0.5214844 -0.591796,1.2949219 z"
           id="path1555" /><path
           d="m 25.487453,0 h -1.101562 v -0.68554687 q -0.474609,0.41015624 -0.990234,0.63867187 -0.515625,0.22851562 -1.119141,0.22851562 -1.171875,0 -1.863281,-0.90234374 -0.685547,-0.90234378 -0.685547,-2.50195318 0,-0.8320312 0.234375,-1.4824218 0.240234,-0.6503906 0.644531,-1.1074219 0.398438,-0.4453125 0.925781,-0.6796875 0.533203,-0.234375 1.101563,-0.234375 0.515625,0 0.914062,0.1113281 0.398438,0.1054688 0.837891,0.3339844 v -2.8359375 h 1.101562 z m -1.101562,-1.6113281 v -3.7558594 q -0.445313,-0.1992187 -0.796875,-0.2753906 -0.351563,-0.076172 -0.767578,-0.076172 -0.925781,0 -1.441406,0.6445313 -0.515625,0.6445312 -0.515625,1.8281249 0,1.1660157 0.398437,1.7753907 0.398438,0.6035156 1.277344,0.6035156 0.46875,0 0.949219,-0.2050781 0.480468,-0.2109375 0.896484,-0.5390624 z"
           id="path1557" /><path
           d="m 28.982452,-7.640625 h -1.242187 v -1.1425781 h 1.242187 z M 28.91214,0 h -1.101563 v -6.5449219 h 1.101563 z"
           id="path1559" /><path
           d="M 35.974703,-0.41015625 Q 35.423922,-0.14648437 34.925875,0 q -0.492188,0.14648437 -1.048828,0.14648437 -0.708985,0 -1.300782,-0.20507812 -0.591797,-0.2109375 -1.013672,-0.6328125 -0.427734,-0.42187495 -0.662109,-1.06640625 -0.234375,-0.6445313 -0.234375,-1.5058594 0,-1.6054687 0.878906,-2.5195312 0.884766,-0.9140625 2.332032,-0.9140625 0.5625,0 1.101562,0.1582031 0.544922,0.1582031 0.996094,0.3867188 v 1.2246093 h -0.05859 q -0.50391,-0.3925781 -1.042973,-0.6035156 -0.533203,-0.2109375 -1.042968,-0.2109375 -0.9375,0 -1.482422,0.6328125 -0.539063,0.6269531 -0.539063,1.8457031 0,1.1835938 0.527344,1.8222657 0.533203,0.63281245 1.494141,0.63281245 0.333984,0 0.679687,-0.0878906 0.345703,-0.0878906 0.621094,-0.22851565 0.240234,-0.1230469 0.451172,-0.2578125 0.210937,-0.140625 0.333984,-0.2402344 h 0.05859 z"
           id="path1561" /><path
           d="m 41.133297,-0.05859375 q -0.310547,0.08203125 -0.679688,0.13476562 -0.363281,0.05273438 -0.65039,0.05273438 -1.001953,0 -1.523438,-0.5390625 -0.521484,-0.5390625 -0.521484,-1.72851565 v -3.4804687 h -0.744141 v -0.9257813 h 0.744141 v -1.8808594 h 1.101562 v 1.8808594 h 2.273438 v 0.9257813 h -2.273438 v 2.9824218 q 0,0.515625 0.02344,0.8085938 0.02344,0.2871094 0.164062,0.5390625 0.128907,0.234375 0.351563,0.34570312 0.228516,0.10546875 0.691406,0.10546875 0.269531,0 0.5625,-0.0761719 0.292969,-0.0820313 0.421875,-0.13476557 h 0.05859 z"
           id="path1563" /><path
           d="m 47.917374,-3.1582031 h -4.822266 q 0,0.6035156 0.181641,1.0546875 0.18164,0.4453125 0.498047,0.7324219 0.304687,0.28125 0.720703,0.42187495 0.421875,0.140625 0.925781,0.140625 0.667969,0 1.341797,-0.26367185 0.679687,-0.2695313 0.966797,-0.5273438 h 0.05859 v 1.2011719 q -0.55664,0.234375 -1.136718,0.39257812 -0.580078,0.15820313 -1.21875,0.15820313 -1.628907,0 -2.542969,-0.87890625 -0.914063,-0.8847656 -0.914063,-2.5078125 0,-1.6054687 0.873047,-2.5488281 0.878907,-0.9433594 2.308594,-0.9433594 1.324219,0 2.039063,0.7734375 0.720703,0.7734375 0.720703,2.1972656 z m -1.072266,-0.84375 q -0.0059,-0.8671875 -0.439453,-1.3417969 -0.427734,-0.4746094 -1.306641,-0.4746094 -0.884765,0 -1.412109,0.5214844 -0.521484,0.5214844 -0.591797,1.2949219 z"
           id="path1565" /><path
           d="M 55.127453,0 H 54.02589 v -0.68554687 q -0.474609,0.41015624 -0.990234,0.63867187 -0.515625,0.22851562 -1.119141,0.22851562 -1.171875,0 -1.863281,-0.90234374 -0.685547,-0.90234378 -0.685547,-2.50195318 0,-0.8320312 0.234375,-1.4824218 0.240235,-0.6503906 0.644531,-1.1074219 0.398438,-0.4453125 0.925782,-0.6796875 0.533203,-0.234375 1.101562,-0.234375 0.515625,0 0.914063,0.1113281 0.398437,0.1054688 0.83789,0.3339844 v -2.8359375 h 1.101563 z M 54.02589,-1.6113281 v -3.7558594 q -0.445312,-0.1992187 -0.796875,-0.2753906 -0.351562,-0.076172 -0.767578,-0.076172 -0.925781,0 -1.441406,0.6445313 -0.515625,0.6445312 -0.515625,1.8281249 0,1.1660157 0.398437,1.7753907 0.398438,0.6035156 1.277344,0.6035156 0.46875,0 0.949219,-0.2050781 0.480469,-0.2109375 0.896484,-0.5390624 z"
           id="path1567" /></g></g></g></svg>
