<?xml version="1.0" encoding="UTF-8" standalone="no"?>
<!-- Created with Inkscape (http://www.inkscape.org/) -->

<svg
   width="132.37311mm"
   height="85.325897mm"
   viewBox="0 0 132.37311 85.325897"
   version="1.1"
   id="svg5"
   xml:space="preserve"
   xmlns:inkscape="http://www.inkscape.org/namespaces/inkscape"
   xmlns:sodipodi="http://sodipodi.sourceforge.net/DTD/sodipodi-0.dtd"
   xmlns="http://www.w3.org/2000/svg"
   xmlns:svg="http://www.w3.org/2000/svg"><sodipodi:namedview
     id="namedview7"
     pagecolor="#ffffff"
     bordercolor="#999999"
     borderopacity="1"
     inkscape:showpageshadow="0"
     inkscape:pageopacity="0"
     inkscape:pagecheckerboard="0"
     inkscape:deskcolor="#d1d1d1"
     inkscape:document-units="mm"
     showgrid="false" /><defs
     id="defs2"><clipPath
       clipPathUnits="userSpaceOnUse"
       id="clipPath3303"><path
         d="M -1021,-463 H 1794 V 1233 H -1021 Z"
         id="path3301" /></clipPath><clipPath
       clipPathUnits="userSpaceOnUse"
       id="clipPath3323"><path
         d="M -1021,-463 H 1794 V 1233 H -1021 Z"
         id="path3321" /></clipPath><clipPath
       clipPathUnits="userSpaceOnUse"
       id="clipPath3367"><path
         d="m 54.825,47.23125 h 334.8 v 217.44 h -334.8 z"
         id="path3365" /></clipPath><clipPath
       clipPathUnits="userSpaceOnUse"
       id="clipPath3377"><path
         d="m 54.825,47.23125 h 334.8 v 217.44 h -334.8 z"
         id="path3375" /></clipPath><clipPath
       clipPathUnits="userSpaceOnUse"
       id="clipPath3387"><path
         d="m 54.825,47.23125 h 334.8 v 217.44 h -334.8 z"
         id="path3385" /></clipPath></defs><path
     d="m 9.708214,78.76834 v 1.234723"
     style="fill:#000000;fill-opacity:1;fill-rule:nonzero;stroke:#000000;stroke-width:0.282222;stroke-linecap:butt;stroke-linejoin:round;stroke-miterlimit:10;stroke-dasharray:none;stroke-opacity:1"
     id="path3225"
     inkscape:export-filename="predict.svg"
     inkscape:export-xdpi="96"
     inkscape:export-ydpi="96" /><g
     id="g3227"
     transform="matrix(0.35277776,0,0,-0.35277778,4.656324,85.256144)"><text
       xml:space="preserve"
       transform="scale(1,-1)"
       style="font-variant:normal;font-weight:normal;font-size:15px;font-family:DejaVuSans;-inkscape-font-specification:DejaVuSans;writing-mode:lr-tb;fill:#000000;fill-opacity:1;fill-rule:nonzero;stroke:none"
       id="text3231"><tspan
         x="0 9.54 19.08"
         y="0"
         sodipodi:role="line"
         id="tspan3229">100</tspan></text></g><path
     d="m 29.393214,78.76834 v 1.234723"
     style="fill:#000000;fill-opacity:1;fill-rule:nonzero;stroke:#000000;stroke-width:0.282222;stroke-linecap:butt;stroke-linejoin:round;stroke-miterlimit:10;stroke-dasharray:none;stroke-opacity:1"
     id="path3233" /><g
     id="g3235"
     transform="matrix(0.35277776,0,0,-0.35277778,24.341324,85.256144)"><text
       xml:space="preserve"
       transform="scale(1,-1)"
       style="font-variant:normal;font-weight:normal;font-size:15px;font-family:DejaVuSans;-inkscape-font-specification:DejaVuSans;writing-mode:lr-tb;fill:#000000;fill-opacity:1;fill-rule:nonzero;stroke:none"
       id="text3239"><tspan
         x="0 9.54 19.08"
         y="0"
         sodipodi:role="line"
         id="tspan3237">105</tspan></text></g><path
     d="m 49.078214,78.76834 v 1.234723"
     style="fill:#000000;fill-opacity:1;fill-rule:nonzero;stroke:#000000;stroke-width:0.282222;stroke-linecap:butt;stroke-linejoin:round;stroke-miterlimit:10;stroke-dasharray:none;stroke-opacity:1"
     id="path3241" /><g
     id="g3243"
     transform="matrix(0.35277776,0,0,-0.35277778,44.026324,85.256144)"><text
       xml:space="preserve"
       transform="scale(1,-1)"
       style="font-variant:normal;font-weight:normal;font-size:15px;font-family:DejaVuSans;-inkscape-font-specification:DejaVuSans;writing-mode:lr-tb;fill:#000000;fill-opacity:1;fill-rule:nonzero;stroke:none"
       id="text3247"><tspan
         x="0 9.54 19.08"
         y="0"
         sodipodi:role="line"
         id="tspan3245">110</tspan></text></g><path
     d="m 68.763214,78.76834 v 1.234723"
     style="fill:#000000;fill-opacity:1;fill-rule:nonzero;stroke:#000000;stroke-width:0.282222;stroke-linecap:butt;stroke-linejoin:round;stroke-miterlimit:10;stroke-dasharray:none;stroke-opacity:1"
     id="path3249" /><g
     id="g3251"
     transform="matrix(0.35277776,0,0,-0.35277778,63.711324,85.256144)"><text
       xml:space="preserve"
       transform="scale(1,-1)"
       style="font-variant:normal;font-weight:normal;font-size:15px;font-family:DejaVuSans;-inkscape-font-specification:DejaVuSans;writing-mode:lr-tb;fill:#000000;fill-opacity:1;fill-rule:nonzero;stroke:none"
       id="text3255"><tspan
         x="0 9.54 19.08"
         y="0"
         sodipodi:role="line"
         id="tspan3253">115</tspan></text></g><path
     d="m 88.448214,78.76834 v 1.234723"
     style="fill:#000000;fill-opacity:1;fill-rule:nonzero;stroke:#000000;stroke-width:0.282222;stroke-linecap:butt;stroke-linejoin:round;stroke-miterlimit:10;stroke-dasharray:none;stroke-opacity:1"
     id="path3257" /><g
     id="g3259"
     transform="matrix(0.35277776,0,0,-0.35277778,83.396324,85.256144)"><text
       xml:space="preserve"
       transform="scale(1,-1)"
       style="font-variant:normal;font-weight:normal;font-size:15px;font-family:DejaVuSans;-inkscape-font-specification:DejaVuSans;writing-mode:lr-tb;fill:#000000;fill-opacity:1;fill-rule:nonzero;stroke:none"
       id="text3263"><tspan
         x="0 9.54 19.08"
         y="0"
         sodipodi:role="line"
         id="tspan3261">120</tspan></text></g><path
     d="m 108.13321,78.76834 v 1.234723"
     style="fill:#000000;fill-opacity:1;fill-rule:nonzero;stroke:#000000;stroke-width:0.282222;stroke-linecap:butt;stroke-linejoin:round;stroke-miterlimit:10;stroke-dasharray:none;stroke-opacity:1"
     id="path3265" /><g
     id="g3267"
     transform="matrix(0.35277776,0,0,-0.35277778,103.08132,85.256144)"><text
       xml:space="preserve"
       transform="scale(1,-1)"
       style="font-variant:normal;font-weight:normal;font-size:15px;font-family:DejaVuSans;-inkscape-font-specification:DejaVuSans;writing-mode:lr-tb;fill:#000000;fill-opacity:1;fill-rule:nonzero;stroke:none"
       id="text3271"><tspan
         x="0 9.54 19.08"
         y="0"
         sodipodi:role="line"
         id="tspan3269">125</tspan></text></g><path
     d="m 127.81821,78.76834 v 1.234723"
     style="fill:#000000;fill-opacity:1;fill-rule:nonzero;stroke:#000000;stroke-width:0.282222;stroke-linecap:butt;stroke-linejoin:round;stroke-miterlimit:10;stroke-dasharray:none;stroke-opacity:1"
     id="path3273" /><g
     id="g3275"
     transform="matrix(0.35277776,0,0,-0.35277778,122.76632,85.256144)"><text
       xml:space="preserve"
       transform="scale(1,-1)"
       style="font-variant:normal;font-weight:normal;font-size:15px;font-family:DejaVuSans;-inkscape-font-specification:DejaVuSans;writing-mode:lr-tb;fill:#000000;fill-opacity:1;fill-rule:nonzero;stroke:none"
       id="text3279"><tspan
         x="0 9.54 19.08"
         y="0"
         sodipodi:role="line"
         id="tspan3277">130</tspan></text></g><path
     d="M 9.708214,78.76834 H 8.473494"
     style="fill:#000000;fill-opacity:1;fill-rule:nonzero;stroke:#000000;stroke-width:0.282222;stroke-linecap:butt;stroke-linejoin:round;stroke-miterlimit:10;stroke-dasharray:none;stroke-opacity:1"
     id="path3287" /><g
     id="g3289"
     transform="matrix(0.35277776,0,0,-0.35277778,-0.56092604,80.77752)"><text
       xml:space="preserve"
       transform="matrix(1,0,0,-1,12.568359,0)"
       style="font-variant:normal;font-weight:normal;font-size:15px;font-family:DejaVuSans;-inkscape-font-specification:DejaVuSans;writing-mode:lr-tb;fill:#000000;fill-opacity:1;fill-rule:nonzero;stroke:none"
       id="text3293"><tspan
         x="0"
         y="0"
         id="tspan3291">2</tspan></text><g
       id="g3295"
       transform="scale(0.015)"><g
         id="g3297"><g
           id="g3299"
           clip-path="url(#clipPath3303)"><path
             d="M 106,355 H 732 V 272 H 106 Z"
             style="fill:#000000;fill-opacity:1;fill-rule:nonzero;stroke:none"
             id="path3305" /></g></g></g></g><path
     d="M 9.708214,59.59134 H 8.473494"
     style="fill:#000000;fill-opacity:1;fill-rule:nonzero;stroke:#000000;stroke-width:0.282222;stroke-linecap:butt;stroke-linejoin:round;stroke-miterlimit:10;stroke-dasharray:none;stroke-opacity:1"
     id="path3307" /><g
     id="g3309"
     transform="matrix(0.35277776,0,0,-0.35277778,-0.56092604,61.60052)"><text
       xml:space="preserve"
       transform="matrix(1,0,0,-1,12.568359,0)"
       style="font-variant:normal;font-weight:normal;font-size:15px;font-family:DejaVuSans;-inkscape-font-specification:DejaVuSans;writing-mode:lr-tb;fill:#000000;fill-opacity:1;fill-rule:nonzero;stroke:none"
       id="text3313"><tspan
         x="0"
         y="0"
         id="tspan3311">1</tspan></text><g
       id="g3315"
       transform="scale(0.015)"><g
         id="g3317"><g
           id="g3319"
           clip-path="url(#clipPath3323)"><path
             d="M 106,355 H 732 V 272 H 106 Z"
             style="fill:#000000;fill-opacity:1;fill-rule:nonzero;stroke:none"
             id="path3325" /></g></g></g></g><path
     d="M 9.708214,40.41434 H 8.473494"
     style="fill:#000000;fill-opacity:1;fill-rule:nonzero;stroke:#000000;stroke-width:0.282222;stroke-linecap:butt;stroke-linejoin:round;stroke-miterlimit:10;stroke-dasharray:none;stroke-opacity:1"
     id="path3327" /><g
     id="g3329"
     transform="matrix(0.35277776,0,0,-0.35277778,3.870844,42.423519)"><text
       xml:space="preserve"
       transform="scale(1,-1)"
       style="font-variant:normal;font-weight:normal;font-size:15px;font-family:DejaVuSans;-inkscape-font-specification:DejaVuSans;writing-mode:lr-tb;fill:#000000;fill-opacity:1;fill-rule:nonzero;stroke:none"
       id="text3333"><tspan
         x="0"
         y="0"
         id="tspan3331">0</tspan></text></g><path
     d="M 9.708214,21.23734 H 8.473494"
     style="fill:#000000;fill-opacity:1;fill-rule:nonzero;stroke:#000000;stroke-width:0.282222;stroke-linecap:butt;stroke-linejoin:round;stroke-miterlimit:10;stroke-dasharray:none;stroke-opacity:1"
     id="path3335" /><g
     id="g3337"
     transform="matrix(0.35277776,0,0,-0.35277778,3.870844,23.246519)"><text
       xml:space="preserve"
       transform="scale(1,-1)"
       style="font-variant:normal;font-weight:normal;font-size:15px;font-family:DejaVuSans;-inkscape-font-specification:DejaVuSans;writing-mode:lr-tb;fill:#000000;fill-opacity:1;fill-rule:nonzero;stroke:none"
       id="text3341"><tspan
         x="0"
         y="0"
         id="tspan3339">1</tspan></text></g><path
     d="M 9.708214,2.0603403 H 8.473494"
     style="fill:#000000;fill-opacity:1;fill-rule:nonzero;stroke:#000000;stroke-width:0.282222;stroke-linecap:butt;stroke-linejoin:round;stroke-miterlimit:10;stroke-dasharray:none;stroke-opacity:1"
     id="path3343" /><g
     id="g3345"
     transform="matrix(0.35277776,0,0,-0.35277778,3.870844,4.0695191)"><text
       xml:space="preserve"
       transform="scale(1,-1)"
       style="font-variant:normal;font-weight:normal;font-size:15px;font-family:DejaVuSans;-inkscape-font-specification:DejaVuSans;writing-mode:lr-tb;fill:#000000;fill-opacity:1;fill-rule:nonzero;stroke:none"
       id="text3349"><tspan
         x="0"
         y="0"
         id="tspan3347">2</tspan></text></g><g
     id="g3361"
     transform="matrix(0.35277776,0,0,-0.35277778,-9.632826,95.430476)"><g
       id="g3363"
       clip-path="url(#clipPath3367)"><path
         d="m 54.825,108.57506 0.334833,25.02858 0.111612,-3.63155 0.111611,-18.61494 0.223222,20.03269 0.111611,1.41651 0.111611,4.7875 0.446445,-37.5286 0.111611,3.20856 0.223223,-17.289603 0.111611,9.027881 0.111611,-1.341784 0.111611,2.914959 0.334834,-24.38899 0.223222,5.096017 0.111611,0.78751 0.334834,36.74403 0.223222,-19.874585 0.334833,8.914625 0.111611,-8.954109 0.111612,1.798118 0.111611,-8.099026 0.111611,3.231234 0.111611,13.513883 0.111611,-6.055819 0.111611,0.134101 0.111612,7.828428 0.223222,22.46785 0.111611,-1.36814 0.223222,13.1688 0.223223,-18.45885 0.111611,1.43578 0.223222,-3.73113 0.111611,3.68088 0.223223,-17.48194 0.223222,16.24636 0.111611,-9.47298 0.111611,2.52554 0.111612,7.28241 0.223222,-11.78128 0.111611,10.35576 0.111611,-5.0605 0.111611,15.53739 0.334834,-6.89127 0.334833,23.74266 0.111611,-4.08728 0.111612,0.67854 0.111611,-1.47248 0.334833,18.08527 0.111611,-4.95705 0.334834,44.40718 0.111611,13.68577 0.223222,-3.65826 0.669667,35.2512 0.223223,-21.03298 0.223222,-20.24217 0.446445,-37.55749 0.111611,-2.03401 0.223222,-16.85297 0.111611,2.87931 0.111611,-14.73035 0.111612,8.04985 0.111611,-2.14147 0.111611,7.14035 0.111611,-5.44528 0.111611,0.40157 0.111611,6.47679 0.334834,-12.41685 0.111611,5.94598 0.223222,-12.94585 0.223223,17.33765 0.334833,-21.34196 0.111611,7.14798 0.223223,-15.91019 0.111611,-0.18276 0.111611,3.61801 0.334833,27.40279 0.111612,-2.3797 0.111611,-7.33649 0.111611,6.00994 0.111611,-7.46215 0.111611,-19.89792 0.111611,3.98015 0.111612,-12.17653 0.223222,9.35268 0.111611,-18.95296 0.111611,5.67501 0.334834,31.89543 0.446444,27.3587 0.223223,-15.2584 0.111611,1.3809 0.223222,-9.73582 0.111611,10.73073 0.111611,-2.0342 0.111612,2.66987 0.111611,-9.53623 0.223222,17.64892 0.111611,-0.86503 0.111611,-2.93827 0.111612,5.62196 0.111611,0.001 0.111611,-0.65138 0.111611,5.72271 0.111611,-2.46402 0.111611,4.50061 0.111612,11.35359 0.111611,-7.97064 0.111611,12.13545 0.111611,-8.05681 0.223222,1.42056 0.669667,-26.16946 0.111612,21.25698 0.111611,-7.78184 0.334833,23.51331 0.223222,-11.3738 0.111612,11.02176 0.111611,-10.71668 0.334833,34.82231 0.111611,-2.6444 0.111612,5.62553 0.223222,-5.0121 0.111611,0.85589 0.111611,9.56649 0.223223,-2.3464 0.111611,1.45441 0.223222,9.86404 0.223222,-14.59154 0.111612,-21.06374 0.111611,5.87915 0.223222,-23.8923 0.223222,12.48203 0.111612,-2.68508 0.223222,5.04221 0.334833,-31.88354 0.334834,-12.0321 0.223222,7.17445 0.111611,-7.70031 0.111611,0.3723 0.111612,2.6064 0.111611,-0.73431 0.223222,9.25815 0.111611,-3.11294 0.111611,6.65468 0.111612,-7.81137 0.334833,15.56767 0.111611,0.16543 0.111611,0.88789 0.111612,2.01889 0.223222,16.48511 0.111611,-7.36688 0.223222,12.06255 0.111612,-3.69216 0.111611,0.6627 0.111611,2.83708 0.111611,20.92827 0.111611,-15.45057 0.223222,4.19564 0.111612,8.59335 0.111611,18.57375 0.334833,-9.54311 0.558056,-15.36892 0.111611,-11.27937 0.111611,0.27218 0.111612,-2.31264 0.223222,13.41144 0.223222,-10.27752 0.223223,17.06184 0.111611,-7.38078 0.111611,7.16216 0.111611,-6.20379 0.111611,0.96302 0.111611,-4.85973 0.223223,10.821 0.111611,-6.63635 0.223222,9.28242 0.111611,-5.99448 0.111611,7.49806 0.111612,-11.99794 0.111611,9.39547 0.111611,-4.57998 0.223222,-26.31772 0.223223,7.51544 0.111611,6.31484 0.111611,-10.74703 0.111611,1.03255 0.223222,23.33647 0.223223,-27.58451 0.111611,-5.2068 0.111611,14.9308 0.111611,-2.18949 0.111611,-16.6414 0.111612,17.6384 0.111611,-5.2055 0.223222,24.01884 0.111611,-7.26179 0.223222,-17.02851 0.111612,-6.53338 0.223222,17.64672 0.111611,-0.89173 0.111611,-7.00286 0.111611,-14.00778 0.111612,-0.0265 0.111611,3.87256 0.111611,-10.5025 0.111611,6.72754 0.111611,-12.34362 0.111611,7.60753 0.111612,21.44222 0.111611,-0.0514 0.334833,-25.35047 0.334834,11.87411 0.111611,12.8338 0.334833,-29.66498 0.111612,21.17974 0.111611,-1.68436 0.446444,-19.09832 0.223223,25.60955 0.111611,-1.68242 0.111611,1.26608 0.223222,-1.30976 0.111611,5.46188 0.223223,14.90454 0.111611,-5.37253 0.223222,12.58119 0.111611,-3.22374 0.334834,15.16245 0.223222,-18.01319 0.111611,-9.398 0.111612,8.33715 0.334833,-29.46003 0.111611,-3.05477 0.111611,8.44217 0.111612,-1.43384 0.111611,-3.63644 0.111611,1.06905 0.223222,9.66024 0.334834,-29.4322 0.111611,-13.15299 0.111611,9.86727 0.111611,-1.40581 0.111611,7.4967 0.223223,-16.42053 0.223222,11.44154 0.111611,5.09275 0.334834,28.66694 0.111611,0.55038 0.111611,-3.96535 0.111611,14.92956 0.111611,-6.90238 0.111611,0.38187 0.111612,8.37508 0.111611,-2.08967 0.111611,-8.00423 0.111611,6.00908 0.111611,-5.46799 0.111611,11.44247 0.223223,-18.17855 0.223222,7.01026 0.111611,2.66452 0.111611,5.64563 0.223223,-26.16769 0.223222,21.66732 0.111611,1.05389 0.223222,-16.81475 0.111612,13.06575 0.223222,-1.99108 0.111611,-7.53485 0.111611,0.2845 0.22322,13.65688 0.11161,-17.76289 0.11162,3.30945 0.11161,22.82142 0.11161,-2.90515 0.11161,14.63008 0.22322,-14.89996 0.11161,1.69197 0.11161,-2.87866 0.22323,-27.32375 0.11161,5.51362 0.22322,18.11062 0.11161,-12.64398 0.44644,25.26425 0.11162,-5.51742 0.11161,3.92071 0.11161,-14.69211 0.11161,0.99754 0.22322,14.81197 0.33483,-36.40641 0.22323,11.74112 0.11161,-1.24707 0.11161,-6.85557 0.11161,8.40183 0.11161,-1.15177 0.22322,-9.24968 0.11162,2.53882 0.33483,41.01543 0.11161,-1.2479 0.22322,19.17254 0.22323,-38.3563 0.11161,-0.97338 0.22322,-28.12791 0.11161,1.27174 0.11161,-4.88174 0.11161,-12.81344 0.11161,21.62955 0.22322,-20.39598 0.11162,3.82824 0.11161,-18.23004 0.11161,4.74631 0.11161,-6.9976 0.22322,24.79177 0.22322,-18.28555 0.11162,12.89367 0.22322,-15.00602 0.11161,1.93594 0.22322,9.59961 0.11161,-3.05792 0.22322,-35.11441 0.11162,4.52884 0.11161,-11.00036 0.11161,8.71574 0.11161,-29.718487 0.11161,9.503817 0.22322,-6.246816 0.11161,7.748416 0.11161,-7.511394 0.22323,8.336884 0.11161,-3.34561 0.11161,-9.112757 0.22322,16.092797 0.11161,-5.31985 0.11162,8.54655 0.11161,-1.12125 0.22322,-11.294811 0.22322,-8.368622 0.11161,-16.092005 0.22322,6.412865 0.22323,26.905943 0.22322,20.1936 0.11161,-9.19566 0.33483,24.11883 0.11161,-4.83662 0.33484,15.86483 0.22322,-3.56054 0.11161,-10.91912 0.11161,6.26842 0.11161,25.05322 0.11162,-2.74673 0.22322,-10.96751 0.11161,4.39878 0.11161,-8.14871 0.11161,-0.0356 0.55806,-39.83157 0.11161,-2.29232 0.11161,2.36594 0.11161,-15.27313 0.33483,19.2107 0.11161,-3.6727 0.22323,-14.083402 0.11161,5.853732 0.11161,-8.383455 0.11161,0.197514 0.22322,-7.490957 0.22322,2.826642 0.33484,17.678286 0.11161,0.11294 0.11161,1.15149 0.22322,-16.322166 0.22323,7.643786 0.11161,-2.61986 0.11161,7.38226 0.11161,-6.07369 0.22322,16.76013 0.11161,-0.57705 0.11161,12.57447 0.11162,-17.45787 0.11161,7.50662 0.11161,-7.8183 0.11161,-28.240911 0.22322,25.969051 0.22322,2.16922 0.11161,10.77337 0.11161,-0.74717 0.11162,4.07116 0.11161,-6.13569 0.11161,0.13564 0.22322,-7.69679 0.11161,10.61828 0.11161,-2.1198 0.22323,19.49767 0.11161,-3.75981 0.22322,9.2678 0.11161,-6.96515 0.11161,9.91301 0.11161,-0.21632 0.22322,-24.45629 0.22323,9.23698 0.11161,-2.85606 0.22322,-16.6844 0.11161,-6.30018 0.11161,0.3275 0.11161,-7.82937 0.11162,6.87343 0.11161,-0.008 0.11161,0.24637 0.11161,-1.26889 0.11161,-18.683039 0.22322,5.616976 0.11161,-2.774542 0.11161,8.416169 0.22323,-5.101564 0.22322,-8.001032 0.11161,12.905167 0.11161,-8.419348 0.33483,48.794313 0.11162,-1.90521 0.11161,1.40839 0.11161,5.22363 0.11161,11.2656 0.11161,-6.51103 0.44645,-46.24892 0.22322,6.13245 0.33483,-42.956294 0.11161,2.932456 0.22323,9.985944 0.11161,19.060101 0.11161,-13.036517 0.11161,3.267277 0.22322,21.886793 0.11161,-14.441813 0.22322,8.304613 0.11162,-7.960397 0.11161,1.973651 0.11161,5.892186 0.11161,-0.62094 0.11161,0.9437 0.22322,14.09838 0.11161,-12.65145 0.11161,2.8913 0.11162,-10.886953 0.33483,16.704903 0.22322,-13.34802 0.22322,31.5795 0.11161,-5.4822 0.11162,6.31646 0.11161,-4.70905 0.11161,2.64455 0.22322,-7.55976 0.11161,4.88344 0.11161,-4.57551 0.11161,3.27885 0.11162,-14.92521 0.11161,1.17514 0.11161,-15.738798 0.11161,3.755768 0.11161,21.43992 0.22322,-27.851683 0.11161,-4.109072 0.22323,12.292275 0.22322,12.27174 0.22322,-16.74002 0.22322,7.10262 0.11161,-15.309958 0.11161,4.690095 0.11162,-9.114069 0.11161,4.606399 0.11161,-1.005556 0.11161,-10.422554 0.11161,5.679381 0.11161,-11.092949 0.33484,30.128431 0.11161,8.11067 0.22322,-1.42395 0.11161,-3.27176 0.11161,4.50498 0.11161,-16.586654 0.11161,11.587544 0.22323,-12.076535 0.11161,6.837675 0.11161,-2.933775 0.22322,23.618025 0.11161,1.15536 0.11161,-0.55681 0.33484,22.47408 0.11161,-1.02389 0.22322,3.42942 0.11161,-14.03182 0.11161,8.22127 0.22322,-8.60422 0.22323,14.47739 0.22322,-3.47338 0.11161,4.56324 0.22322,-13.93351 0.11161,2.08403 0.11161,13.04138 0.11162,-7.26035 0.11161,0.54886 0.33483,31.57821 0.66967,-42.39613 0.11161,0.2825 0.11161,-4.63117 0.22322,-15.24012 0.11161,-1.09816 0.22323,3.58726 0.11161,-21.716365 0.11161,6.192055 0.11161,-10.375176 0.11161,13.342286 0.11161,-8.217507 0.11161,7.299847 0.22322,-8.17885 0.11162,8.35162 0.22322,-5.337102 0.33483,18.106262 0.11161,-15.715863 0.22323,4.181233 0.11161,-1.34686 0.11161,-2.858749 0.11161,6.097429 0.33483,38.11008 0.22322,-8.97457 0.22323,-36.331473 0.11161,14.250543 0.11161,-1.1538 0.11161,-5.67968 0.11161,3.07422 0.22322,-7.70597 0.11162,10.97707 0.11161,-1.93425 0.22322,9.82344 0.11161,0.0914 0.22322,10.18371 0.11161,4.32023 0.22323,-6.34193 0.33483,22.86811 0.11161,-3.52279 0.11161,25.74934 0.11161,-3.114 0.22322,11.32923 0.22323,-12.41221 0.11161,10.07326 0.22322,-1.58263 0.11161,2.80976 0.22322,-5.81793 0.11162,14.24434 0.11161,-7.15543 0.11161,8.80597 0.11161,-3.19086 0.11161,1.87715 0.11161,-1.79698 0.11161,15.5461 0.11161,-6.41908 0.22323,22.84432 0.22322,1.71816 0.11161,10.75892 0.11161,-19.11311 0.33483,12.48362 0.11162,-2.39321 0.11161,9.36606 0.22322,-21.05649 0.11161,3.71818 0.11161,-7.38443 0.11161,0.2717 0.11161,9.48525 0.44645,-17.97924 0.11161,-0.55686 0.44644,18.02086 0.22323,-20.20181 0.11161,13.38745 0.22322,-7.10414 0.22322,5.5288 0.22322,-25.44665 0.11162,1.59147 0.11161,-1.0318 0.22322,-24.4596 0.11161,16.48999 0.22322,-10.09923 0.22322,14.55269 0.11162,0.50323 0.22322,27.35429 0.11161,9.50907 0.11161,-7.35066 0.11161,17.00222 0.11161,-2.11977 0.11161,14.00988 0.22323,-2.94469 0.22322,-16.77926 0.11161,-7.04342 0.11161,4.38489 0.11161,-3.52281 0.11161,-8.25469 0.11161,1.53984 0.11162,8.86023 0.11161,-0.0563 0.11161,-4.61708 0.11161,10.03026 0.11161,-2.41088 0.11161,-6.17381 0.11161,0.69909 0.22322,-11.01724 0.22323,24.61636 0.11161,-6.94601 0.11161,4.22726 0.11161,-12.03475 0.11161,5.39393 0.22322,-7.18214 0.11162,9.87899 0.11161,-11.00015 0.22322,35.74879 0.11161,-4.26917 0.22322,-16.71305 0.11161,5.11177 0.22323,-9.67432 0.22322,-33.89204 0.11161,-4.27071 0.11161,8.18105 0.11161,24.79095 0.22322,-2.0435 0.22323,4.69088 0.11161,29.95259 0.11161,-13.90591 0.11161,10.54138 0.11161,-14.10115 0.11161,2.50629 0.11161,-1.66287 0.22323,-24.42463 0.22322,-7.62752 0.11161,24.75322 0.22322,-27.14842 0.11161,4.92804 0.33484,-28.98665 0.44644,33.04803 0.11161,-5.08665 0.11161,5.93349 0.11161,-4.51162 0.11162,-13.50113 0.33483,13.06723 0.22322,-25.641 0.11161,-3.21192 0.22322,18.58006 0.22323,25.11316 0.11161,-2.37718 0.33483,-22.25648 0.22322,6.58457 0.11161,16.11705 0.11162,-9.37645 0.11161,2.80832 0.22322,-4.40106 0.33483,16.01386 0.11161,-2.26665 0.11162,2.72202 0.11161,-9.45277 0.11161,0.29726 0.22322,-8.39251 0.22322,7.70693 0.11161,-2.96465 0.22323,9.15084 0.11161,-9.42539 0.33483,14.6576 0.11161,-3.10803 0.11161,2.37163 0.22323,-6.67732 0.22322,8.21731 0.11161,2.26757 0.11161,4.7924 0.11161,9.7301 0.22322,-16.18175 0.33484,18.14265 0.44644,-35.08051 0.11161,1.22273 0.22322,-0.71927 0.22323,-25.93741 0.11161,0.38955 0.11161,-6.77632 0.11161,11.98346 0.11161,-3.03973 0.22322,16.53829 0.11162,0.86427 0.11161,6.04219 0.11161,-1.44729 0.22322,-6.79515 0.11161,17.91985 0.11161,-0.83858 0.44645,-62.94401 0.11161,0.10261 0.11161,-7.09477 0.11161,0.79385 0.11161,-8.40975 0.11161,0.94303 0.11161,-1.99176 0.11161,8.51951 0.22323,-15.47699 0.22322,10.31549 0.11161,-3.14297 0.11161,5.47378 0.11161,-8.47757 0.22323,14.78061 0.11161,-8.84442 0.11161,13.10037 0.11161,-0.0934 0.11161,-5.41174 0.11161,2.38322 0.11161,-1.94766 0.11161,4.73766 0.11161,-9.07699 0.33484,10.82999 0.11161,-19.83875 0.11161,7.01284 0.33483,-24.27899 0.11162,9.00262 0.11161,-10.76814 0.11161,4.5662 0.11161,-18.29445 0.11161,6.39296 0.22322,22.55171 0.11161,-3.08497 0.11161,1.06837 0.11162,8.41146 0.33483,-22.37772 0.11161,4.63369 0.11161,-0.12638 0.11161,-22.054177 0.11161,3.617083 0.11161,-7.668371 0.22323,19.635975 0.11161,-17.609796 0.11161,1.582654 0.33483,43.928542 0.11161,-1.72747 0.22323,-10.82824 0.11161,9.35912 0.11161,-11.44471 0.22322,8.80712 0.11161,-2.52975 0.22322,-26.0413 0.22323,13.67133 0.11161,-5.89312 0.22322,-19.424704 0.22322,9.080184 0.11161,-11.030967 0.11162,1.245178 0.11161,-5.249538 0.55805,40.988897 0.22322,-14.14473 0.22323,-6.14651 0.11161,-1.57239 0.22322,-7.290857 0.11161,8.147927 0.11161,-11.615666 0.11161,3.931883 0.11161,-7.12841 0.22323,18.178593 0.11161,0.79896 0.11161,-5.85893 0.11161,3.43378 0.11161,-2.10104 0.11161,2.18977 0.22323,15.64042 0.11161,-1.92142 0.22322,24.29976 0.33483,-20.70937 0.11161,8.98525 0.11161,-5.04531 0.22323,14.12598 0.11161,1.5574 0.11161,11.89262 0.22322,-14.44399 0.11161,2.04837 0.33484,-32.01529 0.11161,2.81381 0.22322,15.91404 0.22322,11.69702 0.11161,2.45221 0.44645,25.50768 0.11161,-14.84745 0.11161,9.06269 0.11161,-13.19927 0.11161,-0.0319 0.11161,4.0006 0.22323,-9.02243 0.11161,-21.98222 0.11161,1.11745 0.22322,-9.78267 0.11161,-4.95818 0.22322,8.27229 0.33484,-25.445514 0.22322,8.857964 0.33483,-25.13766 0.22323,15.005506 0.11161,1.523826 0.44644,32.582538 0.11161,-4.30602 0.11161,-10.50552 0.22323,13.88189 0.11161,-2.93858 0.22322,-13.20869 0.11161,3.70715 0.22322,-25.340628 0.22323,8.270384 0.22322,-7.753563 0.33483,-8.067472 0.11161,9.408173 0.11161,-4.2351 0.11161,1.367387 0.11162,4.641053 0.11161,10.374196 0.11161,-1.84262 0.11161,9.44188 0.22322,-12.887339 0.22322,30.587839 0.22323,-10.82591 0.11161,20.54571 0.11161,-11.36488 0.11161,1.73472 0.11161,-1.43109 0.22322,-15.37511 0.22323,7.30157 0.11161,-4.54267 0.44644,36.8128 0.22322,6.58098 0.44645,-17.71565 0.11161,-6.26096 0.11161,-16.78541 0.22322,7.49062 0.11161,-0.61943 0.22323,-18.06287 0.11161,-5.76629 0.22322,12.12589 0.11161,0.53312 0.11161,2.97132 0.11161,-8.18037 0.11161,2.82296 0.33484,-21.325059 0.22322,12.413749 0.11161,-16.314028 0.11161,15.164548 0.22323,-11.625227 0.33483,18.550287 0.11161,-3.08561 0.11161,4.96692 0.11161,-0.31504 0.11161,-1.26449 0.11161,15.51559 0.11162,-9.74111 0.33483,12.3619 0.11161,-6.91011 0.22322,2.24547 0.11161,-2.00615 0.22323,9.42754 0.11161,-15.75239 0.44644,40.94905 0.11161,-8.14306 0.11161,4.66137 0.11162,-0.46853 0.33483,13.53745 0.11161,-3.27454 0.22322,6.67153 0.22322,13.90275 0.11162,-3.29652 0.11161,-13.48327 0.11161,0.248 0.11161,5.62208 0.22322,-19.65979 0.11161,5.83176 0.11161,-2.24352 0.22323,15.28174 0.11161,0.35423 0.11161,-2.73749 0.55805,32.65062 0.22323,-24.02126 0.11161,2.56425 0.33483,-33.41649 0.22322,4.2681 0.22323,21.83239 0.22322,-26.08836 0.44644,-10.19215 0.44645,23.73649 0.11161,-10.66098 0.11161,16.75848 0.33483,-37.56467 0.22323,7.73495 0.11161,-15.04287 0.22322,10.94344 0.22322,-18.213 0.11161,4.29514 0.11161,-0.30483 0.11161,-3.58996 0.11162,-10.03843 0.33483,32.06601 0.11161,-1.99342 0.11161,-10.06322 0.11161,15.27488 0.11161,-1.14079 0.22323,-14.59756 0.11161,-1.77086 0.11161,13.68558 0.11161,-5.5239 0.11161,0.61121 0.55806,-25.0898 0.11161,10.07434 0.11161,-15.372053 0.11161,0.850138 0.22322,17.330015 0.11161,3.57401 0.22323,22.16961 0.22322,-26.851 0.11161,2.51789 0.11161,-1.70481 0.11161,5.08384 0.11161,-8.36955 0.11161,10.91541 0.22323,-14.82946 0.11161,9.61881 0.11161,-5.74712 0.22322,5.62646 0.44645,-37.408432 0.11161,3.246124 0.22322,-7.573616 0.22322,26.429514 0.11161,7.21369 0.11161,-0.22995 0.11162,-3.86343 0.11161,-19.884514 0.22322,10.286532 0.11161,0.295138 0.22322,32.683514 0.11161,-6.29635 0.11161,0.83738 0.44645,-33.378206 0.11161,9.534446 0.11161,19.64543 0.33484,-42.440461 0.11161,0.747195 0.11161,8.697843 0.11161,-0.202419 0.22322,12.162587 0.11161,-12.966576 0.11161,2.917525 0.11161,-3.947774 0.11162,-17.996201 0.11161,1.512397 0.22322,13.770842 0.11161,0.315066 0.11161,14.151501 0.22322,-4.688559 0.11161,-5.363597 0.22323,5.924084 0.11161,-0.07664 0.11161,6.692451 0.22322,-2.92624 0.11161,2.46629 0.11161,8.960766 0.11162,-0.24892 0.22322,10.56312 0.22322,-17.18617 0.11161,4.92994 0.11161,18.38355 0.11161,-1.49883 0.44645,-30.381515 0.11161,4.510864 0.11161,-5.004001 0.11161,2.27205 0.11161,-5.377448 0.11161,5.903924 0.11161,-3.367433 0.11162,4.864089 0.11161,-2.620842 0.11161,5.268441 0.11161,-9.540889 0.11161,11.71901 0.11161,-2.334782 0.11161,-6.060265 0.11161,-12.853952 0.11162,6.707473 0.22322,26.549256 0.11161,6.5773 0.11161,-2.75387 0.11161,8.4567 0.22322,-7.266 0.11161,10.82278 0.11162,-13.04858 0.11161,12.72781 0.11161,-12.52615 0.11161,4.83528 0.11161,-15.34592 0.11161,6.83835 0.22322,-14.943441 0.11162,11.617781 0.11161,-4.65778 0.22322,19.09671 0.11161,-6.61154 0.11161,5.45235 0.11161,16.21285 0.22322,-21.8458 0.11162,4.52101 0.11161,-0.18536 0.11161,1.9029 0.11161,13.20976 0.78128,-32.39187 0.11161,-15.760485 0.22322,7.376595 0.22322,-9.332704 0.11161,1.680702 0.11162,-2.199693 0.11161,3.404309 0.11161,-17.991859 0.11161,11.116678 0.11161,-9.433754 0.11161,2.720699 0.11161,-8.152325 0.78128,64.301477 0.22322,-37.086957 0.11161,9.718747 0.22323,-7.766312 0.11161,-9.07524 0.22322,6.734696 0.11161,-1.808214 0.22322,17.95322 0.11161,-6.80294 0.11162,1.6336 0.11161,-7.414736 0.11161,9.063426 0.11161,-15.836741 0.33483,41.151871 0.11161,-8.17372 0.11161,15.12451 0.11162,-0.0913 0.11161,-11.96192 0.11161,2.07464 0.22322,16.79626 0.11161,-7.75297 0.11161,8.95253 0.11161,-3.45798 0.22323,21.64556 0.22322,-13.17782 0.11161,2.44344 0.11161,6.08548 0.11161,-3.26164 0.33484,-35.75872 0.11161,0.54301 0.11161,-1.97939 0.11161,-8.63502 0.11161,7.30098 0.22322,-26.270393 0.11161,-2.45257 0.22323,7.23305 0.11161,-0.134665 0.11161,-12.187795 0.22322,16.502873 0.11161,-9.560367 0.33484,46.020587 0.22322,4.98529 0.44644,-25.06619 0.22322,-3.89815 0.22323,10.31038 0.11161,-2.02534 0.22322,-25.397255 0.11161,17.698685 0.33484,-24.682705 0.44644,49.921565 0.55806,-24.29716 0.11161,5.39852 0.22322,26.66963 0.22322,-10.62056 0.22322,-17.04455 0.11161,1.61496 0.22323,-32.862012 0.11161,6.310426 0.11161,-9.195468 0.22322,1.027464 0.22322,8.301384 0.11162,-11.350236 0.11161,-0.03421 0.22322,-3.283484 0.11161,-5.806443 0.22322,8.106377 0.11161,-10.667691 0.11161,11.743346 0.11162,-5.566332 0.11161,0.799471 0.11161,17.155899 0.22322,-18.258488 0.22322,4.547141 0.11161,6.598023 0.11162,-9.819396 0.11161,0.364834 0.11161,4.526274 0.11161,-4.377697 0.11161,6.296768 0.11161,-4.571005 0.11161,19.367065 0.22322,-14.275184 0.11162,-0.398587 0.22322,13.514305 0.22322,-9.932873 0.33483,24.461929 0.11161,-8.34978 0.22323,20.06839 0.11161,8.97718 0.11161,-5.07255 0.11161,-25.57169 0.22322,15.32937 0.11161,-1.02488 0.11162,8.10268 0.22322,-17.36437 0.11161,-2.5621 0.11161,0.24438 0.11161,4.18419 0.11161,-2.17868 0.11161,-6.33916 0.11161,12.37095 0.22323,-16.412764 0.11161,-0.928316 0.11161,-5.337945 0.22322,12.679825 0.11161,-6.983931 0.33484,14.092691 0.22322,12.66009 0.11161,5.21205 0.22322,-5.99471 0.11161,0.76792 0.11161,-12.60354 0.11162,7.65923 0.22322,-5.7897 0.22322,-4.27459 0.22322,-34.253729 0.11161,22.000274 0.11161,-1.889857 0.22323,21.179922 0.33483,-21.001619 0.11161,0.981325 0.22322,-5.930324 0.33484,26.461348 0.33483,-22.792779 0.11161,12.563659 0.11161,-2.77956 0.22323,6.72093 0.11161,-4.92556 0.11161,0.2121 0.22322,9.39787 0.33483,25.27836 0.11162,-2.5397 0.11161,-10.59477 0.11161,6.93194 0.66966,-40.326002 0.11162,4.632262 0.22322,-23.52137 0.11161,-2.990502 0.11161,6.169836 0.22322,45.150886 0.22322,24.44089 0.11162,-0.33436 0.22322,-15.77473 0.22322,-24.81994 0.22322,18.10308 0.22323,-4.57747 0.22322,9.60005 0.22322,7.09887 0.11161,-1.48452 0.22322,-15.94425 0.11161,1.24679 0.11162,-0.73588 0.11161,-2.7337 0.22322,-33.376131 0.11161,4.089796 0.22322,-0.555624 0.11161,-10.365151 0.22323,15.963745 0.11161,1.819066 0.22322,-9.680915 0.11161,4.34401 0.22322,-13.124882 0.11161,0.362054 0.11162,25.029262 0.22322,-12.378941 0.11161,2.00271 0.11161,17.150771 0.22322,-13.590906 0.11161,11.444476 0.11161,-2.84796 0.22323,9.8317 0.11161,1.8333 0.22322,-18.187553 0.11161,3.319543 0.11161,-7.181113 0.33484,31.160593 0.11161,1.10588 0.11161,-2.53786 0.44644,-28.528917 0.11161,13.881937 0.11162,-24.37458 0.11161,8.838029 0.11161,-0.983466 0.11161,15.499107 0.11161,-3.37585 0.11161,-10.893429 0.11161,5.607287 0.11161,-3.158152 0.11161,1.36961 0.11162,-12.918984 0.11161,8.515001 0.22322,-3.930565 0.22322,24.794222 0.11161,-3.95891 0.11161,0.26084 0.11162,-11.999188 0.22322,32.998398 0.11161,3.51759 0.22322,17.70416 0.33483,37.19743 0.11162,-5.66006 0.22322,-12.9612 0.11161,5.25042 0.11161,-5.08926 0.22322,14.75333 0.11161,-1.70689 0.11162,16.0327 0.22322,-25.65525 0.22322,21.28839 0.22322,-8.41652 0.22322,6.38643 0.11162,-2.58991 0.11161,1.58877 0.11161,5.53056 0.11161,-0.81907 0.22322,-5.71076 0.11161,-9.62553 0.11161,10.17122 0.11161,-7.19558 0.11162,-0.0264 0.22322,15.45518 0.11161,3.94057 0.22322,-17.52868 0.22322,18.65492 0.22323,-15.84744 0.11161,0.63893 0.11161,-2.59936 0.11161,-9.52364 0.22322,4.0365 0.11161,-16.70574 0.11161,3.08094 0.11162,14.12921 0.22322,-8.05666 0.11161,13.04402 0.11161,-13.33067 0.33483,32.06852 0.11161,-2.94744 0.11162,6.78824 0.22322,-21.44229 0.22322,26.36871 0.22322,-15.59027 0.11161,4.83864 0.22323,-32.85117 0.22322,13.93515 0.11161,3.6078 0.11161,-0.32086 0.22322,24.96189 0.11161,-3.03752 0.11162,0.77584 0.11161,-4.92882 0.11161,3.2264 0.22322,-15.02055 0.11161,2.00128 0.11161,-8.51135 0.11161,13.51846 0.11162,0.0454 0.22322,20.57523 0.11161,-12.86155 0.11161,2.00186 0.55806,-32.89196 0.11161,4.35533 0.11161,-5.20524 0.11161,5.92894 0.11161,-4.40297 0.11161,0.38283 0.11161,6.74193 0.11161,-12.90415 0.22323,11.89807 0.22322,-9.35783 0.11161,-25.51742 0.11161,15.00606 0.11161,-11.13382 0.11161,7.73414 0.11161,-1.11352 0.33484,-30.27924 0.22322,-4.14414 0.11161,0.7244 0.11161,2.30946 0.11161,-8.91667 0.11162,13.05412 0.22322,-13.79685 0.11161,1.21226 0.11161,-18.56938 0.11161,1.06499 0.11161,5.84815 0.22322,34.18615 0.11162,-1.3093 0.33483,23.24334 0.33483,-21.97194 0.33484,27.30973 0.22322,-23.86798 0.11161,18.37476 0.11161,-2.12356 0.11161,12.89909 0.33483,-19.79869 0.11162,1.22551 0.11161,2.4097 0.11161,10.60372 0.11161,-3.84909 0.11161,2.33546 0.22322,14.04087 0.11161,1.48868 0.22323,-9.20928 0.11161,-11.89665 0.11161,1.52681 0.11161,3.10432 0.11161,-7.82313 0.11161,0.49903 0.11161,4.70458 0.11161,10.38046 0.11162,-3.59148 0.11161,1.49972 0.22322,-7.32749 0.22322,-17.30394 0.11161,-3.76731 0.11161,4.43436 0.22323,20.58731 0.11161,0.13382 0.11161,-10.28328 0.11161,15.87252 0.11161,-7.69378 0.11161,5.08019 0.11161,-14.8554 0.11161,0.53517 0.22323,17.17595 0.11161,-11.49303 0.11161,4.49592 0.11161,10.03173 0.22322,28.18979 0.11161,-1.8619 0.11161,-4.73852 0.44645,15.29965 0.11161,-6.32871 0.22322,-23.68546 0.22323,10.57225 0.11161,1.79541 0.22322,7.58143 0.11161,2.00692 0.11161,-2.20768 0.11161,-13.90184 0.11161,5.16416 0.11161,-1.22215 0.22323,-31.44672 0.44644,22.24364 0.11161,-2.11914 0.33484,-17.25021 0.22322,5.80924 0.11161,1.18439 0.11161,3.26117 0.11161,-7.77849 0.33484,9.00999 0.11161,0.054 0.11161,-9.57164 0.11161,12.06256 0.11161,-7.09707 0.11161,1.25591 0.11161,-7.85946 0.22322,1.10371 0.11162,-0.31345 0.22322,20.40744 0.11161,1.36547 0.11161,-0.61286 0.22322,2.68745 0.11161,7.80791 0.33484,-15.06448 0.44644,41.93537 0.11161,4.6879 0.22323,-14.35794 0.11161,-1.72019 0.11161,6.67723 0.11161,-9.36414 0.11161,13.51898 0.11161,-1.75352 0.11161,-12.75172 0.11161,2.17539 0.11161,-5.28436 0.11162,2.91756 0.11161,-19.15015 0.11161,1.75318 0.11161,6.52864 0.33483,38.70389 0.11161,-14.81891 0.22323,12.59528 0.11161,-7.46362 0.11161,-23.37227 0.22322,8.74342 0.11161,1.0433 0.11161,6.71741 0.11161,-2.20107 0.11162,-6.86138 0.11161,6.37638 0.11161,-4.94898 0.11161,7.0452 0.11161,-7.37273 0.11161,0.83749 0.11161,-1.2725 0.22323,-15.2546 0.22322,14.38168 0.22322,-19.02503 0.11161,-10.31018 0.11161,13.67563 0.11161,-6.70003 0.11161,-16.67882 0.11162,5.48686 0.11161,-2.0846 0.11161,-6.35192 0.11161,10.94476 0.11161,-5.46388 0.11161,3.18988 0.22322,-22.81678 0.11161,-2.77234 0.11162,-12.20098 0.11161,0.53044 0.11161,-11.50527 0.11161,0.84536 0.11161,-5.01807 0.44645,-57.340914 0.11161,-3.03703 0.11161,0.347641 0.22322,27.830742 0.22322,14.237351 0.11161,-0.5488 0.22323,2.5568 0.11161,-19.221878 0.33483,8.407848 0.11161,-2.622964 0.22322,8.127534 0.11161,-2.8162 0.11162,2.02412 0.11161,-12.112069 0.11161,0.394235 0.22322,8.333514 0.11161,0.41549 0.11161,-9.686996 0.11162,10.077846 0.22322,-17.455683 0.11161,0.286043 0.11161,14.41712 0.11161,-4.864309 0.22322,-20.131833 0.44645,39.085272 0.22322,-29.96483 0.22322,9.046002 0.22322,-10.41164 0.33484,47.862238 0.11161,2.22464 0.22322,-21.64113 0.22322,1.42723 0.33484,-8.25773 0.11161,21.59028 0.22322,-12.57061 0.11161,2.38899 0.22322,9.52534 0.11161,-15.31928 0.22323,15.47572 0.11161,0.19768 0.33483,-14.19772 0.11161,0.29073 0.33484,30.01992 0.11161,-0.22073 0.22322,8.77913 0.33483,-27.15108 0.22323,19.84193 0.11161,-13.09985 0.22322,12.2849 0.22322,-16.24817 0.11161,5.66543 0.11161,-9.39663 0.22323,8.33669 0.11161,-3.99963 0.22322,-19.54063 0.11161,4.67185 0.11161,-1.5251 0.11161,6.84356 0.11161,-6.86828 0.11162,13.83536 0.22322,-19.45757 0.11161,-1.2167 0.11161,-6.491204 0.33483,27.005714 0.33484,-29.511283 0.22322,16.483713 0.11161,-3.86613 0.11161,0.62454 0.11161,-3.88143 0.11161,5.29832 0.22323,30.99179 0.11161,-2.01933 0.22322,13.5981 0.11161,-4.27778 0.11161,-10.27583 0.11161,7.07468 0.22323,-45.581026 0.22322,22.375186 0.22322,-23.911393 0.22322,12.775393 0.22323,-11.87363 0.22322,3.036 0.22322,-4.775837 0.11161,20.872317 0.11161,-3.07786 0.11161,2.36607 0.22323,17.1147 0.44644,-31.65326 0.11161,-0.17163 0.11161,-0.78921 0.22323,5.23879 0.11161,-23.903881 0.33483,19.525081 0.11161,-8.429837 0.33483,15.399327 0.11162,0.74601 0.11161,-15.150706 0.11161,10.101296 0.11161,-3.54789 0.22322,-22.63871 0.11161,3.894572 0.22322,-11.38182 0.11162,0.918914 0.22322,17.724312 0.11161,-14.689251 0.11161,2.580276 0.33483,33.028577 0.22323,-25.103693 0.11161,-7.019209 0.22322,7.413952 0.11161,-5.191668 0.11161,9.646479 0.11161,-7.386877 0.11161,7.516799 0.11162,-3.957511 0.11161,9.159909 0.22322,34.614479 0.44644,-19.61308 0.22323,22.90717 0.11161,0.86458 0.11161,-11.338 0.11161,5.71355 0.22322,17.89858 0.11161,15.11714 0.11161,-3.83453 0.11162,-9.72421 0.44644,34.47651 0.11161,-18.90172 0.11161,0.21383 0.33484,38.66738 0.11161,2.14658 0.33483,22.01372 0.22322,-7.51882 0.11161,5.11909 0.11161,-15.64429 0.11162,2.6605 0.11161,-9.88455 0.11161,5.89354 0.11161,-20.35659 0.11161,6.40747 0.22322,25.52999 0.11161,-1.36146 0.11162,-16.56234 0.11161,0.022 0.11161,-1.8955 0.11161,-4.2838 0.11161,-12.95738 0.33483,23.22878 0.33484,-18.08284 0.11161,-0.82515 0.33483,-34.02474 0.11161,-5.08415 0.22323,9.47596 0.11161,0.93773 0.11161,3.40956 0.11161,13.45192 0.11161,-6.21176 0.33483,21.35373 0.11161,22.15225 0.11162,-6.53548 0.11161,11.26207 0.11161,-14.19788 0.11161,7.36398 0.22322,-6.58869 0.22322,22.79894 0.11162,-4.6827 0.44644,21.21673 0.11161,-3.89913 0.11161,2.40614 0.11161,-10.88052 0.11161,7.67534 0.22323,-12.10045 0.11161,12.20689 0.22322,-17.17184 0.11161,-1.2104 0.22322,20.85092 0.22323,-15.29822 0.11161,-8.65551 0.11161,3.64483 0.11161,-17.02294 0.11161,5.56857 0.22322,-22.59898 0.11161,-4.10528 0.11162,4.9279 0.11161,19.0641 0.22322,-16.89249 0.11161,-2.84905 0.22322,26.48589 0.11161,-1.21012 0.11161,-4.98474 0.11162,-12.82672 0.11161,1.41406 0.11161,4.07203 0.11161,-8.52614 0.11161,6.97989 0.11161,-0.705 0.11161,14.04992 0.33484,-30.9914 0.11161,9.87858 0.33483,-28.75412 0.11161,8.38052 0.22322,-11.34351 0.11162,-0.4697 0.11161,-0.95401 0.11161,-15.37098 0.11161,-0.006 0.11161,7.76979 0.22322,-23.34064 0.11161,1.28922 0.44645,-25.51203 0.22322,-13.736913 0.11161,5.579621 0.11161,-2.742724 0.33484,17.002546 0.11161,-7.843654 0.44644,22.838924 0.11161,-6.01006 0.11161,0.84556 0.22323,-11.43464 0.11161,-5.73357 0.11161,2.58782 0.11161,-2.70724 0.11161,-5.967146 0.22322,7.897966 0.11161,2.86945 0.22323,10.7292 0.22322,9.87458 0.11161,7.12859 0.11161,-3.14077 0.11161,4.23136 0.22323,-12.30048 0.22322,11.77407 0.22322,-14.86973 0.11161,13.61379 0.11161,-5.16335 0.11161,4.72226 0.11161,-15.87259 0.44645,32.29762 0.11161,-9.29212 0.11161,6.58852 0.11161,-15.57611 0.22322,22.19284 0.11162,-15.33578 0.22322,8.40816 0.22322,25.91739 0.11161,6.59481 0.11161,-0.53899 0.11161,-10.83711 0.22323,4.98222 0.11161,-2.71222 0.11161,-15.50832 0.11161,0.77094 0.11161,3.00961 0.22322,-2.74386 0.11161,3.57711 0.11162,9.46573 0.11161,-4.3556 0.44644,-28.95449 0.11161,1.41457 0.33484,19.33114 0.22322,-4.09413 0.22322,6.31345 0.11161,0.57729 0.11161,-2.3339 0.11161,1.48473 0.22323,-12.15465 0.33483,-25.32701 0.11161,3.89699 0.11161,-0.66455 0.11161,-11.58158 0.11161,11.45867 0.11162,-6.34942 0.22322,16.60872 0.22322,-21.17216 0.22322,8.58166 0.11161,10.52735 0.11162,-4.5848 0.33483,-25.799614 0.22322,14.564234 0.11161,-4.15545 0.11161,15.62948 0.11161,-13.66183 0.11162,12.89443 0.22322,-15.44399 0.11161,-0.68471 0.11161,9.45829 0.11161,-7.64286 0.11161,14.77205 0.11161,-3.49056 0.11161,-7.93689 0.22323,10.44463 0.11161,8.87855 0.11161,-10.68379 0.11161,0.64769 0.11161,-5.70634 0.11161,6.60893 0.22323,-11.86647 0.11161,1.07924 0.22322,14.34003 0.11161,-2.41168 0.22322,-15.83789 0.11161,1.9523 0.11161,-1.36336 0.11162,1.5375 0.11161,4.09935 0.11161,-2.59666 0.11161,-20.326758 0.11161,1.389069 0.11161,-6.589878 0.11161,3.802074 0.11161,-6.795748 0.11162,17.907011 0.33483,-27.720522 0.11161,1.074478 0.22322,26.956254 0.11161,2.28101 0.11162,-0.25612 0.11161,0.60035 0.11161,-5.31409 0.11161,1.82887 0.11161,-1.78319 0.33483,18.79438 0.22323,-18.83611 0.11161,6.56907 0.11161,-5.96906 0.11161,-18.936851 0.22322,6.621998 0.11161,-0.49331 0.11161,18.351433 0.11161,-3.46125 0.22323,22.56394 0.11161,-5.80812 0.11161,1.39651 0.11161,-0.009 0.11161,-3.3198 0.11161,13.67552 0.11161,-1.35275 0.11161,-4.84832 0.11162,8.67051 0.11161,-8.71355 0.11161,9.55497 0.11161,-0.74043 0.11161,-3.74395 0.22322,11.64909 0.11161,-1.73727 0.22323,18.99604 0.11161,-10.30702 0.11161,8.06793 0.11161,-2.08075 0.11161,14.25773 0.11161,-1.38929 0.11161,-3.38639 0.22323,-19.36123 0.22322,30.59736 0.11161,-9.13086 0.22322,13.7812 0.11161,27.98189 0.44645,-20.56578 0.11161,-8.49163 0.11161,4.44529 0.22322,-3.30912 0.22322,31.41554 0.22323,-2.90268 0.11161,3.41249 0.22322,-8.30786 0.11161,2.43215 0.11161,18.82182 0.11161,-1.54325 0.44645,-37.15199 0.11161,8.24845 0.11161,-1.03925 0.11161,-6.98081 0.11161,-15.59176 0.11161,7.99641 0.11162,-3.86898 0.11161,9.78436 0.22322,-12.58753 0.11161,0.41189 0.22322,8.69059 0.11161,-1.39608 0.11161,-4.61356 0.44645,29.00092 0.11161,-5.25841 0.55806,31.66645 0.11161,-2.2103 0.33483,-32.00272 0.11161,13.30264 0.33484,-25.96948 0.22322,14.03002 0.11161,-5.90561 0.11161,14.49575 0.11161,-15.67503 0.22322,2.59756 0.11161,-8.90426 0.33484,16.46641 0.11161,-0.13878 0.11161,1.97304 0.11161,-16.46854 0.11161,0.0845 0.11161,9.58254 0.11162,-0.94149 0.33483,-24.28288 0.11161,1.94766 0.11161,-0.42848 0.33483,-8.75682 0.11162,3.54451 0.11161,-10.18275 0.22322,19.80459 0.11161,-1.03893 0.22322,15.44319 0.22322,-15.04612 0.22323,4.38908 0.22322,18.85041 0.22322,-5.7838 0.11161,-4.34213 0.22323,-27.95559 0.11161,0.0116 0.11161,11.83875 0.11161,-7.66757 0.11161,11.58994 0.44644,-24.50342 0.11162,16.01755 0.22322,-20.93755 0.11161,-6.25783 0.11161,9.28227 0.11161,-4.77115 0.11161,8.25474 0.22322,34.94515 0.11162,-5.38688 0.11161,3.47655 0.11161,-3.70581 0.11161,4.46425 0.22322,-7.80812 0.22322,10.98533 0.22323,-4.3643 0.11161,3.51847 0.11161,-4.5663 0.11161,-19.29822 0.33483,34.49816 0.66967,-26.38824 0.11161,0.42112 0.11161,-5.12307 0.11161,4.84811 0.22323,-11.61608 0.22322,30.54219 0.11161,-3.20363 0.11161,5.52176 0.22322,-7.50623 0.11161,13.70785 0.11162,-2.0641 0.11161,-15.04446 0.33483,11.60559 0.22322,-20.03327 0.11161,-10.69924 0.11161,6.03469 0.11162,14.79329 0.22322,-4.64786 0.11161,1.59701 0.33483,-9.94874 0.11161,4.77621 0.11162,16.49596 0.11161,-8.48378 0.11161,5.72608 0.11161,-8.57083 0.22322,10.49543 0.11161,-13.40492 0.33484,23.93208 0.11161,-7.90631 0.11161,10.10624 0.11161,-1.41785 0.33483,6.16898 0.22323,8.16947 0.11161,2.03301 0.11161,-4.17854 0.22322,-41.18235 0.11161,7.80877 0.11161,-0.66668 0.22322,-21.13777 0.22323,18.08036 0.11161,-4.152 0.11161,11.18755 0.11161,-4.90926 0.11161,1.46804 0.44645,27.68427 0.11161,-3.83612 0.11161,-23.61907 0.22322,17.45048 0.11161,12.3188 0.22322,-9.0308 0.11162,0.99405 0.11161,-5.94763 0.33483,21.33023 0.22322,-9.41307 0.11161,6.03161 0.22323,-5.85918 0.11161,0.50093 0.11161,15.69856 0.22322,-17.19495 0.11161,6.27012 0.11161,14.33616 0.11161,-18.42818 0.11161,8.22709 0.22323,-4.95399 0.33483,12.53478 0.11161,2.5227 0.11161,6.23663 0.11161,-3.04729 0.11162,2.1547 0.11161,8.24959 0.33483,-36.88331 0.22322,-5.72296 0.55806,-33.57724 0.11161,1.22579 0.11161,8.90846 0.11161,-0.32151 0.11161,-1.68504 0.22323,18.13177 0.11161,-5.41015 0.22322,9.24445 0.33483,-23.5965 0.11161,15.30582 0.11161,-14.86303 0.33484,40.62695 0.11161,-8.013 0.11161,3.4922 0.11161,-0.56496 0.22322,-17.30634 0.22323,15.16184 0.22322,-6.23719 0.11161,-0.1379 0.11161,2.36234 0.33483,20.36156 0.11162,-3.65032 0.22322,-27.28535 0.11161,-1.94065 0.11161,6.63137 0.22322,-6.13302 0.22322,6.64799 0.11162,2.41774 0.33483,39.29286 0.11161,6.81948 0.22322,-33.98546 0.11161,8.47572 0.11162,2.97793 0.33483,-28.59041 0.11161,13.38671 0.22322,-26.64801 0.11161,1.59454 0.22323,16.80664 0.22322,1.84731 0.22322,29.34172 0.11161,-2.66594 0.11161,-2.95676 0.11161,6.32172 0.11161,-7.96707 0.11162,5.72877 0.11161,-6.82414 0.33483,-41.1472 0.11161,14.63082 0.11161,-7.60218 0.11161,1.11444 0.11162,2.79101 0.11161,-0.87526 0.33483,46.45648 0.11161,-9.73797 0.22322,14.23209 0.22323,-13.23428 0.22322,-54.81084 0.22322,15.99394 0.11161,2.0851 0.11161,-4.25738 0.11161,10.79562 0.33484,-25.84011 0.11161,-3.13706 0.33483,-22.81332 0.11161,-5.51165 0.22323,-15.85381 0.11161,-2.4923 0.11161,-9.60037 0.11161,0.88225 0.22322,-9.00379 0.11161,6.30146 0.11161,-23.733978 0.11161,7.189855 0.11162,-10.665272 0.11161,2.679929 0.11161,-8.954866 0.44644,32.262342 v 0"
         style="fill:none;stroke:#2e8b57;stroke-width:1;stroke-linecap:square;stroke-linejoin:round;stroke-miterlimit:10;stroke-dasharray:none;stroke-opacity:1"
         id="path3369" /></g></g><g
     id="g3371"
     transform="matrix(0.35277776,0,0,-0.35277778,-9.632826,95.430476)"><g
       id="g3373"
       clip-path="url(#clipPath3377)"><path
         d="m 54.825,210.31125 h 334.8"
         style="fill:none;stroke:#000080;stroke-width:1.5;stroke-linecap:butt;stroke-linejoin:round;stroke-miterlimit:10;stroke-dasharray:5.55, 2.4;stroke-dashoffset:0;stroke-opacity:0.5"
         id="path3379" /></g></g><g
     id="g3381"
     transform="matrix(0.35277776,0,0,-0.35277778,-9.632826,95.430476)"><g
       id="g3383"
       clip-path="url(#clipPath3387)"><path
         d="m 54.825,101.59125 h 334.8"
         style="fill:none;stroke:#000080;stroke-width:1.5;stroke-linecap:butt;stroke-linejoin:round;stroke-miterlimit:10;stroke-dasharray:5.55, 2.4;stroke-dashoffset:0;stroke-opacity:0.5"
         id="path3389" /></g></g><g
     id="g3391"
     transform="matrix(0.35277776,0,0,-0.35277778,-9.632826,95.430476)"
     style="stroke-width:1.98425;stroke-dasharray:none"><path
       d="m 54.825,47.23125 v 217.44"
       style="fill:none;stroke:#000000;stroke-width:1.98425;stroke-linecap:square;stroke-linejoin:miter;stroke-miterlimit:10;stroke-dasharray:none;stroke-opacity:1"
       id="path3393" /><path
       d="m 389.625,47.23125 v 217.44"
       style="fill:none;stroke:#000000;stroke-width:1.98425;stroke-linecap:square;stroke-linejoin:miter;stroke-miterlimit:10;stroke-dasharray:none;stroke-opacity:1"
       id="path3395" /><path
       d="m 54.825,47.23125 h 334.8"
       style="fill:none;stroke:#000000;stroke-width:1.98425;stroke-linecap:square;stroke-linejoin:miter;stroke-miterlimit:10;stroke-dasharray:none;stroke-opacity:1"
       id="path3397" /><path
       d="m 54.825,264.67125 h 334.8"
       style="fill:none;stroke:#000000;stroke-width:1.98425;stroke-linecap:square;stroke-linejoin:miter;stroke-miterlimit:10;stroke-dasharray:none;stroke-opacity:1"
       id="path3399" /></g></svg>
