<?xml version="1.0" encoding="UTF-8" standalone="no"?>
<!-- Created with Inkscape (http://www.inkscape.org/) -->

<svg
   width="145.32129mm"
   height="94.884872mm"
   viewBox="0 0 145.32129 94.884872"
   version="1.1"
   id="svg5"
   xml:space="preserve"
   inkscape:export-filename=".\dw.svg"
   inkscape:export-xdpi="96"
   inkscape:export-ydpi="96"
   xmlns:inkscape="http://www.inkscape.org/namespaces/inkscape"
   xmlns:sodipodi="http://sodipodi.sourceforge.net/DTD/sodipodi-0.dtd"
   xmlns="http://www.w3.org/2000/svg"
   xmlns:svg="http://www.w3.org/2000/svg"><sodipodi:namedview
     id="namedview7"
     pagecolor="#ffffff"
     bordercolor="#999999"
     borderopacity="1"
     inkscape:showpageshadow="0"
     inkscape:pageopacity="0"
     inkscape:pagecheckerboard="0"
     inkscape:deskcolor="#d1d1d1"
     inkscape:document-units="mm"
     showgrid="false" /><defs
     id="defs2"><clipPath
       clipPathUnits="userSpaceOnUse"
       id="clipPath225036"><path
         d="M 69.934375,44.325 H 404.73437 v 217.44 H 69.934375 Z"
         id="path225034" /></clipPath><clipPath
       clipPathUnits="userSpaceOnUse"
       id="clipPath225046"><path
         d="M 69.934375,44.325 H 404.73437 v 217.44 H 69.934375 Z"
         id="path225044" /></clipPath><clipPath
       clipPathUnits="userSpaceOnUse"
       id="clipPath225056"><path
         d="M 69.934375,44.325 H 404.73437 v 217.44 H 69.934375 Z"
         id="path225054" /></clipPath><clipPath
       clipPathUnits="userSpaceOnUse"
       id="clipPath225066"><path
         d="M 69.934375,44.325 H 404.73437 v 217.44 H 69.934375 Z"
         id="path225064" /></clipPath><clipPath
       clipPathUnits="userSpaceOnUse"
       id="clipPath225076"><path
         d="M 69.934375,44.325 H 404.73437 v 217.44 H 69.934375 Z"
         id="path225074" /></clipPath><clipPath
       clipPathUnits="userSpaceOnUse"
       id="clipPath225086"><path
         d="M 69.934375,44.325 H 404.73437 v 217.44 H 69.934375 Z"
         id="path225084" /></clipPath><clipPath
       clipPathUnits="userSpaceOnUse"
       id="clipPath225096"><path
         d="M 69.934375,44.325 H 404.73437 v 217.44 H 69.934375 Z"
         id="path225094" /></clipPath><clipPath
       clipPathUnits="userSpaceOnUse"
       id="clipPath225106"><path
         d="M 69.934375,44.325 H 404.73437 v 217.44 H 69.934375 Z"
         id="path225104" /></clipPath><clipPath
       clipPathUnits="userSpaceOnUse"
       id="clipPath225116"><path
         d="M 69.934375,44.325 H 404.73437 v 217.44 H 69.934375 Z"
         id="path225114" /></clipPath><clipPath
       clipPathUnits="userSpaceOnUse"
       id="clipPath225126"><path
         d="M 69.934375,44.325 H 404.73437 v 217.44 H 69.934375 Z"
         id="path225124" /></clipPath><clipPath
       clipPathUnits="userSpaceOnUse"
       id="clipPath225136"><path
         d="M 69.934375,44.325 H 404.73437 v 217.44 H 69.934375 Z"
         id="path225134" /></clipPath><clipPath
       clipPathUnits="userSpaceOnUse"
       id="clipPath225146"><path
         d="M 69.934375,44.325 H 404.73437 v 217.44 H 69.934375 Z"
         id="path225144" /></clipPath><clipPath
       clipPathUnits="userSpaceOnUse"
       id="clipPath225156"><path
         d="M 69.934375,44.325 H 404.73437 v 217.44 H 69.934375 Z"
         id="path225154" /></clipPath><clipPath
       clipPathUnits="userSpaceOnUse"
       id="clipPath225166"><path
         d="M 69.934375,44.325 H 404.73437 v 217.44 H 69.934375 Z"
         id="path225164" /></clipPath><clipPath
       clipPathUnits="userSpaceOnUse"
       id="clipPath225176"><path
         d="M 69.934375,44.325 H 404.73437 v 217.44 H 69.934375 Z"
         id="path225174" /></clipPath><clipPath
       clipPathUnits="userSpaceOnUse"
       id="clipPath225186"><path
         d="M 69.934375,44.325 H 404.73437 v 217.44 H 69.934375 Z"
         id="path225184" /></clipPath><clipPath
       clipPathUnits="userSpaceOnUse"
       id="clipPath225196"><path
         d="M 69.934375,44.325 H 404.73437 v 217.44 H 69.934375 Z"
         id="path225194" /></clipPath><clipPath
       clipPathUnits="userSpaceOnUse"
       id="clipPath225206"><path
         d="M 69.934375,44.325 H 404.73437 v 217.44 H 69.934375 Z"
         id="path225204" /></clipPath><clipPath
       clipPathUnits="userSpaceOnUse"
       id="clipPath225216"><path
         d="M 69.934375,44.325 H 404.73437 v 217.44 H 69.934375 Z"
         id="path225214" /></clipPath><clipPath
       clipPathUnits="userSpaceOnUse"
       id="clipPath225226"><path
         d="M 69.934375,44.325 H 404.73437 v 217.44 H 69.934375 Z"
         id="path225224" /></clipPath><clipPath
       clipPathUnits="userSpaceOnUse"
       id="clipPath225236"><path
         d="M 69.934375,44.325 H 404.73437 v 217.44 H 69.934375 Z"
         id="path225234" /></clipPath><clipPath
       clipPathUnits="userSpaceOnUse"
       id="clipPath225246"><path
         d="M 69.934375,44.325 H 404.73437 v 217.44 H 69.934375 Z"
         id="path225244" /></clipPath><clipPath
       clipPathUnits="userSpaceOnUse"
       id="clipPath225256"><path
         d="M 69.934375,44.325 H 404.73437 v 217.44 H 69.934375 Z"
         id="path225254" /></clipPath><clipPath
       clipPathUnits="userSpaceOnUse"
       id="clipPath225266"><path
         d="M 69.934375,44.325 H 404.73437 v 217.44 H 69.934375 Z"
         id="path225264" /></clipPath><clipPath
       clipPathUnits="userSpaceOnUse"
       id="clipPath225276"><path
         d="M 69.934375,44.325 H 404.73437 v 217.44 H 69.934375 Z"
         id="path225274" /></clipPath><clipPath
       clipPathUnits="userSpaceOnUse"
       id="clipPath225286"><path
         d="M 69.934375,44.325 H 404.73437 v 217.44 H 69.934375 Z"
         id="path225284" /></clipPath><clipPath
       clipPathUnits="userSpaceOnUse"
       id="clipPath225296"><path
         d="M 69.934375,44.325 H 404.73437 v 217.44 H 69.934375 Z"
         id="path225294" /></clipPath><clipPath
       clipPathUnits="userSpaceOnUse"
       id="clipPath225306"><path
         d="M 69.934375,44.325 H 404.73437 v 217.44 H 69.934375 Z"
         id="path225304" /></clipPath><clipPath
       clipPathUnits="userSpaceOnUse"
       id="clipPath225316"><path
         d="M 69.934375,44.325 H 404.73437 v 217.44 H 69.934375 Z"
         id="path225314" /></clipPath><clipPath
       clipPathUnits="userSpaceOnUse"
       id="clipPath225326"><path
         d="M 69.934375,44.325 H 404.73437 v 217.44 H 69.934375 Z"
         id="path225324" /></clipPath><clipPath
       clipPathUnits="userSpaceOnUse"
       id="clipPath225336"><path
         d="M 69.934375,44.325 H 404.73437 v 217.44 H 69.934375 Z"
         id="path225334" /></clipPath><clipPath
       clipPathUnits="userSpaceOnUse"
       id="clipPath225346"><path
         d="M 69.934375,44.325 H 404.73437 v 217.44 H 69.934375 Z"
         id="path225344" /></clipPath><clipPath
       clipPathUnits="userSpaceOnUse"
       id="clipPath225356"><path
         d="M 69.934375,44.325 H 404.73437 v 217.44 H 69.934375 Z"
         id="path225354" /></clipPath><clipPath
       clipPathUnits="userSpaceOnUse"
       id="clipPath225366"><path
         d="M 69.934375,44.325 H 404.73437 v 217.44 H 69.934375 Z"
         id="path225364" /></clipPath><clipPath
       clipPathUnits="userSpaceOnUse"
       id="clipPath225376"><path
         d="M 69.934375,44.325 H 404.73437 v 217.44 H 69.934375 Z"
         id="path225374" /></clipPath><clipPath
       clipPathUnits="userSpaceOnUse"
       id="clipPath225386"><path
         d="M 69.934375,44.325 H 404.73437 v 217.44 H 69.934375 Z"
         id="path225384" /></clipPath><clipPath
       clipPathUnits="userSpaceOnUse"
       id="clipPath225396"><path
         d="M 69.934375,44.325 H 404.73437 v 217.44 H 69.934375 Z"
         id="path225394" /></clipPath><clipPath
       clipPathUnits="userSpaceOnUse"
       id="clipPath225406"><path
         d="M 69.934375,44.325 H 404.73437 v 217.44 H 69.934375 Z"
         id="path225404" /></clipPath><clipPath
       clipPathUnits="userSpaceOnUse"
       id="clipPath225416"><path
         d="M 69.934375,44.325 H 404.73437 v 217.44 H 69.934375 Z"
         id="path225414" /></clipPath><clipPath
       clipPathUnits="userSpaceOnUse"
       id="clipPath225426"><path
         d="M 69.934375,44.325 H 404.73437 v 217.44 H 69.934375 Z"
         id="path225424" /></clipPath><clipPath
       clipPathUnits="userSpaceOnUse"
       id="clipPath225436"><path
         d="M 69.934375,44.325 H 404.73437 v 217.44 H 69.934375 Z"
         id="path225434" /></clipPath><clipPath
       clipPathUnits="userSpaceOnUse"
       id="clipPath225446"><path
         d="M 69.934375,44.325 H 404.73437 v 217.44 H 69.934375 Z"
         id="path225444" /></clipPath><clipPath
       clipPathUnits="userSpaceOnUse"
       id="clipPath225456"><path
         d="M 69.934375,44.325 H 404.73437 v 217.44 H 69.934375 Z"
         id="path225454" /></clipPath><clipPath
       clipPathUnits="userSpaceOnUse"
       id="clipPath225466"><path
         d="M 69.934375,44.325 H 404.73437 v 217.44 H 69.934375 Z"
         id="path225464" /></clipPath><clipPath
       clipPathUnits="userSpaceOnUse"
       id="clipPath225476"><path
         d="M 69.934375,44.325 H 404.73437 v 217.44 H 69.934375 Z"
         id="path225474" /></clipPath><clipPath
       clipPathUnits="userSpaceOnUse"
       id="clipPath225486"><path
         d="M 69.934375,44.325 H 404.73437 v 217.44 H 69.934375 Z"
         id="path225484" /></clipPath><clipPath
       clipPathUnits="userSpaceOnUse"
       id="clipPath225496"><path
         d="M 69.934375,44.325 H 404.73437 v 217.44 H 69.934375 Z"
         id="path225494" /></clipPath><clipPath
       clipPathUnits="userSpaceOnUse"
       id="clipPath225506"><path
         d="M 69.934375,44.325 H 404.73437 v 217.44 H 69.934375 Z"
         id="path225504" /></clipPath><clipPath
       clipPathUnits="userSpaceOnUse"
       id="clipPath225516"><path
         d="M 69.934375,44.325 H 404.73437 v 217.44 H 69.934375 Z"
         id="path225514" /></clipPath><clipPath
       clipPathUnits="userSpaceOnUse"
       id="clipPath225526"><path
         d="M 69.934375,44.325 H 404.73437 v 217.44 H 69.934375 Z"
         id="path225524" /></clipPath><clipPath
       clipPathUnits="userSpaceOnUse"
       id="clipPath225536"><path
         d="M 69.934375,44.325 H 404.73437 v 217.44 H 69.934375 Z"
         id="path225534" /></clipPath><clipPath
       clipPathUnits="userSpaceOnUse"
       id="clipPath225546"><path
         d="M 69.934375,44.325 H 404.73437 v 217.44 H 69.934375 Z"
         id="path225544" /></clipPath><clipPath
       clipPathUnits="userSpaceOnUse"
       id="clipPath225556"><path
         d="M 69.934375,44.325 H 404.73437 v 217.44 H 69.934375 Z"
         id="path225554" /></clipPath><clipPath
       clipPathUnits="userSpaceOnUse"
       id="clipPath225566"><path
         d="M 69.934375,44.325 H 404.73437 v 217.44 H 69.934375 Z"
         id="path225564" /></clipPath><clipPath
       clipPathUnits="userSpaceOnUse"
       id="clipPath225576"><path
         d="M 69.934375,44.325 H 404.73437 v 217.44 H 69.934375 Z"
         id="path225574" /></clipPath><clipPath
       clipPathUnits="userSpaceOnUse"
       id="clipPath225586"><path
         d="M 69.934375,44.325 H 404.73437 v 217.44 H 69.934375 Z"
         id="path225584" /></clipPath><clipPath
       clipPathUnits="userSpaceOnUse"
       id="clipPath225596"><path
         d="M 69.934375,44.325 H 404.73437 v 217.44 H 69.934375 Z"
         id="path225594" /></clipPath><clipPath
       clipPathUnits="userSpaceOnUse"
       id="clipPath225606"><path
         d="M 69.934375,44.325 H 404.73437 v 217.44 H 69.934375 Z"
         id="path225604" /></clipPath><clipPath
       clipPathUnits="userSpaceOnUse"
       id="clipPath225616"><path
         d="M 69.934375,44.325 H 404.73437 v 217.44 H 69.934375 Z"
         id="path225614" /></clipPath><clipPath
       clipPathUnits="userSpaceOnUse"
       id="clipPath225626"><path
         d="M 69.934375,44.325 H 404.73437 v 217.44 H 69.934375 Z"
         id="path225624" /></clipPath><clipPath
       clipPathUnits="userSpaceOnUse"
       id="clipPath225636"><path
         d="M 69.934375,44.325 H 404.73437 v 217.44 H 69.934375 Z"
         id="path225634" /></clipPath><clipPath
       clipPathUnits="userSpaceOnUse"
       id="clipPath225646"><path
         d="M 69.934375,44.325 H 404.73437 v 217.44 H 69.934375 Z"
         id="path225644" /></clipPath></defs><g
     id="g225030"
     transform="matrix(0.35277776,0,0,-0.35277778,-1.4237098e-5,94.884878)"><g
       id="g225032"
       clip-path="url(#clipPath225036)"><path
         d="m 70.995936,44.325 h 4.246244 v 0 z"
         style="fill:#ff7f50;fill-opacity:1;fill-rule:nonzero;stroke:none"
         id="path225038" /></g></g><g
     id="g225040"
     transform="matrix(0.35277776,0,0,-0.35277778,-1.4237098e-5,94.884878)"><g
       id="g225042"
       clip-path="url(#clipPath225046)"><path
         d="m 81.611546,44.325 h 4.246244 v 0 z"
         style="fill:#ff7f50;fill-opacity:1;fill-rule:nonzero;stroke:none"
         id="path225048" /></g></g><g
     id="g225050"
     transform="matrix(0.35277776,0,0,-0.35277778,-1.4237098e-5,94.884878)"><g
       id="g225052"
       clip-path="url(#clipPath225056)"><path
         d="m 92.227155,44.325 h 4.246244 v 0 z"
         style="fill:#ff7f50;fill-opacity:1;fill-rule:nonzero;stroke:none"
         id="path225058" /></g></g><g
     id="g225060"
     transform="matrix(0.35277776,0,0,-0.35277778,-1.4237098e-5,94.884878)"><g
       id="g225062"
       clip-path="url(#clipPath225066)"><path
         d="m 102.84277,44.325 h 4.24624 v 10.152505 h -4.24624 z"
         style="fill:#ff7f50;fill-opacity:1;fill-rule:nonzero;stroke:none"
         id="path225068" /></g></g><g
     id="g225070"
     transform="matrix(0.35277776,0,0,-0.35277778,-1.4237098e-5,94.884878)"><g
       id="g225072"
       clip-path="url(#clipPath225076)"><path
         d="m 113.45837,44.325 h 4.24625 v 10.152505 h -4.24625 z"
         style="fill:#ff7f50;fill-opacity:1;fill-rule:nonzero;stroke:none"
         id="path225078" /></g></g><g
     id="g225080"
     transform="matrix(0.35277776,0,0,-0.35277778,-1.4237098e-5,94.884878)"><g
       id="g225082"
       clip-path="url(#clipPath225086)"><path
         d="m 124.07398,44.325 h 4.24625 v 10.152505 h -4.24625 z"
         style="fill:#ff7f50;fill-opacity:1;fill-rule:nonzero;stroke:none"
         id="path225088" /></g></g><g
     id="g225090"
     transform="matrix(0.35277776,0,0,-0.35277778,-1.4237098e-5,94.884878)"><g
       id="g225092"
       clip-path="url(#clipPath225096)"><path
         d="m 134.68959,44.325 h 4.24625 v 40.610019 h -4.24625 z"
         style="fill:#ff7f50;fill-opacity:1;fill-rule:nonzero;stroke:none"
         id="path225098" /></g></g><g
     id="g225100"
     transform="matrix(0.35277776,0,0,-0.35277778,-1.4237098e-5,94.884878)"><g
       id="g225102"
       clip-path="url(#clipPath225106)"><path
         d="m 145.3052,44.325 h 4.24625 v 20.305009 h -4.24625 z"
         style="fill:#ff7f50;fill-opacity:1;fill-rule:nonzero;stroke:none"
         id="path225108" /></g></g><g
     id="g225110"
     transform="matrix(0.35277776,0,0,-0.35277778,-1.4237098e-5,94.884878)"><g
       id="g225112"
       clip-path="url(#clipPath225116)"><path
         d="m 155.92081,44.325 h 4.24625 v 55.83878 h -4.24625 z"
         style="fill:#ff7f50;fill-opacity:1;fill-rule:nonzero;stroke:none"
         id="path225118" /></g></g><g
     id="g225120"
     transform="matrix(0.35277776,0,0,-0.35277778,-1.4237098e-5,94.884878)"><g
       id="g225122"
       clip-path="url(#clipPath225126)"><path
         d="m 166.53642,44.325 h 4.24625 v 142.13507 h -4.24625 z"
         style="fill:#ff7f50;fill-opacity:1;fill-rule:nonzero;stroke:none"
         id="path225128" /></g></g><g
     id="g225130"
     transform="matrix(0.35277776,0,0,-0.35277778,-1.4237098e-5,94.884878)"><g
       id="g225132"
       clip-path="url(#clipPath225136)"><path
         d="m 177.15203,44.325 h 4.24625 v 101.52505 h -4.24625 z"
         style="fill:#ff7f50;fill-opacity:1;fill-rule:nonzero;stroke:none"
         id="path225138" /></g></g><g
     id="g225140"
     transform="matrix(0.35277776,0,0,-0.35277778,-1.4237098e-5,94.884878)"><g
       id="g225142"
       clip-path="url(#clipPath225146)"><path
         d="m 187.76764,44.325 h 4.24625 v 60.91503 h -4.24625 z"
         style="fill:#ff7f50;fill-opacity:1;fill-rule:nonzero;stroke:none"
         id="path225148" /></g></g><g
     id="g225150"
     transform="matrix(0.35277776,0,0,-0.35277778,-1.4237098e-5,94.884878)"><g
       id="g225152"
       clip-path="url(#clipPath225156)"><path
         d="m 198.38325,44.325 h 4.24625 v 40.610019 h -4.24625 z"
         style="fill:#ff7f50;fill-opacity:1;fill-rule:nonzero;stroke:none"
         id="path225158" /></g></g><g
     id="g225160"
     transform="matrix(0.35277776,0,0,-0.35277778,-1.4237098e-5,94.884878)"><g
       id="g225162"
       clip-path="url(#clipPath225166)"><path
         d="m 208.99886,44.325 h 4.24625 v 106.6013 h -4.24625 z"
         style="fill:#ff7f50;fill-opacity:1;fill-rule:nonzero;stroke:none"
         id="path225168" /></g></g><g
     id="g225170"
     transform="matrix(0.35277776,0,0,-0.35277778,-1.4237098e-5,94.884878)"><g
       id="g225172"
       clip-path="url(#clipPath225176)"><path
         d="m 219.61447,44.325 h 4.24625 v 40.610019 h -4.24625 z"
         style="fill:#ff7f50;fill-opacity:1;fill-rule:nonzero;stroke:none"
         id="path225178" /></g></g><g
     id="g225180"
     transform="matrix(0.35277776,0,0,-0.35277778,-1.4237098e-5,94.884878)"><g
       id="g225182"
       clip-path="url(#clipPath225186)"><path
         d="m 230.23008,44.325 h 4.24625 v 60.91503 h -4.24625 z"
         style="fill:#ff7f50;fill-opacity:1;fill-rule:nonzero;stroke:none"
         id="path225188" /></g></g><g
     id="g225190"
     transform="matrix(0.35277776,0,0,-0.35277778,-1.4237098e-5,94.884878)"><g
       id="g225192"
       clip-path="url(#clipPath225196)"><path
         d="m 240.84569,44.325 h 4.24625 v 111.67755 h -4.24625 z"
         style="fill:#ff7f50;fill-opacity:1;fill-rule:nonzero;stroke:none"
         id="path225198" /></g></g><g
     id="g225200"
     transform="matrix(0.35277776,0,0,-0.35277778,-1.4237098e-5,94.884878)"><g
       id="g225202"
       clip-path="url(#clipPath225206)"><path
         d="m 251.4613,44.325 h 4.24625 v 30.457514 h -4.24625 z"
         style="fill:#ff7f50;fill-opacity:1;fill-rule:nonzero;stroke:none"
         id="path225208" /></g></g><g
     id="g225210"
     transform="matrix(0.35277776,0,0,-0.35277778,-1.4237098e-5,94.884878)"><g
       id="g225212"
       clip-path="url(#clipPath225216)"><path
         d="m 262.07691,44.325 h 4.24624 v 45.686271 h -4.24624 z"
         style="fill:#ff7f50;fill-opacity:1;fill-rule:nonzero;stroke:none"
         id="path225218" /></g></g><g
     id="g225220"
     transform="matrix(0.35277776,0,0,-0.35277778,-1.4237098e-5,94.884878)"><g
       id="g225222"
       clip-path="url(#clipPath225226)"><path
         d="m 272.69252,44.325 h 4.24624 v 71.06753 h -4.24624 z"
         style="fill:#ff7f50;fill-opacity:1;fill-rule:nonzero;stroke:none"
         id="path225228" /></g></g><g
     id="g225230"
     transform="matrix(0.35277776,0,0,-0.35277778,-1.4237098e-5,94.884878)"><g
       id="g225232"
       clip-path="url(#clipPath225236)"><path
         d="m 283.30813,44.325 h 4.24624 v 20.305009 h -4.24624 z"
         style="fill:#ff7f50;fill-opacity:1;fill-rule:nonzero;stroke:none"
         id="path225238" /></g></g><g
     id="g225240"
     transform="matrix(0.35277776,0,0,-0.35277778,-1.4237098e-5,94.884878)"><g
       id="g225242"
       clip-path="url(#clipPath225246)"><path
         d="m 293.92374,44.325 h 4.24625 v 20.305009 h -4.24625 z"
         style="fill:#ff7f50;fill-opacity:1;fill-rule:nonzero;stroke:none"
         id="path225248" /></g></g><g
     id="g225250"
     transform="matrix(0.35277776,0,0,-0.35277778,-1.4237098e-5,94.884878)"><g
       id="g225252"
       clip-path="url(#clipPath225256)"><path
         d="m 304.53935,44.325 h 4.24624 v 5.076252 h -4.24624 z"
         style="fill:#ff7f50;fill-opacity:1;fill-rule:nonzero;stroke:none"
         id="path225258" /></g></g><g
     id="g225260"
     transform="matrix(0.35277776,0,0,-0.35277778,-1.4237098e-5,94.884878)"><g
       id="g225262"
       clip-path="url(#clipPath225266)"><path
         d="m 315.15496,44.325 h 4.24624 v 0 z"
         style="fill:#ff7f50;fill-opacity:1;fill-rule:nonzero;stroke:none"
         id="path225268" /></g></g><g
     id="g225270"
     transform="matrix(0.35277776,0,0,-0.35277778,-1.4237098e-5,94.884878)"><g
       id="g225272"
       clip-path="url(#clipPath225276)"><path
         d="m 325.77057,44.325 h 4.24624 v 5.076252 h -4.24624 z"
         style="fill:#ff7f50;fill-opacity:1;fill-rule:nonzero;stroke:none"
         id="path225278" /></g></g><g
     id="g225280"
     transform="matrix(0.35277776,0,0,-0.35277778,-1.4237098e-5,94.884878)"><g
       id="g225282"
       clip-path="url(#clipPath225286)"><path
         d="m 336.38618,44.325 h 4.24624 v 0 z"
         style="fill:#ff7f50;fill-opacity:1;fill-rule:nonzero;stroke:none"
         id="path225288" /></g></g><g
     id="g225290"
     transform="matrix(0.35277776,0,0,-0.35277778,-1.4237098e-5,94.884878)"><g
       id="g225292"
       clip-path="url(#clipPath225296)"><path
         d="m 347.00179,44.325 h 4.24624 v 0 z"
         style="fill:#ff7f50;fill-opacity:1;fill-rule:nonzero;stroke:none"
         id="path225298" /></g></g><g
     id="g225300"
     transform="matrix(0.35277776,0,0,-0.35277778,-1.4237098e-5,94.884878)"><g
       id="g225302"
       clip-path="url(#clipPath225306)"><path
         d="m 357.6174,44.325 h 4.24624 v 0 z"
         style="fill:#ff7f50;fill-opacity:1;fill-rule:nonzero;stroke:none"
         id="path225308" /></g></g><g
     id="g225310"
     transform="matrix(0.35277776,0,0,-0.35277778,-1.4237098e-5,94.884878)"><g
       id="g225312"
       clip-path="url(#clipPath225316)"><path
         d="m 368.23301,44.325 h 4.24624 v 0 z"
         style="fill:#ff7f50;fill-opacity:1;fill-rule:nonzero;stroke:none"
         id="path225318" /></g></g><g
     id="g225320"
     transform="matrix(0.35277776,0,0,-0.35277778,-1.4237098e-5,94.884878)"><g
       id="g225322"
       clip-path="url(#clipPath225326)"><path
         d="m 378.84862,44.325 h 4.24624 v 0 z"
         style="fill:#ff7f50;fill-opacity:1;fill-rule:nonzero;stroke:none"
         id="path225328" /></g></g><g
     id="g225330"
     transform="matrix(0.35277776,0,0,-0.35277778,-1.4237098e-5,94.884878)"><g
       id="g225332"
       clip-path="url(#clipPath225336)"><path
         d="m 389.46423,44.325 h 4.24624 v 0 z"
         style="fill:#ff7f50;fill-opacity:1;fill-rule:nonzero;stroke:none"
         id="path225338" /></g></g><g
     id="g225340"
     transform="matrix(0.35277776,0,0,-0.35277778,-1.4237098e-5,94.884878)"><g
       id="g225342"
       clip-path="url(#clipPath225346)"><path
         d="m 75.24218,44.325 h 4.246244 V 59.477613 H 75.24218 Z"
         style="fill:#2e8b57;fill-opacity:1;fill-rule:nonzero;stroke:none"
         id="path225348" /></g></g><g
     id="g225350"
     transform="matrix(0.35277776,0,0,-0.35277778,-1.4237098e-5,94.884878)"><g
       id="g225352"
       clip-path="url(#clipPath225356)"><path
         d="m 85.85779,44.325 h 4.246244 v 5.050871 H 85.85779 Z"
         style="fill:#2e8b57;fill-opacity:1;fill-rule:nonzero;stroke:none"
         id="path225358" /></g></g><g
     id="g225360"
     transform="matrix(0.35277776,0,0,-0.35277778,-1.4237098e-5,94.884878)"><g
       id="g225362"
       clip-path="url(#clipPath225366)"><path
         d="m 96.473399,44.325 h 4.246241 v 20.203484 h -4.246241 z"
         style="fill:#2e8b57;fill-opacity:1;fill-rule:nonzero;stroke:none"
         id="path225368" /></g></g><g
     id="g225370"
     transform="matrix(0.35277776,0,0,-0.35277778,-1.4237098e-5,94.884878)"><g
       id="g225372"
       clip-path="url(#clipPath225376)"><path
         d="m 107.08901,44.325 h 4.24624 v 50.508711 h -4.24624 z"
         style="fill:#2e8b57;fill-opacity:1;fill-rule:nonzero;stroke:none"
         id="path225378" /></g></g><g
     id="g225380"
     transform="matrix(0.35277776,0,0,-0.35277778,-1.4237098e-5,94.884878)"><g
       id="g225382"
       clip-path="url(#clipPath225386)"><path
         d="m 117.70462,44.325 h 4.24624 v 15.152613 h -4.24624 z"
         style="fill:#2e8b57;fill-opacity:1;fill-rule:nonzero;stroke:none"
         id="path225388" /></g></g><g
     id="g225390"
     transform="matrix(0.35277776,0,0,-0.35277778,-1.4237098e-5,94.884878)"><g
       id="g225392"
       clip-path="url(#clipPath225396)"><path
         d="m 128.32023,44.325 h 4.24624 v 50.508711 h -4.24624 z"
         style="fill:#2e8b57;fill-opacity:1;fill-rule:nonzero;stroke:none"
         id="path225398" /></g></g><g
     id="g225400"
     transform="matrix(0.35277776,0,0,-0.35277778,-1.4237098e-5,94.884878)"><g
       id="g225402"
       clip-path="url(#clipPath225406)"><path
         d="m 138.93584,44.325 h 4.24624 v 55.559582 h -4.24624 z"
         style="fill:#2e8b57;fill-opacity:1;fill-rule:nonzero;stroke:none"
         id="path225408" /></g></g><g
     id="g225410"
     transform="matrix(0.35277776,0,0,-0.35277778,-1.4237098e-5,94.884878)"><g
       id="g225412"
       clip-path="url(#clipPath225416)"><path
         d="m 149.55145,44.325 h 4.24624 v 65.66132 h -4.24624 z"
         style="fill:#2e8b57;fill-opacity:1;fill-rule:nonzero;stroke:none"
         id="path225418" /></g></g><g
     id="g225420"
     transform="matrix(0.35277776,0,0,-0.35277778,-1.4237098e-5,94.884878)"><g
       id="g225422"
       clip-path="url(#clipPath225426)"><path
         d="m 160.16706,44.325 h 4.24624 v 55.559582 h -4.24624 z"
         style="fill:#2e8b57;fill-opacity:1;fill-rule:nonzero;stroke:none"
         id="path225428" /></g></g><g
     id="g225430"
     transform="matrix(0.35277776,0,0,-0.35277778,-1.4237098e-5,94.884878)"><g
       id="g225432"
       clip-path="url(#clipPath225436)"><path
         d="m 170.78267,44.325 h 4.24624 v 207.08571 h -4.24624 z"
         style="fill:#2e8b57;fill-opacity:1;fill-rule:nonzero;stroke:none"
         id="path225438" /></g></g><g
     id="g225440"
     transform="matrix(0.35277776,0,0,-0.35277778,-1.4237098e-5,94.884878)"><g
       id="g225442"
       clip-path="url(#clipPath225446)"><path
         d="m 181.39828,44.325 h 4.24624 v 70.7122 h -4.24624 z"
         style="fill:#2e8b57;fill-opacity:1;fill-rule:nonzero;stroke:none"
         id="path225448" /></g></g><g
     id="g225450"
     transform="matrix(0.35277776,0,0,-0.35277778,-1.4237098e-5,94.884878)"><g
       id="g225452"
       clip-path="url(#clipPath225456)"><path
         d="m 192.01389,44.325 h 4.24624 v 70.7122 h -4.24624 z"
         style="fill:#2e8b57;fill-opacity:1;fill-rule:nonzero;stroke:none"
         id="path225458" /></g></g><g
     id="g225460"
     transform="matrix(0.35277776,0,0,-0.35277778,-1.4237098e-5,94.884878)"><g
       id="g225462"
       clip-path="url(#clipPath225466)"><path
         d="m 202.6295,44.325 h 4.24624 v 50.508711 h -4.24624 z"
         style="fill:#2e8b57;fill-opacity:1;fill-rule:nonzero;stroke:none"
         id="path225468" /></g></g><g
     id="g225470"
     transform="matrix(0.35277776,0,0,-0.35277778,-1.4237098e-5,94.884878)"><g
       id="g225472"
       clip-path="url(#clipPath225476)"><path
         d="m 213.24511,44.325 h 4.24624 v 111.11916 h -4.24624 z"
         style="fill:#2e8b57;fill-opacity:1;fill-rule:nonzero;stroke:none"
         id="path225478" /></g></g><g
     id="g225480"
     transform="matrix(0.35277776,0,0,-0.35277778,-1.4237098e-5,94.884878)"><g
       id="g225482"
       clip-path="url(#clipPath225486)"><path
         d="m 223.86072,44.325 h 4.24624 v 30.305226 h -4.24624 z"
         style="fill:#2e8b57;fill-opacity:1;fill-rule:nonzero;stroke:none"
         id="path225488" /></g></g><g
     id="g225490"
     transform="matrix(0.35277776,0,0,-0.35277778,-1.4237098e-5,94.884878)"><g
       id="g225492"
       clip-path="url(#clipPath225496)"><path
         d="m 234.47633,44.325 h 4.24624 v 55.559582 h -4.24624 z"
         style="fill:#2e8b57;fill-opacity:1;fill-rule:nonzero;stroke:none"
         id="path225498" /></g></g><g
     id="g225500"
     transform="matrix(0.35277776,0,0,-0.35277778,-1.4237098e-5,94.884878)"><g
       id="g225502"
       clip-path="url(#clipPath225506)"><path
         d="m 245.09194,44.325 h 4.24624 v 35.356098 h -4.24624 z"
         style="fill:#2e8b57;fill-opacity:1;fill-rule:nonzero;stroke:none"
         id="path225508" /></g></g><g
     id="g225510"
     transform="matrix(0.35277776,0,0,-0.35277778,-1.4237098e-5,94.884878)"><g
       id="g225512"
       clip-path="url(#clipPath225516)"><path
         d="m 255.70755,44.325 h 4.24624 v 5.050871 h -4.24624 z"
         style="fill:#2e8b57;fill-opacity:1;fill-rule:nonzero;stroke:none"
         id="path225518" /></g></g><g
     id="g225520"
     transform="matrix(0.35277776,0,0,-0.35277778,-1.4237098e-5,94.884878)"><g
       id="g225522"
       clip-path="url(#clipPath225526)"><path
         d="m 266.32315,44.325 h 4.24625 v 10.101742 h -4.24625 z"
         style="fill:#2e8b57;fill-opacity:1;fill-rule:nonzero;stroke:none"
         id="path225528" /></g></g><g
     id="g225530"
     transform="matrix(0.35277776,0,0,-0.35277778,-1.4237098e-5,94.884878)"><g
       id="g225532"
       clip-path="url(#clipPath225536)"><path
         d="m 276.93876,44.325 h 4.24625 v 10.101742 h -4.24625 z"
         style="fill:#2e8b57;fill-opacity:1;fill-rule:nonzero;stroke:none"
         id="path225538" /></g></g><g
     id="g225540"
     transform="matrix(0.35277776,0,0,-0.35277778,-1.4237098e-5,94.884878)"><g
       id="g225542"
       clip-path="url(#clipPath225546)"><path
         d="m 287.55437,44.325 h 4.24625 v 5.050871 h -4.24625 z"
         style="fill:#2e8b57;fill-opacity:1;fill-rule:nonzero;stroke:none"
         id="path225548" /></g></g><g
     id="g225550"
     transform="matrix(0.35277776,0,0,-0.35277778,-1.4237098e-5,94.884878)"><g
       id="g225552"
       clip-path="url(#clipPath225556)"><path
         d="m 298.16999,44.325 h 4.24624 v 10.101742 h -4.24624 z"
         style="fill:#2e8b57;fill-opacity:1;fill-rule:nonzero;stroke:none"
         id="path225558" /></g></g><g
     id="g225560"
     transform="matrix(0.35277776,0,0,-0.35277778,-1.4237098e-5,94.884878)"><g
       id="g225562"
       clip-path="url(#clipPath225566)"><path
         d="m 308.78559,44.325 h 4.24625 v 0 z"
         style="fill:#2e8b57;fill-opacity:1;fill-rule:nonzero;stroke:none"
         id="path225568" /></g></g><g
     id="g225570"
     transform="matrix(0.35277776,0,0,-0.35277778,-1.4237098e-5,94.884878)"><g
       id="g225572"
       clip-path="url(#clipPath225576)"><path
         d="m 319.4012,44.325 h 4.24625 v 5.050871 h -4.24625 z"
         style="fill:#2e8b57;fill-opacity:1;fill-rule:nonzero;stroke:none"
         id="path225578" /></g></g><g
     id="g225580"
     transform="matrix(0.35277776,0,0,-0.35277778,-1.4237098e-5,94.884878)"><g
       id="g225582"
       clip-path="url(#clipPath225586)"><path
         d="m 330.01681,44.325 h 4.24625 v 0 z"
         style="fill:#2e8b57;fill-opacity:1;fill-rule:nonzero;stroke:none"
         id="path225588" /></g></g><g
     id="g225590"
     transform="matrix(0.35277776,0,0,-0.35277778,-1.4237098e-5,94.884878)"><g
       id="g225592"
       clip-path="url(#clipPath225596)"><path
         d="m 340.63242,44.325 h 4.24625 v 0 z"
         style="fill:#2e8b57;fill-opacity:1;fill-rule:nonzero;stroke:none"
         id="path225598" /></g></g><g
     id="g225600"
     transform="matrix(0.35277776,0,0,-0.35277778,-1.4237098e-5,94.884878)"><g
       id="g225602"
       clip-path="url(#clipPath225606)"><path
         d="m 351.24803,44.325 h 4.24625 v 0 z"
         style="fill:#2e8b57;fill-opacity:1;fill-rule:nonzero;stroke:none"
         id="path225608" /></g></g><g
     id="g225610"
     transform="matrix(0.35277776,0,0,-0.35277778,-1.4237098e-5,94.884878)"><g
       id="g225612"
       clip-path="url(#clipPath225616)"><path
         d="m 361.86364,44.325 h 4.24625 v 0 z"
         style="fill:#2e8b57;fill-opacity:1;fill-rule:nonzero;stroke:none"
         id="path225618" /></g></g><g
     id="g225620"
     transform="matrix(0.35277776,0,0,-0.35277778,-1.4237098e-5,94.884878)"><g
       id="g225622"
       clip-path="url(#clipPath225626)"><path
         d="m 372.47925,44.325 h 4.24625 v 0 z"
         style="fill:#2e8b57;fill-opacity:1;fill-rule:nonzero;stroke:none"
         id="path225628" /></g></g><g
     id="g225630"
     transform="matrix(0.35277776,0,0,-0.35277778,-1.4237098e-5,94.884878)"><g
       id="g225632"
       clip-path="url(#clipPath225636)"><path
         d="m 383.09486,44.325 h 4.24625 v 0 z"
         style="fill:#2e8b57;fill-opacity:1;fill-rule:nonzero;stroke:none"
         id="path225638" /></g></g><g
     id="g225640"
     transform="matrix(0.35277776,0,0,-0.35277778,-1.4237098e-5,94.884878)"><g
       id="g225642"
       clip-path="url(#clipPath225646)"><path
         d="m 393.71047,44.325 h 4.24625 v 0 z"
         style="fill:#2e8b57;fill-opacity:1;fill-rule:nonzero;stroke:none"
         id="path225648" /></g></g><g
     id="g225650"
     transform="matrix(0.35277776,0,0,-0.35277778,-1.4237098e-5,94.884878)"
     style="stroke-width:1.98425;stroke-dasharray:none"><path
       d="m 118.9295,44.325 v -3.5"
       style="fill:#000000;fill-opacity:1;fill-rule:nonzero;stroke:#000000;stroke-width:1.98425;stroke-linecap:butt;stroke-linejoin:round;stroke-miterlimit:10;stroke-dasharray:none;stroke-opacity:1"
       id="path225652" /><g
       id="g225654"
       transform="translate(110.33575,27.075)"
       style="stroke-width:1.98425;stroke-dasharray:none"><text
         xml:space="preserve"
         transform="scale(1,-1)"
         style="font-variant:normal;font-weight:normal;font-size:13.5px;font-family:DejaVuSans;-inkscape-font-specification:DejaVuSans;writing-mode:lr-tb;fill:#000000;fill-opacity:1;fill-rule:nonzero;stroke:none;stroke-width:1.98425;stroke-dasharray:none"
         id="text225658"><tspan
           x="0 8.5860004"
           y="0"
           sodipodi:role="line"
           id="tspan225656">30</tspan></text></g><path
       d="m 200.58803,44.325 v -3.5"
       style="fill:#000000;fill-opacity:1;fill-rule:nonzero;stroke:#000000;stroke-width:1.98425;stroke-linecap:butt;stroke-linejoin:round;stroke-miterlimit:10;stroke-dasharray:none;stroke-opacity:1"
       id="path225660" /><g
       id="g225662"
       transform="translate(191.99428,27.075)"
       style="stroke-width:1.98425;stroke-dasharray:none"><text
         xml:space="preserve"
         transform="scale(1,-1)"
         style="font-variant:normal;font-weight:normal;font-size:13.5px;font-family:DejaVuSans;-inkscape-font-specification:DejaVuSans;writing-mode:lr-tb;fill:#000000;fill-opacity:1;fill-rule:nonzero;stroke:none;stroke-width:1.98425;stroke-dasharray:none"
         id="text225666"><tspan
           x="0 8.5860004"
           y="0"
           sodipodi:role="line"
           id="tspan225664">40</tspan></text></g><path
       d="m 282.24657,44.325 v -3.5"
       style="fill:#000000;fill-opacity:1;fill-rule:nonzero;stroke:#000000;stroke-width:1.98425;stroke-linecap:butt;stroke-linejoin:round;stroke-miterlimit:10;stroke-dasharray:none;stroke-opacity:1"
       id="path225668" /><g
       id="g225670"
       transform="translate(273.65282,27.075)"
       style="stroke-width:1.98425;stroke-dasharray:none"><text
         xml:space="preserve"
         transform="scale(1,-1)"
         style="font-variant:normal;font-weight:normal;font-size:13.5px;font-family:DejaVuSans;-inkscape-font-specification:DejaVuSans;writing-mode:lr-tb;fill:#000000;fill-opacity:1;fill-rule:nonzero;stroke:none;stroke-width:1.98425;stroke-dasharray:none"
         id="text225674"><tspan
           x="0 8.5860004"
           y="0"
           sodipodi:role="line"
           id="tspan225672">50</tspan></text></g><path
       d="m 363.90511,44.325 v -3.5"
       style="fill:#000000;fill-opacity:1;fill-rule:nonzero;stroke:#000000;stroke-width:1.98425;stroke-linecap:butt;stroke-linejoin:round;stroke-miterlimit:10;stroke-dasharray:none;stroke-opacity:1"
       id="path225676" /><g
       id="g225678"
       transform="translate(355.31136,27.075)"
       style="stroke-width:1.98425;stroke-dasharray:none"><text
         xml:space="preserve"
         transform="scale(1,-1)"
         style="font-variant:normal;font-weight:normal;font-size:13.5px;font-family:DejaVuSans;-inkscape-font-specification:DejaVuSans;writing-mode:lr-tb;fill:#000000;fill-opacity:1;fill-rule:nonzero;stroke:none;stroke-width:1.98425;stroke-dasharray:none"
         id="text225682"><tspan
           x="0 8.5860004"
           y="0"
           sodipodi:role="line"
           id="tspan225680">60</tspan></text></g><path
       d="m 69.934375,44.325 h -3.5"
       style="fill:#000000;fill-opacity:1;fill-rule:nonzero;stroke:#000000;stroke-width:1.98425;stroke-linecap:butt;stroke-linejoin:round;stroke-miterlimit:10;stroke-dasharray:none;stroke-opacity:1"
       id="path225690" /><g
       id="g225692"
       transform="translate(24.2625,39.2)"
       style="stroke-width:1.98425;stroke-dasharray:none"><text
         xml:space="preserve"
         transform="scale(1,-1)"
         style="font-variant:normal;font-weight:normal;font-size:13.5px;font-family:DejaVuSans;-inkscape-font-specification:DejaVuSans;writing-mode:lr-tb;fill:#000000;fill-opacity:1;fill-rule:nonzero;stroke:none;stroke-width:1.98425;stroke-dasharray:none"
         id="text225696"><tspan
           x="0 8.5860004 12.879 21.465 30.051001"
           y="0"
           sodipodi:role="line"
           id="tspan225694">0.000</tspan></text></g><path
       d="m 69.934375,77.155662 h -3.5"
       style="fill:#000000;fill-opacity:1;fill-rule:nonzero;stroke:#000000;stroke-width:1.98425;stroke-linecap:butt;stroke-linejoin:round;stroke-miterlimit:10;stroke-dasharray:none;stroke-opacity:1"
       id="path225698" /><g
       id="g225700"
       transform="translate(24.2625,72.030662)"
       style="stroke-width:1.98425;stroke-dasharray:none"><text
         xml:space="preserve"
         transform="scale(1,-1)"
         style="font-variant:normal;font-weight:normal;font-size:13.5px;font-family:DejaVuSans;-inkscape-font-specification:DejaVuSans;writing-mode:lr-tb;fill:#000000;fill-opacity:1;fill-rule:nonzero;stroke:none;stroke-width:1.98425;stroke-dasharray:none"
         id="text225704"><tspan
           x="0 8.5860004 12.879 21.465 30.051001"
           y="0"
           sodipodi:role="line"
           id="tspan225702">0.025</tspan></text></g><path
       d="m 69.934375,109.98632 h -3.5"
       style="fill:#000000;fill-opacity:1;fill-rule:nonzero;stroke:#000000;stroke-width:1.98425;stroke-linecap:butt;stroke-linejoin:round;stroke-miterlimit:10;stroke-dasharray:none;stroke-opacity:1"
       id="path225706" /><g
       id="g225708"
       transform="translate(24.2625,104.86132)"
       style="stroke-width:1.98425;stroke-dasharray:none"><text
         xml:space="preserve"
         transform="scale(1,-1)"
         style="font-variant:normal;font-weight:normal;font-size:13.5px;font-family:DejaVuSans;-inkscape-font-specification:DejaVuSans;writing-mode:lr-tb;fill:#000000;fill-opacity:1;fill-rule:nonzero;stroke:none;stroke-width:1.98425;stroke-dasharray:none"
         id="text225712"><tspan
           x="0 8.5860004 12.879 21.465 30.051001"
           y="0"
           sodipodi:role="line"
           id="tspan225710">0.050</tspan></text></g><path
       d="m 69.934375,142.81699 h -3.5"
       style="fill:#000000;fill-opacity:1;fill-rule:nonzero;stroke:#000000;stroke-width:1.98425;stroke-linecap:butt;stroke-linejoin:round;stroke-miterlimit:10;stroke-dasharray:none;stroke-opacity:1"
       id="path225714" /><g
       id="g225716"
       transform="translate(24.2625,137.69199)"
       style="stroke-width:1.98425;stroke-dasharray:none"><text
         xml:space="preserve"
         transform="scale(1,-1)"
         style="font-variant:normal;font-weight:normal;font-size:13.5px;font-family:DejaVuSans;-inkscape-font-specification:DejaVuSans;writing-mode:lr-tb;fill:#000000;fill-opacity:1;fill-rule:nonzero;stroke:none;stroke-width:1.98425;stroke-dasharray:none"
         id="text225720"><tspan
           x="0 8.5860004 12.879 21.465 30.051001"
           y="0"
           sodipodi:role="line"
           id="tspan225718">0.075</tspan></text></g><path
       d="m 69.934375,175.64765 h -3.5"
       style="fill:#000000;fill-opacity:1;fill-rule:nonzero;stroke:#000000;stroke-width:1.98425;stroke-linecap:butt;stroke-linejoin:round;stroke-miterlimit:10;stroke-dasharray:none;stroke-opacity:1"
       id="path225722" /><g
       id="g225724"
       transform="translate(24.2625,170.52265)"
       style="stroke-width:1.98425;stroke-dasharray:none"><text
         xml:space="preserve"
         transform="scale(1,-1)"
         style="font-variant:normal;font-weight:normal;font-size:13.5px;font-family:DejaVuSans;-inkscape-font-specification:DejaVuSans;writing-mode:lr-tb;fill:#000000;fill-opacity:1;fill-rule:nonzero;stroke:none;stroke-width:1.98425;stroke-dasharray:none"
         id="text225728"><tspan
           x="0 8.5860004 12.879 21.465 30.051001"
           y="0"
           sodipodi:role="line"
           id="tspan225726">0.100</tspan></text></g><path
       d="m 69.934375,208.47831 h -3.5"
       style="fill:#000000;fill-opacity:1;fill-rule:nonzero;stroke:#000000;stroke-width:1.98425;stroke-linecap:butt;stroke-linejoin:round;stroke-miterlimit:10;stroke-dasharray:none;stroke-opacity:1"
       id="path225730" /><g
       id="g225732"
       transform="translate(24.2625,203.35331)"
       style="stroke-width:1.98425;stroke-dasharray:none"><text
         xml:space="preserve"
         transform="scale(1,-1)"
         style="font-variant:normal;font-weight:normal;font-size:13.5px;font-family:DejaVuSans;-inkscape-font-specification:DejaVuSans;writing-mode:lr-tb;fill:#000000;fill-opacity:1;fill-rule:nonzero;stroke:none;stroke-width:1.98425;stroke-dasharray:none"
         id="text225736"><tspan
           x="0 8.5860004 12.879 21.465 30.051001"
           y="0"
           sodipodi:role="line"
           id="tspan225734">0.125</tspan></text></g><path
       d="m 69.934375,241.30897 h -3.5"
       style="fill:#000000;fill-opacity:1;fill-rule:nonzero;stroke:#000000;stroke-width:1.98425;stroke-linecap:butt;stroke-linejoin:round;stroke-miterlimit:10;stroke-dasharray:none;stroke-opacity:1"
       id="path225738" /><g
       id="g225740"
       transform="translate(24.2625,236.18397)"
       style="stroke-width:1.98425;stroke-dasharray:none"><text
         xml:space="preserve"
         transform="scale(1,-1)"
         style="font-variant:normal;font-weight:normal;font-size:13.5px;font-family:DejaVuSans;-inkscape-font-specification:DejaVuSans;writing-mode:lr-tb;fill:#000000;fill-opacity:1;fill-rule:nonzero;stroke:none;stroke-width:1.98425;stroke-dasharray:none"
         id="text225744"><tspan
           x="0 8.5860004 12.879 21.465 30.051001"
           y="0"
           sodipodi:role="line"
           id="tspan225742">0.150</tspan></text></g><path
       d="m 69.934375,44.325 v 217.44"
       style="fill:none;stroke:#000000;stroke-width:1.98425;stroke-linecap:square;stroke-linejoin:miter;stroke-miterlimit:10;stroke-dasharray:none;stroke-opacity:1"
       id="path225752" /><path
       d="m 404.73437,44.325 v 217.44"
       style="fill:none;stroke:#000000;stroke-width:1.98425;stroke-linecap:square;stroke-linejoin:miter;stroke-miterlimit:10;stroke-dasharray:none;stroke-opacity:1"
       id="path225754" /><path
       d="M 69.934375,44.325 H 404.73437"
       style="fill:none;stroke:#000000;stroke-width:1.98425;stroke-linecap:square;stroke-linejoin:miter;stroke-miterlimit:10;stroke-dasharray:none;stroke-opacity:1"
       id="path225756" /><path
       d="M 69.934375,261.765 H 404.73437"
       style="fill:none;stroke:#000000;stroke-width:1.98425;stroke-linecap:square;stroke-linejoin:miter;stroke-miterlimit:10;stroke-dasharray:none;stroke-opacity:1"
       id="path225758" /><path
       d="m 184.38437,191.5275 h 210.9 c 1.8,0 2.7,0.9 2.7,2.7 v 58.0875 c 0,1.8 -0.9,2.7 -2.7,2.7 h -210.9 c -1.8,0 -2.7,-0.9 -2.7,-2.7 v -58.0875 c 0,-1.8 0.9,-2.7 2.7,-2.7 z"
       style="fill:#ffffff;fill-opacity:0.8;fill-rule:nonzero;stroke:#cccccc;stroke-width:1.98425;stroke-linecap:butt;stroke-linejoin:miter;stroke-miterlimit:10;stroke-dasharray:none;stroke-opacity:0.8"
       id="path225760" /><g
       id="g225762"
       transform="translate(187.08437,239.365)"
       style="stroke-width:1.98425;stroke-dasharray:none"><g
         aria-label="Average number of transitions"
         transform="scale(1,-1)"
         id="text225766"
         style="font-size:13.5px;font-family:DejaVuSans;-inkscape-font-specification:DejaVuSans;stroke-width:1.98425;stroke-dasharray:none"><path
           d="M 9.0571289,0 H 7.6662598 L 6.7038574,-2.7355957 H 2.4587402 L 1.4963379,0 H 0.17138672 L 3.7441406,-9.8151855 H 5.484375 Z M 6.3017578,-3.8562012 4.5812988,-8.6748047 2.854248,-3.8562012 Z"
           id="path227368"
           style="stroke-width:1.98425;stroke-dasharray:none" /><path
           d="M 16.039908,-7.3630371 13.060416,0 H 11.814567 L 8.8548498,-7.3630371 h 1.3447262 l 2.280762,5.8601074 2.260986,-5.8601074 z"
           id="path227370"
           style="stroke-width:1.98425;stroke-dasharray:none" /><path
           d="m 23.827562,-3.5529785 h -5.425048 q 0,0.6789551 0.204345,1.1865234 0.204346,0.5009766 0.560303,0.8239746 0.342773,0.3164063 0.810791,0.4746094 0.474609,0.15820313 1.041504,0.15820313 0.751465,0 1.509521,-0.29663083 0.764649,-0.3032227 1.087647,-0.5932617 h 0.06592 v 1.35131831 q -0.626221,0.26367188 -1.278809,0.44165039 -0.652588,0.17797852 -1.371094,0.17797852 -1.832519,0 -2.860839,-0.98876953 -1.028321,-0.99536129 -1.028321,-2.82128909 0,-1.8061523 0.982178,-2.8674316 0.98877,-1.0612793 2.597168,-1.0612793 1.489746,0 2.293945,0.8701172 0.810791,0.8701172 0.810791,2.4719238 z m -1.206298,-0.9492188 q -0.0066,-0.9755859 -0.494385,-1.5095214 -0.481201,-0.5339356 -1.469971,-0.5339356 -0.995361,0 -1.588623,0.5866699 -0.58667,0.5866699 -0.665771,1.4567871 z"
           id="path227372"
           style="stroke-width:1.98425;stroke-dasharray:none" /><path
           d="m 30.561214,-6.0117187 h -0.06592 q -0.276855,-0.065918 -0.540527,-0.092285 -0.25708,-0.032959 -0.613037,-0.032959 -0.573486,0 -1.107422,0.2570801 -0.533935,0.2504883 -1.02832,0.6525879 V 0 H 25.96673 v -7.3630371 h 1.239258 v 1.0876465 q 0.738281,-0.5932617 1.298584,-0.8371582 0.566894,-0.2504883 1.153564,-0.2504883 0.322998,0 0.468018,0.019775 0.145019,0.013184 0.435058,0.059326 z"
           id="path227374"
           style="stroke-width:1.98425;stroke-dasharray:none" /><path
           d="m 37.236912,0 h -1.232666 v -0.78442383 q -0.164795,0.11206055 -0.448242,0.31640625 -0.276856,0.19775391 -0.540528,0.31640625 Q 34.705662,0 34.303562,0.09887695 33.901463,0.2043457 33.360935,0.2043457 q -0.995361,0 -1.6875,-0.65917968 -0.692138,-0.65917972 -0.692138,-1.68090822 0,-0.8371582 0.355957,-1.3513183 0.362548,-0.520752 1.02832,-0.8173829 0.672363,-0.2966308 1.61499,-0.4020996 0.942627,-0.1054687 2.023682,-0.1582031 v -0.1911621 q 0,-0.421875 -0.151612,-0.6987305 -0.145019,-0.2768554 -0.421875,-0.4350586 -0.263671,-0.1516113 -0.632812,-0.2043457 -0.369141,-0.052734 -0.77124,-0.052734 -0.487793,0 -1.087647,0.1318359 -0.599853,0.1252441 -1.239258,0.3691406 h -0.06592 V -7.204834 q 0.362549,-0.098877 1.048096,-0.2175293 0.685547,-0.1186523 1.351318,-0.1186523 0.777833,0 1.351319,0.1318359 0.580078,0.1252442 1.001953,0.4350586 0.415283,0.3032227 0.632812,0.7844238 0.21753,0.4812012 0.21753,1.1931153 z M 36.004246,-1.8127441 V -3.862793 q -0.566895,0.032959 -1.338135,0.098877 -0.764648,0.065918 -1.212891,0.1911621 -0.533935,0.1516113 -0.863525,0.4746094 -0.32959,0.3164062 -0.32959,0.876709 0,0.6328125 0.382324,0.9558105 0.382325,0.31640625 1.166748,0.31640625 0.652588,0 1.193116,-0.25048825 0.540527,-0.2570801 1.001953,-0.6130371 z"
           id="path227376"
           style="stroke-width:1.98425;stroke-dasharray:none" /><path
           d="m 45.762901,-0.8371582 q 0,1.8720703 -0.850341,2.7487793 -0.850342,0.876709 -2.616944,0.876709 -0.58667,0 -1.146973,-0.085693 -0.55371,-0.079101 -1.094238,-0.2307129 v -1.265625 h 0.06592 q 0.303223,0.1186524 0.962403,0.2900391 0.659179,0.1779785 1.318359,0.1779785 0.632812,0 1.048096,-0.1516113 0.415283,-0.1516114 0.645996,-0.421875 0.230713,-0.2570801 0.32959,-0.61962893 0.09888,-0.36254883 0.09888,-0.81079101 V -1.0019531 q -0.560302,0.44824216 -1.074462,0.67236326 -0.507569,0.21752929 -1.298584,0.21752929 -1.31836,0 -2.096192,-0.94921875 -0.77124,-0.9558105 -0.77124,-2.6894531 0,-0.9492188 0.263672,-1.6347656 0.270264,-0.6921387 0.731689,-1.1931153 0.428467,-0.4680176 1.041504,-0.7250976 0.613037,-0.2636719 1.219483,-0.2636719 0.639404,0 1.067871,0.1318359 0.435058,0.1252442 0.916259,0.388916 l 0.0791,-0.3164062 h 1.160156 z m -1.239258,-1.1865234 v -4.0144043 q -0.494384,-0.2241211 -0.922851,-0.3164063 -0.421875,-0.098877 -0.84375,-0.098877 -1.021729,0 -1.608399,0.6855468 -0.586669,0.6855469 -0.586669,1.9907227 0,1.2392578 0.435058,1.8786621 0.435059,0.6394043 1.443604,0.6394043 0.540527,0 1.081054,-0.2043457 0.54712,-0.2109375 1.001953,-0.5603026 z"
           id="path227378"
           style="stroke-width:1.98425;stroke-dasharray:none" /><path
           d="m 54.526562,-3.5529785 h -5.425049 q 0,0.6789551 0.204346,1.1865234 0.204345,0.5009766 0.560302,0.8239746 0.342774,0.3164063 0.810791,0.4746094 0.47461,0.15820313 1.041504,0.15820313 0.751465,0 1.509522,-0.29663083 0.764648,-0.3032227 1.087646,-0.5932617 h 0.06592 v 1.35131831 q -0.62622,0.26367188 -1.278808,0.44165039 -0.652588,0.17797852 -1.371094,0.17797852 -1.83252,0 -2.86084,-0.98876953 -1.02832,-0.99536129 -1.02832,-2.82128909 0,-1.8061523 0.982177,-2.8674316 0.98877,-1.0612793 2.597168,-1.0612793 1.489747,0 2.293946,0.8701172 0.810791,0.8701172 0.810791,2.4719238 z m -1.206299,-0.9492188 q -0.0066,-0.9755859 -0.494385,-1.5095214 -0.481201,-0.5339356 -1.469971,-0.5339356 -0.995361,0 -1.588623,0.5866699 -0.58667,0.5866699 -0.665771,1.4567871 z"
           id="path227380"
           style="stroke-width:1.98425;stroke-dasharray:none" /><path
           d="m 67.115471,0 h -1.239258 v -4.1923828 q 0,-0.5075684 -0.05933,-0.9492188 -0.05933,-0.4482421 -0.217529,-0.6987304 -0.164795,-0.2768555 -0.47461,-0.4086914 -0.309814,-0.1384278 -0.804199,-0.1384278 -0.507568,0 -1.061279,0.2504883 -0.553711,0.2504883 -1.06128,0.6394043 V 0 h -1.239257 v -7.3630371 h 1.239257 v 0.8173828 q 0.580079,-0.4812012 1.199707,-0.7514648 0.619629,-0.2702637 1.272217,-0.2702637 1.193115,0 1.819336,0.7185058 0.626221,0.7185059 0.626221,2.0698243 z"
           id="path227382"
           style="stroke-width:1.98425;stroke-dasharray:none" /><path
           d="m 75.621735,0 h -1.239258 v -0.81738281 q -0.626221,0.49438476 -1.199707,0.75805664 -0.573487,0.26367187 -1.265625,0.26367187 -1.160156,0 -1.806153,-0.70532226 -0.645996,-0.71191404 -0.645996,-2.08300784 v -4.7790527 h 1.239258 v 4.1923828 q 0,0.5603027 0.05273,0.9624023 0.05273,0.3955079 0.224121,0.6789551 0.177978,0.2900391 0.461425,0.421875 0.283448,0.13183596 0.823975,0.13183596 0.481201,0 1.048096,-0.25048826 0.573486,-0.2504883 1.067871,-0.6394043 v -5.4975586 h 1.239258 z"
           id="path227384"
           style="stroke-width:1.98425;stroke-dasharray:none" /><path
           d="M 88.821358,0 H 87.5821 v -4.1923828 q 0,-0.4746094 -0.04614,-0.9162598 -0.03955,-0.4416504 -0.177978,-0.7053222 -0.151612,-0.2834473 -0.435059,-0.4284668 -0.283447,-0.1450196 -0.817383,-0.1450196 -0.520752,0 -1.041503,0.2636719 -0.520752,0.2570801 -1.041504,0.6591797 0.01977,0.1516113 0.03296,0.355957 0.01318,0.1977539 0.01318,0.3955078 V 0 h -1.239258 v -4.1923828 q 0,-0.487793 -0.04614,-0.9228516 -0.03955,-0.4416504 -0.177979,-0.7053222 -0.151611,-0.2834473 -0.435058,-0.421875 -0.283448,-0.1450196 -0.817383,-0.1450196 -0.507568,0 -1.021729,0.2504883 -0.507568,0.2504883 -1.015136,0.6394043 V 0 h -1.239258 v -7.3630371 h 1.239258 v 0.8173828 q 0.580078,-0.4812012 1.153564,-0.7514648 0.580078,-0.2702637 1.232666,-0.2702637 0.751465,0 1.272217,0.3164062 0.527344,0.3164063 0.784424,0.876709 0.751465,-0.6328125 1.371093,-0.9096679 0.619629,-0.2834473 1.324952,-0.2834473 1.21289,0 1.786377,0.7382812 0.580078,0.7316895 0.580078,2.0500489 z"
           id="path227386"
           style="stroke-width:1.98425;stroke-dasharray:none" /><path
           d="m 97.705467,-3.7375488 q 0,0.9228515 -0.263672,1.6611328 -0.25708,0.7382812 -0.69873,1.2392578 -0.468018,0.52075195 -1.02832,0.78442383 -0.560303,0.25708007 -1.232666,0.25708007 -0.626221,0 -1.094239,-0.15161133 -0.468017,-0.14501953 -0.922851,-0.39550781 L 92.385887,0 h -1.160156 v -10.256836 h 1.239258 v 3.6650391 q 0.520752,-0.4284668 1.107422,-0.6987304 0.58667,-0.2768555 1.318359,-0.2768555 1.305176,0 2.056641,1.0019531 0.758056,1.0019531 0.758056,2.8278809 z m -1.278808,0.032959 q 0,-1.3183594 -0.435059,-1.9973145 -0.435059,-0.6855469 -1.404053,-0.6855469 -0.540527,0 -1.094238,0.2373047 -0.553711,0.2307129 -1.02832,0.5998535 v 4.21875 q 0.527343,0.2373047 0.903076,0.3295899 0.382324,0.0922851 0.863525,0.0922851 1.028321,0 1.608399,-0.6723632 0.58667,-0.6789551 0.58667,-2.1225586 z"
           id="path227388"
           style="stroke-width:1.98425;stroke-dasharray:none" /><path
           d="m 105.96156,-3.5529785 h -5.42505 q 0,0.6789551 0.20435,1.1865234 0.20435,0.5009766 0.5603,0.8239746 0.34278,0.3164063 0.81079,0.4746094 0.47461,0.15820313 1.04151,0.15820313 0.75146,0 1.50952,-0.29663083 0.76465,-0.3032227 1.08765,-0.5932617 h 0.0659 v 1.35131831 q -0.62622,0.26367188 -1.27881,0.44165039 -0.65258,0.17797852 -1.37109,0.17797852 -1.83252,0 -2.86084,-0.98876953 -1.028319,-0.99536129 -1.028319,-2.82128909 0,-1.8061523 0.982179,-2.8674316 0.98877,-1.0612793 2.59717,-1.0612793 1.48974,0 2.29394,0.8701172 0.81079,0.8701172 0.81079,2.4719238 z m -1.2063,-0.9492188 q -0.007,-0.9755859 -0.49438,-1.5095214 -0.4812,-0.5339356 -1.46997,-0.5339356 -0.99536,0 -1.58862,0.5866699 -0.58667,0.5866699 -0.66578,1.4567871 z"
           id="path227390"
           style="stroke-width:1.98425;stroke-dasharray:none" /><path
           d="m 112.69521,-6.0117187 h -0.0659 q -0.27686,-0.065918 -0.54053,-0.092285 -0.25708,-0.032959 -0.61304,-0.032959 -0.57349,0 -1.10742,0.2570801 -0.53394,0.2504883 -1.02832,0.6525879 V 0 h -1.23926 V -7.3630371 H 109.34 v 1.0876465 q 0.73828,-0.5932617 1.29858,-0.8371582 0.5669,-0.2504883 1.15357,-0.2504883 0.323,0 0.46801,0.019775 0.14502,0.013184 0.43506,0.059326 z"
           id="path227392"
           style="stroke-width:1.98425;stroke-dasharray:none" /><path
           d="m 124.21762,-3.6782227 q 0,1.7995606 -0.92285,2.8410645 -0.92285,1.0415039 -2.47192,1.0415039 -1.56226,0 -2.48511,-1.0415039 -0.91626,-1.0415039 -0.91626,-2.8410645 0,-1.7995605 0.91626,-2.8410644 0.92285,-1.0480957 2.48511,-1.0480957 1.54907,0 2.47192,1.0480957 0.92285,1.0415039 0.92285,2.8410644 z m -1.27881,0 q 0,-1.4304199 -0.5603,-2.1225585 -0.5603,-0.6987305 -1.55566,-0.6987305 -1.00855,0 -1.56885,0.6987305 -0.55371,0.6921386 -0.55371,2.1225585 0,1.3842774 0.5603,2.1027832 0.5603,0.71191411 1.56226,0.71191411 0.98876,0 1.54907,-0.70532231 0.56689,-0.711914 0.56689,-2.109375 z"
           id="path227394"
           style="stroke-width:1.98425;stroke-dasharray:none" /><path
           d="M 130.1659,-9.0571289 H 130.1 q -0.20434,-0.059326 -0.53393,-0.1186524 -0.32959,-0.065918 -0.58008,-0.065918 -0.79761,0 -1.16016,0.355957 -0.35595,0.3493652 -0.35595,1.2722168 v 0.2504883 h 2.23462 v 1.0415039 h -2.19507 V 0 h -1.23926 v -6.3215332 h -0.83716 v -1.0415039 h 0.83716 v -0.2438965 q 0,-1.3117676 0.65259,-2.010498 0.65259,-0.7053224 1.88525,-0.7053224 0.41528,0 0.74487,0.03955 0.33619,0.03955 0.61304,0.09229 z"
           id="path227396"
           style="stroke-width:1.98425;stroke-dasharray:none" /><path
           d="m 139.07248,-0.06591797 q -0.34937,0.09228516 -0.76465,0.15161133 -0.40869,0.05932617 -0.73169,0.05932617 -1.1272,0 -1.71387,-0.60644531 -0.58667,-0.60644532 -0.58667,-1.94458012 v -3.9155273 h -0.83715 v -1.0415039 h 0.83715 v -2.1159668 h 1.23926 v 2.1159668 h 2.55762 v 1.0415039 h -2.55762 v 3.3552246 q 0,0.5800781 0.0264,0.909668 0.0264,0.322998 0.18457,0.6064453 0.14502,0.2636719 0.39551,0.388916 0.25708,0.11865235 0.77783,0.11865235 0.30322,0 0.63281,-0.0856934 0.32959,-0.092285 0.47461,-0.1516113 h 0.0659 z"
           id="path227398"
           style="stroke-width:1.98425;stroke-dasharray:none" /><path
           d="m 145.13571,-6.0117187 h -0.0659 q -0.27685,-0.065918 -0.54052,-0.092285 -0.25708,-0.032959 -0.61304,-0.032959 -0.57349,0 -1.10742,0.2570801 -0.53394,0.2504883 -1.02832,0.6525879 V 0 h -1.23926 v -7.3630371 h 1.23926 v 1.0876465 q 0.73828,-0.5932617 1.29858,-0.8371582 0.5669,-0.2504883 1.15357,-0.2504883 0.32299,0 0.46801,0.019775 0.14502,0.013184 0.43506,0.059326 z"
           id="path227400"
           style="stroke-width:1.98425;stroke-dasharray:none" /><path
           d="m 151.81142,0 h -1.23267 v -0.78442383 q -0.16479,0.11206055 -0.44824,0.31640625 -0.27686,0.19775391 -0.54053,0.31640625 Q 149.28017,0 148.87807,0.09887695 q -0.4021,0.10546875 -0.94263,0.10546875 -0.99536,0 -1.6875,-0.65917968 -0.69214,-0.65917972 -0.69214,-1.68090822 0,-0.8371582 0.35596,-1.3513183 0.36255,-0.520752 1.02832,-0.8173829 0.67236,-0.2966308 1.61499,-0.4020996 0.94263,-0.1054687 2.02368,-0.1582031 v -0.1911621 q 0,-0.421875 -0.15161,-0.6987305 -0.14502,-0.2768554 -0.42188,-0.4350586 -0.26367,-0.1516113 -0.63281,-0.2043457 -0.36914,-0.052734 -0.77124,-0.052734 -0.48779,0 -1.08764,0.1318359 -0.59986,0.1252441 -1.23926,0.3691406 h -0.0659 V -7.204834 q 0.36255,-0.098877 1.04809,-0.2175293 0.68555,-0.1186523 1.35132,-0.1186523 0.77784,0 1.35132,0.1318359 0.58008,0.1252442 1.00195,0.4350586 0.41529,0.3032227 0.63282,0.7844238 0.21753,0.4812012 0.21753,1.1931153 z m -1.23267,-1.8127441 V -3.862793 q -0.56689,0.032959 -1.33813,0.098877 -0.76465,0.065918 -1.21289,0.1911621 -0.53394,0.1516113 -0.86353,0.4746094 -0.32959,0.3164062 -0.32959,0.876709 0,0.6328125 0.38232,0.9558105 0.38233,0.31640625 1.16675,0.31640625 0.65259,0 1.19312,-0.25048825 0.54052,-0.2570801 1.00195,-0.6130371 z"
           id="path227402"
           style="stroke-width:1.98425;stroke-dasharray:none" /><path
           d="m 160.52197,0 h -1.23926 v -4.1923828 q 0,-0.5075684 -0.0593,-0.9492188 -0.0593,-0.4482421 -0.21753,-0.6987304 -0.1648,-0.2768555 -0.47461,-0.4086914 -0.30981,-0.1384278 -0.8042,-0.1384278 -0.50757,0 -1.06128,0.2504883 -0.55371,0.2504883 -1.06128,0.6394043 V 0 h -1.23926 v -7.3630371 h 1.23926 v 0.8173828 q 0.58008,-0.4812012 1.19971,-0.7514648 0.61963,-0.2702637 1.27222,-0.2702637 1.19311,0 1.81933,0.7185058 0.62622,0.7185059 0.62622,2.0698243 z"
           id="path227404"
           style="stroke-width:1.98425;stroke-dasharray:none" /><path
           d="m 168.18448,-2.1225586 q 0,1.0085449 -0.83716,1.65454102 -0.83057,0.6459961 -2.27417,0.6459961 -0.81738,0 -1.50293,-0.19116211 -0.67895,-0.19775391 -1.14038,-0.4284668 V -1.8325195 h 0.0659 q 0.58667,0.4416504 1.30517,0.7053222 0.71851,0.25708011 1.37769,0.25708011 0.81738,0 1.27881,-0.26367191 0.46142,-0.2636718 0.46142,-0.8305664 0,-0.4350586 -0.25048,-0.6591797 -0.25049,-0.2241211 -0.96241,-0.3823242 -0.26367,-0.059326 -0.69214,-0.1384277 -0.42187,-0.079102 -0.77124,-0.1713867 -0.96899,-0.2570801 -1.37768,-0.7514649 -0.4021,-0.5009765 -0.4021,-1.2260742 0,-0.454834 0.18457,-0.8569336 0.19116,-0.4020996 0.57349,-0.7185058 0.36914,-0.3098145 0.93603,-0.487793 0.57349,-0.1845703 1.27881,-0.1845703 0.65918,0 1.33154,0.1647949 0.67896,0.1582031 1.1272,0.388916 v 1.3249512 h -0.0659 q -0.47461,-0.3493652 -1.15356,-0.5866699 -0.67896,-0.2438965 -1.33155,-0.2438965 -0.67895,0 -1.14697,0.2636719 -0.46802,0.25708 -0.46802,0.7712402 0,0.454834 0.28345,0.6855469 0.27686,0.2307129 0.89649,0.3757324 0.34277,0.079102 0.76464,0.1582031 0.42847,0.079102 0.71192,0.1450195 0.86352,0.1977539 1.33154,0.6789551 0.46802,0.487793 0.46802,1.2919922 z"
           id="path227406"
           style="stroke-width:1.98425;stroke-dasharray:none" /><path
           d="m 171.28928,-8.5957031 h -1.39746 v -1.2854004 h 1.39746 z M 171.21017,0 h -1.23925 v -7.3630371 h 1.23925 z"
           id="path227408"
           style="stroke-width:1.98425;stroke-dasharray:none" /><path
           d="m 177.53398,-0.06591797 q -0.34936,0.09228516 -0.76465,0.15161133 -0.40869,0.05932617 -0.73169,0.05932617 -1.12719,0 -1.71386,-0.60644531 -0.58667,-0.60644532 -0.58667,-1.94458012 v -3.9155273 h -0.83716 v -1.0415039 h 0.83716 v -2.1159668 h 1.23925 v 2.1159668 h 2.55762 v 1.0415039 h -2.55762 v 3.3552246 q 0,0.5800781 0.0264,0.909668 0.0264,0.322998 0.18457,0.6064453 0.14502,0.2636719 0.39551,0.388916 0.25708,0.11865235 0.77783,0.11865235 0.30322,0 0.63281,-0.0856934 0.32959,-0.092285 0.47461,-0.1516113 h 0.0659 z"
           id="path227410"
           style="stroke-width:1.98425;stroke-dasharray:none" /><path
           d="m 180.33427,-8.5957031 h -1.39746 v -1.2854004 h 1.39746 z M 180.25517,0 h -1.23926 v -7.3630371 h 1.23926 z"
           id="path227412"
           style="stroke-width:1.98425;stroke-dasharray:none" /><path
           d="m 189.03113,-3.6782227 q 0,1.7995606 -0.92285,2.8410645 -0.92286,1.0415039 -2.47193,1.0415039 -1.56225,0 -2.4851,-1.0415039 -0.91626,-1.0415039 -0.91626,-2.8410645 0,-1.7995605 0.91626,-2.8410644 0.92285,-1.0480957 2.4851,-1.0480957 1.54907,0 2.47193,1.0480957 0.92285,1.0415039 0.92285,2.8410644 z m -1.27881,0 q 0,-1.4304199 -0.5603,-2.1225585 -0.56031,-0.6987305 -1.55567,-0.6987305 -1.00854,0 -1.56885,0.6987305 -0.55371,0.6921386 -0.55371,2.1225585 0,1.3842774 0.56031,2.1027832 0.5603,0.71191411 1.56225,0.71191411 0.98877,0 1.54907,-0.70532231 0.5669,-0.711914 0.5669,-2.109375 z"
           id="path227414"
           style="stroke-width:1.98425;stroke-dasharray:none" /><path
           d="m 197.17447,0 h -1.23926 v -4.1923828 q 0,-0.5075684 -0.0593,-0.9492188 -0.0593,-0.4482421 -0.21753,-0.6987304 -0.1648,-0.2768555 -0.47461,-0.4086914 -0.30982,-0.1384278 -0.8042,-0.1384278 -0.50757,0 -1.06128,0.2504883 -0.55371,0.2504883 -1.06128,0.6394043 V 0 h -1.23926 v -7.3630371 h 1.23926 v 0.8173828 q 0.58008,-0.4812012 1.19971,-0.7514648 0.61962,-0.2702637 1.27221,-0.2702637 1.19312,0 1.81934,0.7185058 0.62622,0.7185059 0.62622,2.0698243 z"
           id="path227416"
           style="stroke-width:1.98425;stroke-dasharray:none" /><path
           d="m 204.83699,-2.1225586 q 0,1.0085449 -0.83716,1.65454102 -0.83056,0.6459961 -2.27417,0.6459961 -0.81738,0 -1.50293,-0.19116211 -0.67895,-0.19775391 -1.14038,-0.4284668 V -1.8325195 h 0.0659 q 0.58667,0.4416504 1.30518,0.7053222 0.7185,0.25708011 1.37768,0.25708011 0.81738,0 1.27881,-0.26367191 0.46143,-0.2636718 0.46143,-0.8305664 0,-0.4350586 -0.25049,-0.6591797 -0.25049,-0.2241211 -0.96241,-0.3823242 -0.26367,-0.059326 -0.69213,-0.1384277 -0.42188,-0.079102 -0.77124,-0.1713867 -0.969,-0.2570801 -1.37769,-0.7514649 -0.4021,-0.5009765 -0.4021,-1.2260742 0,-0.454834 0.18457,-0.8569336 0.19116,-0.4020996 0.57349,-0.7185058 0.36914,-0.3098145 0.93603,-0.487793 0.57349,-0.1845703 1.27881,-0.1845703 0.65918,0 1.33154,0.1647949 0.67896,0.1582031 1.1272,0.388916 v 1.3249512 h -0.0659 q -0.47461,-0.3493652 -1.15356,-0.5866699 -0.67896,-0.2438965 -1.33154,-0.2438965 -0.67896,0 -1.14698,0.2636719 -0.46801,0.25708 -0.46801,0.7712402 0,0.454834 0.28344,0.6855469 0.27686,0.2307129 0.89649,0.3757324 0.34277,0.079102 0.76465,0.1582031 0.42846,0.079102 0.71191,0.1450195 0.86353,0.1977539 1.33154,0.6789551 0.46802,0.487793 0.46802,1.2919922 z"
           id="path227418"
           style="stroke-width:1.98425;stroke-dasharray:none" /></g></g><path
       d="m 226.2,219.5525 h 27 v 9.45 h -27 z"
       style="fill:#ff7f50;fill-opacity:1;fill-rule:nonzero;stroke:none;stroke-width:1.98425;stroke-dasharray:none"
       id="path225768" /><g
       id="g225770"
       transform="translate(264,219.5525)"
       style="stroke-width:1.98425;stroke-dasharray:none"><g
         aria-label="True: 41"
         transform="scale(1,-1)"
         id="text225774"
         style="font-size:13.5px;font-family:DejaVuSans;-inkscape-font-specification:DejaVuSans;stroke-width:1.98425;stroke-dasharray:none"><path
           d="M 8.3188477,-8.6550293 H 4.8120117 V 0 H 3.5068359 V -8.6550293 H 0 v -1.1601562 h 8.3188477 z"
           id="path227421"
           style="stroke-width:1.98425;stroke-dasharray:none" /><path
           d="m 12.07809,-6.0117187 h -0.06592 q -0.276856,-0.065918 -0.540528,-0.092285 -0.25708,-0.032959 -0.613037,-0.032959 -0.573486,0 -1.1074216,0.2570801 -0.5339355,0.2504883 -1.0283203,0.6525879 V 0 H 7.4836073 v -7.3630371 h 1.2392578 v 1.0876465 q 0.7382813,-0.5932617 1.2985839,-0.8371582 0.566895,-0.2504883 1.153565,-0.2504883 0.322998,0 0.468017,0.019775 0.14502,0.013184 0.435059,0.059326 z"
           id="path227423"
           style="stroke-width:1.98425;stroke-dasharray:none" /><path
           d="m 19.136111,0 h -1.239258 v -0.81738281 q -0.62622,0.49438476 -1.199707,0.75805664 -0.573486,0.26367187 -1.265625,0.26367187 -1.160156,0 -1.806152,-0.70532226 -0.645996,-0.71191404 -0.645996,-2.08300784 v -4.7790527 h 1.239258 v 4.1923828 q 0,0.5603027 0.05273,0.9624023 0.05274,0.3955079 0.224121,0.6789551 0.177979,0.2900391 0.461426,0.421875 0.283447,0.13183596 0.823975,0.13183596 0.481201,0 1.048095,-0.25048826 0.573487,-0.2504883 1.067871,-0.6394043 v -5.4975586 h 1.239258 z"
           id="path227425"
           style="stroke-width:1.98425;stroke-dasharray:none" /><path
           d="M 27.754438,-3.5529785 H 22.32939 q 0,0.6789551 0.204345,1.1865234 0.204346,0.5009766 0.560303,0.8239746 0.342773,0.3164063 0.810791,0.4746094 0.474609,0.15820313 1.041504,0.15820313 0.751465,0 1.509521,-0.29663083 0.764649,-0.3032227 1.087647,-0.5932617 h 0.06592 v 1.35131831 q -0.626221,0.26367188 -1.278809,0.44165039 -0.652588,0.17797852 -1.371093,0.17797852 -1.83252,0 -2.86084,-0.98876953 -1.028321,-0.99536129 -1.028321,-2.82128909 0,-1.8061523 0.982178,-2.8674316 0.98877,-1.0612793 2.597168,-1.0612793 1.489746,0 2.293945,0.8701172 0.810791,0.8701172 0.810791,2.4719238 z M 26.54814,-4.5021973 q -0.0066,-0.9755859 -0.494385,-1.5095214 -0.481201,-0.5339356 -1.469971,-0.5339356 -0.995361,0 -1.588623,0.5866699 -0.58667,0.5866699 -0.665771,1.4567871 z"
           id="path227427"
           style="stroke-width:1.98425;stroke-dasharray:none" /><path
           d="m 32.530327,-5.484375 h -1.57544 v -1.8786621 h 1.57544 z m 0,5.484375 h -1.57544 v -1.8786621 h 1.57544 z"
           id="path227429"
           style="stroke-width:1.98425;stroke-dasharray:none" /><path
           d="M 45.446556,-2.7619629 H 43.989769 V 0 h -1.265625 v -2.7619629 h -4.699951 v -1.5161133 l 4.752685,-5.5371093 h 1.212891 v 5.9985351 h 1.456787 z m -2.722412,-1.0546875 v -4.4296875 l -3.803467,4.4296875 z"
           id="path227431"
           style="stroke-width:1.98425;stroke-dasharray:none" /><path
           d="m 53.248135,0 h -5.312989 v -1.0019531 h 2.043457 v -6.5786133 h -2.043457 v -0.8964844 q 0.415284,0 0.889893,-0.065918 0.474609,-0.07251 0.718506,-0.2043457 0.303222,-0.1647949 0.474609,-0.4152832 0.177979,-0.25708 0.204346,-0.6855468 h 1.021728 v 8.8461914 h 2.003907 z"
           id="path227433"
           style="stroke-width:1.98425;stroke-dasharray:none" /></g></g><path
       d="m 226.2,199.74 h 27 v 9.45 h -27 z"
       style="fill:#2e8b57;fill-opacity:1;fill-rule:nonzero;stroke:none;stroke-width:1.98425;stroke-dasharray:none"
       id="path225776" /><g
       id="g225778"
       transform="translate(264,199.74)"
       style="stroke-width:1.98425;stroke-dasharray:none"><g
         aria-label="Predicted: 37"
         transform="scale(1,-1)"
         id="text225782"
         style="font-size:13.5px;font-family:DejaVuSans;-inkscape-font-specification:DejaVuSans;stroke-width:1.98425;stroke-dasharray:none"><path
           d="m 7.7387695,-6.848877 q 0,0.6525879 -0.2307129,1.2128907 -0.2241211,0.5537109 -0.6328125,0.9624023 -0.5075683,0.5075684 -1.199707,0.7646485 -0.6921387,0.2504882 -1.7468262,0.2504882 H 2.6235352 V 0 H 1.3183594 v -9.8151855 h 2.6630859 q 0.8833008,0 1.4963379,0.1516113 0.6130371,0.1450195 1.0876465,0.4614258 0.5603027,0.3757324 0.8635254,0.9360351 0.3098144,0.5603028 0.3098144,1.4172363 z m -1.3579101,0.032959 q 0,-0.5075683 -0.1779785,-0.8833007 Q 6.0249023,-8.0749512 5.6623535,-8.3122559 5.3459473,-8.5166016 4.9372559,-8.6022949 4.5351562,-8.6945801 3.9155273,-8.6945801 H 2.6235352 v 3.9221192 h 1.10083 q 0.7910157,0 1.2854004,-0.1384278 0.4943848,-0.1450195 0.8041992,-0.454834 0.3098145,-0.3164062 0.4350586,-0.6657714 0.131836,-0.3493653 0.131836,-0.7844239 z"
           id="path227436"
           style="stroke-width:1.98425;stroke-dasharray:none" /><path
           d="m 13.72009,-6.0117187 h -0.06592 q -0.276856,-0.065918 -0.540527,-0.092285 -0.25708,-0.032959 -0.613038,-0.032959 -0.573486,0 -1.107421,0.2570801 -0.533936,0.2504883 -1.028321,0.6525879 V 0 H 9.1256075 v -7.3630371 h 1.2392575 v 1.0876465 q 0.738282,-0.5932617 1.298584,-0.8371582 0.566895,-0.2504883 1.153565,-0.2504883 0.322998,0 0.468017,0.019775 0.14502,0.013184 0.435059,0.059326 z"
           id="path227438"
           style="stroke-width:1.98425;stroke-dasharray:none" /><path
           d="m 20.540563,-3.5529785 h -5.425049 q 0,0.6789551 0.204346,1.1865234 0.204345,0.5009766 0.560302,0.8239746 0.342774,0.3164063 0.810791,0.4746094 0.47461,0.15820313 1.041504,0.15820313 0.751465,0 1.509522,-0.29663083 0.764648,-0.3032227 1.087646,-0.5932617 h 0.06592 v 1.35131831 q -0.626221,0.26367188 -1.278808,0.44165039 -0.652588,0.17797852 -1.371094,0.17797852 -1.83252,0 -2.86084,-0.98876953 -1.02832,-0.99536129 -1.02832,-2.82128909 0,-1.8061523 0.982177,-2.8674316 0.98877,-1.0612793 2.597168,-1.0612793 1.489746,0 2.293946,0.8701172 0.810791,0.8701172 0.810791,2.4719238 z m -1.206299,-0.9492188 q -0.0066,-0.9755859 -0.494385,-1.5095214 -0.481201,-0.5339356 -1.469971,-0.5339356 -0.995361,0 -1.588623,0.5866699 -0.58667,0.5866699 -0.665771,1.4567871 z"
           id="path227440"
           style="stroke-width:1.98425;stroke-dasharray:none" /><path
           d="m 28.651901,0 h -1.239258 v -0.77124023 q -0.533935,0.46142578 -1.114013,0.71850586 -0.580078,0.25708007 -1.259033,0.25708007 -1.31836,0 -2.096192,-1.01513672 -0.77124,-1.01513668 -0.77124,-2.81469728 0,-0.9360351 0.263672,-1.6677246 0.270263,-0.7316894 0.725097,-1.2458496 0.448243,-0.5009766 1.041504,-0.7646484 0.599854,-0.2636719 1.239258,-0.2636719 0.580078,0 1.02832,0.1252441 0.448243,0.1186524 0.942627,0.3757325 v -3.1904298 h 1.239258 z m -1.239258,-1.8127441 v -4.2253418 q -0.500976,-0.2241211 -0.896484,-0.3098145 -0.395508,-0.085693 -0.863525,-0.085693 -1.041504,0 -1.621582,0.7250976 -0.580078,0.7250977 -0.580078,2.0566406 0,1.3117676 0.448242,1.9973145 0.448242,0.67895506 1.437011,0.67895506 0.527344,0 1.067872,-0.23071286 0.540527,-0.2373047 1.008544,-0.6064456 z"
           id="path227442"
           style="stroke-width:1.98425;stroke-dasharray:none" /><path
           d="m 32.583775,-8.5957031 h -1.397461 v -1.2854004 h 1.397461 z M 32.504673,0 h -1.239258 v -7.3630371 h 1.239258 z"
           id="path227444"
           style="stroke-width:1.98425;stroke-dasharray:none" /><path
           d="M 40.450058,-0.46142578 Q 39.830429,-0.16479492 39.270126,0 q -0.553711,0.16479492 -1.179931,0.16479492 -0.797608,0 -1.463379,-0.23071289 -0.665772,-0.23730469 -1.140381,-0.71191406 -0.481201,-0.47460937 -0.744873,-1.19970707 -0.263672,-0.7250976 -0.263672,-1.6940918 0,-1.8061523 0.98877,-2.8344726 0.995361,-1.0283203 2.623535,-1.0283203 0.632812,0 1.239258,0.1779785 0.613037,0.1779785 1.120605,0.4350586 v 1.3776855 h -0.06592 q -0.566895,-0.4416504 -1.17334,-0.678955 -0.599853,-0.2373047 -1.17334,-0.2373047 -1.054687,0 -1.667724,0.711914 -0.606446,0.7053223 -0.606446,2.076416 0,1.331543 0.593262,2.0500489 0.599854,0.71191403 1.680908,0.71191403 0.375733,0 0.764649,-0.0988769 0.388916,-0.098877 0.69873,-0.2570801 0.270264,-0.1384277 0.507569,-0.2900391 0.237304,-0.1582031 0.375732,-0.2702636 h 0.06592 z"
           id="path227446"
           style="stroke-width:1.98425;stroke-dasharray:none" /><path
           d="m 46.253475,-0.06591797 q -0.349365,0.09228516 -0.764648,0.15161133 -0.408692,0.05932617 -0.73169,0.05932617 -1.127197,0 -1.713867,-0.60644531 Q 42.4566,-1.0678711 42.4566,-2.4060059 V -6.3215332 H 41.619442 V -7.3630371 H 42.4566 v -2.1159668 h 1.239258 v 2.1159668 h 2.557617 v 1.0415039 h -2.557617 v 3.3552246 q 0,0.5800781 0.02637,0.909668 0.02637,0.322998 0.184571,0.6064453 0.145019,0.2636719 0.395507,0.388916 0.25708,0.11865235 0.777832,0.11865235 0.303223,0 0.632813,-0.0856934 0.32959,-0.092285 0.474609,-0.1516113 h 0.06592 z"
           id="path227448"
           style="stroke-width:1.98425;stroke-dasharray:none" /><path
           d="m 53.885563,-3.5529785 h -5.425049 q 0,0.6789551 0.204346,1.1865234 0.204345,0.5009766 0.560303,0.8239746 0.342773,0.3164063 0.810791,0.4746094 0.474609,0.15820313 1.041503,0.15820313 0.751465,0 1.509522,-0.29663083 0.764648,-0.3032227 1.087646,-0.5932617 h 0.06592 v 1.35131831 q -0.62622,0.26367188 -1.278808,0.44165039 -0.652588,0.17797852 -1.371094,0.17797852 -1.83252,0 -2.86084,-0.98876953 -1.02832,-0.99536129 -1.02832,-2.82128909 0,-1.8061523 0.982178,-2.8674316 0.988769,-1.0612793 2.597168,-1.0612793 1.489746,0 2.293945,0.8701172 0.810791,0.8701172 0.810791,2.4719238 z m -1.206299,-0.9492188 q -0.0066,-0.9755859 -0.494385,-1.5095214 -0.481201,-0.5339356 -1.46997,-0.5339356 -0.995362,0 -1.588623,0.5866699 -0.58667,0.5866699 -0.665772,1.4567871 z"
           id="path227450"
           style="stroke-width:1.98425;stroke-dasharray:none" /><path
           d="m 61.996899,0 h -1.239258 v -0.77124023 q -0.533936,0.46142578 -1.114014,0.71850586 -0.580078,0.25708007 -1.259033,0.25708007 -1.318359,0 -2.096191,-1.01513672 -0.771241,-1.01513668 -0.771241,-2.81469728 0,-0.9360351 0.263672,-1.6677246 0.270264,-0.7316894 0.725098,-1.2458496 0.448242,-0.5009766 1.041504,-0.7646484 0.599853,-0.2636719 1.239258,-0.2636719 0.580078,0 1.02832,0.1252441 0.448242,0.1186524 0.942627,0.3757325 v -3.1904298 h 1.239258 z m -1.239258,-1.8127441 v -4.2253418 q -0.500977,-0.2241211 -0.896485,-0.3098145 -0.395507,-0.085693 -0.863525,-0.085693 -1.041504,0 -1.621582,0.7250976 -0.580078,0.7250977 -0.580078,2.0566406 0,1.3117676 0.448242,1.9973145 0.448242,0.67895506 1.437012,0.67895506 0.527344,0 1.067871,-0.23071286 0.540527,-0.2373047 1.008545,-0.6064456 z"
           id="path227452"
           style="stroke-width:1.98425;stroke-dasharray:none" /><path
           d="m 67.233952,-5.484375 h -1.57544 v -1.8786621 h 1.57544 z m 0,5.484375 h -1.57544 v -1.8786621 h 1.57544 z"
           id="path227454"
           style="stroke-width:1.98425;stroke-dasharray:none" /><path
           d="m 79.062538,-4.7263184 q 0.316406,0.2834473 0.520752,0.7119141 0.204346,0.4284668 0.204346,1.1074219 0,0.6723633 -0.243897,1.232666 -0.243896,0.5603027 -0.685547,0.97558593 -0.494384,0.46142578 -1.166748,0.68554688 -0.665771,0.21752929 -1.463379,0.21752929 -0.817382,0 -1.608398,-0.1977539 -0.791016,-0.19116211 -1.298584,-0.421875 v -1.3776855 h 0.09888 q 0.560303,0.3691406 1.318359,0.6130371 0.758057,0.24389644 1.463379,0.24389644 0.415284,0 0.883301,-0.13842774 0.468018,-0.1384277 0.758057,-0.4086914 0.303222,-0.2900391 0.448242,-0.6394043 0.151611,-0.3493652 0.151611,-0.8833008 0,-0.5273437 -0.171386,-0.8701172 -0.164795,-0.3493652 -0.461426,-0.5471191 -0.296631,-0.2043457 -0.718506,-0.2768555 -0.421875,-0.079102 -0.909668,-0.079102 H 75.588661 V -5.873291 h 0.461426 q 1.001953,0 1.595215,-0.4152832 0.599853,-0.421875 0.599853,-1.2260742 0,-0.3559571 -0.151611,-0.6196289 -0.151611,-0.2702637 -0.421875,-0.4416504 -0.283447,-0.1713868 -0.606445,-0.2373047 -0.322998,-0.065918 -0.73169,-0.065918 -0.62622,0 -1.331543,0.2241211 -0.705322,0.2241211 -1.331543,0.6328125 h -0.06592 v -1.3776855 q 0.468018,-0.2307129 1.24585,-0.421875 0.784424,-0.1977537 1.516113,-0.1977537 0.718506,0 1.265625,0.1318357 0.547119,0.1318359 0.98877,0.421875 0.474609,0.3164062 0.718506,0.7646484 0.243896,0.4482422 0.243896,1.0480957 0,0.8173828 -0.580078,1.43042 -0.573486,0.6064453 -1.35791,0.7646484 v 0.092285 q 0.316406,0.052734 0.725097,0.2241211 0.408692,0.164795 0.692139,0.4152832 z"
           id="path227456"
           style="stroke-width:1.98425;stroke-dasharray:none" /><path
           d="M 88.538429,-8.3452148 84.095558,0 h -1.410644 l 4.726318,-8.6616211 h -5.589844 v -1.1535644 h 6.717041 z"
           id="path227458"
           style="stroke-width:1.98425;stroke-dasharray:none" /></g></g></g></svg>
