<?xml version="1.0" encoding="UTF-8" standalone="no"?>
<!-- Created with Inkscape (http://www.inkscape.org/) -->

<svg
   width="142.28955mm"
   height="94.884872mm"
   viewBox="0 0 142.28955 94.884872"
   version="1.1"
   id="svg5"
   xml:space="preserve"
   inkscape:export-filename=".\dw.svg"
   inkscape:export-xdpi="96"
   inkscape:export-ydpi="96"
   xmlns:inkscape="http://www.inkscape.org/namespaces/inkscape"
   xmlns:sodipodi="http://sodipodi.sourceforge.net/DTD/sodipodi-0.dtd"
   xmlns="http://www.w3.org/2000/svg"
   xmlns:svg="http://www.w3.org/2000/svg"><sodipodi:namedview
     id="namedview7"
     pagecolor="#ffffff"
     bordercolor="#999999"
     borderopacity="1"
     inkscape:showpageshadow="0"
     inkscape:pageopacity="0"
     inkscape:pagecheckerboard="0"
     inkscape:deskcolor="#d1d1d1"
     inkscape:document-units="mm"
     showgrid="false" /><defs
     id="defs2"><clipPath
       clipPathUnits="userSpaceOnUse"
       id="clipPath226185"><path
         d="M 61.340625,44.325 H 396.14062 v 217.44 H 61.340625 Z"
         id="path226183" /></clipPath><clipPath
       clipPathUnits="userSpaceOnUse"
       id="clipPath226195"><path
         d="M 61.340625,44.325 H 396.14062 v 217.44 H 61.340625 Z"
         id="path226193" /></clipPath><clipPath
       clipPathUnits="userSpaceOnUse"
       id="clipPath226205"><path
         d="M 61.340625,44.325 H 396.14062 v 217.44 H 61.340625 Z"
         id="path226203" /></clipPath><clipPath
       clipPathUnits="userSpaceOnUse"
       id="clipPath226215"><path
         d="M 61.340625,44.325 H 396.14062 v 217.44 H 61.340625 Z"
         id="path226213" /></clipPath><clipPath
       clipPathUnits="userSpaceOnUse"
       id="clipPath226225"><path
         d="M 61.340625,44.325 H 396.14062 v 217.44 H 61.340625 Z"
         id="path226223" /></clipPath><clipPath
       clipPathUnits="userSpaceOnUse"
       id="clipPath226235"><path
         d="M 61.340625,44.325 H 396.14062 v 217.44 H 61.340625 Z"
         id="path226233" /></clipPath><clipPath
       clipPathUnits="userSpaceOnUse"
       id="clipPath226245"><path
         d="M 61.340625,44.325 H 396.14062 v 217.44 H 61.340625 Z"
         id="path226243" /></clipPath><clipPath
       clipPathUnits="userSpaceOnUse"
       id="clipPath226255"><path
         d="M 61.340625,44.325 H 396.14062 v 217.44 H 61.340625 Z"
         id="path226253" /></clipPath><clipPath
       clipPathUnits="userSpaceOnUse"
       id="clipPath226265"><path
         d="M 61.340625,44.325 H 396.14062 v 217.44 H 61.340625 Z"
         id="path226263" /></clipPath><clipPath
       clipPathUnits="userSpaceOnUse"
       id="clipPath226275"><path
         d="M 61.340625,44.325 H 396.14062 v 217.44 H 61.340625 Z"
         id="path226273" /></clipPath><clipPath
       clipPathUnits="userSpaceOnUse"
       id="clipPath226285"><path
         d="M 61.340625,44.325 H 396.14062 v 217.44 H 61.340625 Z"
         id="path226283" /></clipPath><clipPath
       clipPathUnits="userSpaceOnUse"
       id="clipPath226295"><path
         d="M 61.340625,44.325 H 396.14062 v 217.44 H 61.340625 Z"
         id="path226293" /></clipPath><clipPath
       clipPathUnits="userSpaceOnUse"
       id="clipPath226305"><path
         d="M 61.340625,44.325 H 396.14062 v 217.44 H 61.340625 Z"
         id="path226303" /></clipPath><clipPath
       clipPathUnits="userSpaceOnUse"
       id="clipPath226315"><path
         d="M 61.340625,44.325 H 396.14062 v 217.44 H 61.340625 Z"
         id="path226313" /></clipPath><clipPath
       clipPathUnits="userSpaceOnUse"
       id="clipPath226325"><path
         d="M 61.340625,44.325 H 396.14062 v 217.44 H 61.340625 Z"
         id="path226323" /></clipPath><clipPath
       clipPathUnits="userSpaceOnUse"
       id="clipPath226335"><path
         d="M 61.340625,44.325 H 396.14062 v 217.44 H 61.340625 Z"
         id="path226333" /></clipPath><clipPath
       clipPathUnits="userSpaceOnUse"
       id="clipPath226345"><path
         d="M 61.340625,44.325 H 396.14062 v 217.44 H 61.340625 Z"
         id="path226343" /></clipPath><clipPath
       clipPathUnits="userSpaceOnUse"
       id="clipPath226355"><path
         d="M 61.340625,44.325 H 396.14062 v 217.44 H 61.340625 Z"
         id="path226353" /></clipPath><clipPath
       clipPathUnits="userSpaceOnUse"
       id="clipPath226365"><path
         d="M 61.340625,44.325 H 396.14062 v 217.44 H 61.340625 Z"
         id="path226363" /></clipPath><clipPath
       clipPathUnits="userSpaceOnUse"
       id="clipPath226375"><path
         d="M 61.340625,44.325 H 396.14062 v 217.44 H 61.340625 Z"
         id="path226373" /></clipPath><clipPath
       clipPathUnits="userSpaceOnUse"
       id="clipPath226385"><path
         d="M 61.340625,44.325 H 396.14062 v 217.44 H 61.340625 Z"
         id="path226383" /></clipPath><clipPath
       clipPathUnits="userSpaceOnUse"
       id="clipPath226395"><path
         d="M 61.340625,44.325 H 396.14062 v 217.44 H 61.340625 Z"
         id="path226393" /></clipPath><clipPath
       clipPathUnits="userSpaceOnUse"
       id="clipPath226405"><path
         d="M 61.340625,44.325 H 396.14062 v 217.44 H 61.340625 Z"
         id="path226403" /></clipPath><clipPath
       clipPathUnits="userSpaceOnUse"
       id="clipPath226415"><path
         d="M 61.340625,44.325 H 396.14062 v 217.44 H 61.340625 Z"
         id="path226413" /></clipPath><clipPath
       clipPathUnits="userSpaceOnUse"
       id="clipPath226425"><path
         d="M 61.340625,44.325 H 396.14062 v 217.44 H 61.340625 Z"
         id="path226423" /></clipPath><clipPath
       clipPathUnits="userSpaceOnUse"
       id="clipPath226435"><path
         d="M 61.340625,44.325 H 396.14062 v 217.44 H 61.340625 Z"
         id="path226433" /></clipPath><clipPath
       clipPathUnits="userSpaceOnUse"
       id="clipPath226445"><path
         d="M 61.340625,44.325 H 396.14062 v 217.44 H 61.340625 Z"
         id="path226443" /></clipPath><clipPath
       clipPathUnits="userSpaceOnUse"
       id="clipPath226455"><path
         d="M 61.340625,44.325 H 396.14062 v 217.44 H 61.340625 Z"
         id="path226453" /></clipPath><clipPath
       clipPathUnits="userSpaceOnUse"
       id="clipPath226465"><path
         d="M 61.340625,44.325 H 396.14062 v 217.44 H 61.340625 Z"
         id="path226463" /></clipPath><clipPath
       clipPathUnits="userSpaceOnUse"
       id="clipPath226475"><path
         d="M 61.340625,44.325 H 396.14062 v 217.44 H 61.340625 Z"
         id="path226473" /></clipPath><clipPath
       clipPathUnits="userSpaceOnUse"
       id="clipPath226485"><path
         d="M 61.340625,44.325 H 396.14062 v 217.44 H 61.340625 Z"
         id="path226483" /></clipPath><clipPath
       clipPathUnits="userSpaceOnUse"
       id="clipPath226495"><path
         d="M 61.340625,44.325 H 396.14062 v 217.44 H 61.340625 Z"
         id="path226493" /></clipPath><clipPath
       clipPathUnits="userSpaceOnUse"
       id="clipPath226505"><path
         d="M 61.340625,44.325 H 396.14062 v 217.44 H 61.340625 Z"
         id="path226503" /></clipPath><clipPath
       clipPathUnits="userSpaceOnUse"
       id="clipPath226515"><path
         d="M 61.340625,44.325 H 396.14062 v 217.44 H 61.340625 Z"
         id="path226513" /></clipPath><clipPath
       clipPathUnits="userSpaceOnUse"
       id="clipPath226525"><path
         d="M 61.340625,44.325 H 396.14062 v 217.44 H 61.340625 Z"
         id="path226523" /></clipPath><clipPath
       clipPathUnits="userSpaceOnUse"
       id="clipPath226535"><path
         d="M 61.340625,44.325 H 396.14062 v 217.44 H 61.340625 Z"
         id="path226533" /></clipPath><clipPath
       clipPathUnits="userSpaceOnUse"
       id="clipPath226545"><path
         d="M 61.340625,44.325 H 396.14062 v 217.44 H 61.340625 Z"
         id="path226543" /></clipPath><clipPath
       clipPathUnits="userSpaceOnUse"
       id="clipPath226555"><path
         d="M 61.340625,44.325 H 396.14062 v 217.44 H 61.340625 Z"
         id="path226553" /></clipPath><clipPath
       clipPathUnits="userSpaceOnUse"
       id="clipPath226565"><path
         d="M 61.340625,44.325 H 396.14062 v 217.44 H 61.340625 Z"
         id="path226563" /></clipPath><clipPath
       clipPathUnits="userSpaceOnUse"
       id="clipPath226575"><path
         d="M 61.340625,44.325 H 396.14062 v 217.44 H 61.340625 Z"
         id="path226573" /></clipPath><clipPath
       clipPathUnits="userSpaceOnUse"
       id="clipPath226585"><path
         d="M 61.340625,44.325 H 396.14062 v 217.44 H 61.340625 Z"
         id="path226583" /></clipPath><clipPath
       clipPathUnits="userSpaceOnUse"
       id="clipPath226595"><path
         d="M 61.340625,44.325 H 396.14062 v 217.44 H 61.340625 Z"
         id="path226593" /></clipPath><clipPath
       clipPathUnits="userSpaceOnUse"
       id="clipPath226605"><path
         d="M 61.340625,44.325 H 396.14062 v 217.44 H 61.340625 Z"
         id="path226603" /></clipPath><clipPath
       clipPathUnits="userSpaceOnUse"
       id="clipPath226615"><path
         d="M 61.340625,44.325 H 396.14062 v 217.44 H 61.340625 Z"
         id="path226613" /></clipPath><clipPath
       clipPathUnits="userSpaceOnUse"
       id="clipPath226625"><path
         d="M 61.340625,44.325 H 396.14062 v 217.44 H 61.340625 Z"
         id="path226623" /></clipPath><clipPath
       clipPathUnits="userSpaceOnUse"
       id="clipPath226635"><path
         d="M 61.340625,44.325 H 396.14062 v 217.44 H 61.340625 Z"
         id="path226633" /></clipPath><clipPath
       clipPathUnits="userSpaceOnUse"
       id="clipPath226645"><path
         d="M 61.340625,44.325 H 396.14062 v 217.44 H 61.340625 Z"
         id="path226643" /></clipPath><clipPath
       clipPathUnits="userSpaceOnUse"
       id="clipPath226655"><path
         d="M 61.340625,44.325 H 396.14062 v 217.44 H 61.340625 Z"
         id="path226653" /></clipPath><clipPath
       clipPathUnits="userSpaceOnUse"
       id="clipPath226665"><path
         d="M 61.340625,44.325 H 396.14062 v 217.44 H 61.340625 Z"
         id="path226663" /></clipPath><clipPath
       clipPathUnits="userSpaceOnUse"
       id="clipPath226675"><path
         d="M 61.340625,44.325 H 396.14062 v 217.44 H 61.340625 Z"
         id="path226673" /></clipPath><clipPath
       clipPathUnits="userSpaceOnUse"
       id="clipPath226685"><path
         d="M 61.340625,44.325 H 396.14062 v 217.44 H 61.340625 Z"
         id="path226683" /></clipPath><clipPath
       clipPathUnits="userSpaceOnUse"
       id="clipPath226695"><path
         d="M 61.340625,44.325 H 396.14062 v 217.44 H 61.340625 Z"
         id="path226693" /></clipPath><clipPath
       clipPathUnits="userSpaceOnUse"
       id="clipPath226705"><path
         d="M 61.340625,44.325 H 396.14062 v 217.44 H 61.340625 Z"
         id="path226703" /></clipPath><clipPath
       clipPathUnits="userSpaceOnUse"
       id="clipPath226715"><path
         d="M 61.340625,44.325 H 396.14062 v 217.44 H 61.340625 Z"
         id="path226713" /></clipPath><clipPath
       clipPathUnits="userSpaceOnUse"
       id="clipPath226725"><path
         d="M 61.340625,44.325 H 396.14062 v 217.44 H 61.340625 Z"
         id="path226723" /></clipPath><clipPath
       clipPathUnits="userSpaceOnUse"
       id="clipPath226735"><path
         d="M 61.340625,44.325 H 396.14062 v 217.44 H 61.340625 Z"
         id="path226733" /></clipPath><clipPath
       clipPathUnits="userSpaceOnUse"
       id="clipPath226745"><path
         d="M 61.340625,44.325 H 396.14062 v 217.44 H 61.340625 Z"
         id="path226743" /></clipPath><clipPath
       clipPathUnits="userSpaceOnUse"
       id="clipPath226755"><path
         d="M 61.340625,44.325 H 396.14062 v 217.44 H 61.340625 Z"
         id="path226753" /></clipPath><clipPath
       clipPathUnits="userSpaceOnUse"
       id="clipPath226765"><path
         d="M 61.340625,44.325 H 396.14062 v 217.44 H 61.340625 Z"
         id="path226763" /></clipPath><clipPath
       clipPathUnits="userSpaceOnUse"
       id="clipPath226775"><path
         d="M 61.340625,44.325 H 396.14062 v 217.44 H 61.340625 Z"
         id="path226773" /></clipPath><clipPath
       clipPathUnits="userSpaceOnUse"
       id="clipPath226785"><path
         d="M 61.340625,44.325 H 396.14062 v 217.44 H 61.340625 Z"
         id="path226783" /></clipPath><clipPath
       clipPathUnits="userSpaceOnUse"
       id="clipPath226795"><path
         d="M 61.340625,44.325 H 396.14062 v 217.44 H 61.340625 Z"
         id="path226793" /></clipPath><clipPath
       clipPathUnits="userSpaceOnUse"
       id="clipPath226805"><path
         d="M 61.340625,44.325 H 396.14062 v 217.44 H 61.340625 Z"
         id="path226803" /></clipPath><clipPath
       clipPathUnits="userSpaceOnUse"
       id="clipPath226815"><path
         d="M 61.340625,44.325 H 396.14062 v 217.44 H 61.340625 Z"
         id="path226813" /></clipPath></defs><g
     id="g226179"
     transform="matrix(0.35277776,0,0,-0.35277778,-6.87343e-6,94.884878)"><g
       id="g226181"
       clip-path="url(#clipPath226185)"><path
         d="m 62.370779,44.325 h 4.120615 v 170.06387 h -4.120615 z"
         style="fill:#ff7f50;fill-opacity:1;fill-rule:nonzero;stroke:none"
         id="path226187" /></g></g><g
     id="g226189"
     transform="matrix(0.35277776,0,0,-0.35277778,-6.87343e-6,94.884878)"><g
       id="g226191"
       clip-path="url(#clipPath226195)"><path
         d="m 72.672317,44.325 h 4.120616 v 206.88795 h -4.120616 z"
         style="fill:#ff7f50;fill-opacity:1;fill-rule:nonzero;stroke:none"
         id="path226197" /></g></g><g
     id="g226199"
     transform="matrix(0.35277776,0,0,-0.35277778,-6.87343e-6,94.884878)"><g
       id="g226201"
       clip-path="url(#clipPath226205)"><path
         d="m 82.973856,44.325 h 4.120615 v 147.89024 h -4.120615 z"
         style="fill:#ff7f50;fill-opacity:1;fill-rule:nonzero;stroke:none"
         id="path226207" /></g></g><g
     id="g226209"
     transform="matrix(0.35277776,0,0,-0.35277778,-6.87343e-6,94.884878)"><g
       id="g226211"
       clip-path="url(#clipPath226215)"><path
         d="m 93.275394,44.325 h 4.120616 v 96.01976 h -4.120616 z"
         style="fill:#ff7f50;fill-opacity:1;fill-rule:nonzero;stroke:none"
         id="path226217" /></g></g><g
     id="g226219"
     transform="matrix(0.35277776,0,0,-0.35277778,-6.87343e-6,94.884878)"><g
       id="g226221"
       clip-path="url(#clipPath226225)"><path
         d="m 103.57693,44.325 h 4.12062 v 66.42192 h -4.12062 z"
         style="fill:#ff7f50;fill-opacity:1;fill-rule:nonzero;stroke:none"
         id="path226227" /></g></g><g
     id="g226229"
     transform="matrix(0.35277776,0,0,-0.35277778,-6.87343e-6,94.884878)"><g
       id="g226231"
       clip-path="url(#clipPath226235)"><path
         d="m 113.87847,44.325 h 4.12062 v 45.139189 h -4.12062 z"
         style="fill:#ff7f50;fill-opacity:1;fill-rule:nonzero;stroke:none"
         id="path226237" /></g></g><g
     id="g226239"
     transform="matrix(0.35277776,0,0,-0.35277778,-6.87343e-6,94.884878)"><g
       id="g226241"
       clip-path="url(#clipPath226245)"><path
         d="m 124.18001,44.325 h 4.12061 v 26.628162 h -4.12061 z"
         style="fill:#ff7f50;fill-opacity:1;fill-rule:nonzero;stroke:none"
         id="path226247" /></g></g><g
     id="g226249"
     transform="matrix(0.35277776,0,0,-0.35277778,-6.87343e-6,94.884878)"><g
       id="g226251"
       clip-path="url(#clipPath226255)"><path
         d="m 134.48155,44.325 h 4.12061 v 17.521132 h -4.12061 z"
         style="fill:#ff7f50;fill-opacity:1;fill-rule:nonzero;stroke:none"
         id="path226257" /></g></g><g
     id="g226259"
     transform="matrix(0.35277776,0,0,-0.35277778,-6.87343e-6,94.884878)"><g
       id="g226261"
       clip-path="url(#clipPath226265)"><path
         d="m 144.78309,44.325 h 4.12061 v 14.254481 h -4.12061 z"
         style="fill:#ff7f50;fill-opacity:1;fill-rule:nonzero;stroke:none"
         id="path226267" /></g></g><g
     id="g226269"
     transform="matrix(0.35277776,0,0,-0.35277778,-6.87343e-6,94.884878)"><g
       id="g226271"
       clip-path="url(#clipPath226275)"><path
         d="m 155.08462,44.325 h 4.12062 v 8.018145 h -4.12062 z"
         style="fill:#ff7f50;fill-opacity:1;fill-rule:nonzero;stroke:none"
         id="path226277" /></g></g><g
     id="g226279"
     transform="matrix(0.35277776,0,0,-0.35277778,-6.87343e-6,94.884878)"><g
       id="g226281"
       clip-path="url(#clipPath226285)"><path
         d="m 165.38616,44.325 h 4.12062 v 6.335325 h -4.12062 z"
         style="fill:#ff7f50;fill-opacity:1;fill-rule:nonzero;stroke:none"
         id="path226287" /></g></g><g
     id="g226289"
     transform="matrix(0.35277776,0,0,-0.35277778,-6.87343e-6,94.884878)"><g
       id="g226291"
       clip-path="url(#clipPath226295)"><path
         d="m 175.6877,44.325 h 4.12062 v 4.652504 h -4.12062 z"
         style="fill:#ff7f50;fill-opacity:1;fill-rule:nonzero;stroke:none"
         id="path226297" /></g></g><g
     id="g226299"
     transform="matrix(0.35277776,0,0,-0.35277778,-6.87343e-6,94.884878)"><g
       id="g226301"
       clip-path="url(#clipPath226305)"><path
         d="m 185.98924,44.325 h 4.12062 v 3.365641 h -4.12062 z"
         style="fill:#ff7f50;fill-opacity:1;fill-rule:nonzero;stroke:none"
         id="path226307" /></g></g><g
     id="g226309"
     transform="matrix(0.35277776,0,0,-0.35277778,-6.87343e-6,94.884878)"><g
       id="g226311"
       clip-path="url(#clipPath226315)"><path
         d="m 196.29078,44.325 h 4.12061 v 1.286863 h -4.12061 z"
         style="fill:#ff7f50;fill-opacity:1;fill-rule:nonzero;stroke:none"
         id="path226317" /></g></g><g
     id="g226319"
     transform="matrix(0.35277776,0,0,-0.35277778,-6.87343e-6,94.884878)"><g
       id="g226321"
       clip-path="url(#clipPath226325)"><path
         d="m 206.59232,44.325 h 4.12061 v 1.484842 h -4.12061 z"
         style="fill:#ff7f50;fill-opacity:1;fill-rule:nonzero;stroke:none"
         id="path226327" /></g></g><g
     id="g226329"
     transform="matrix(0.35277776,0,0,-0.35277778,-6.87343e-6,94.884878)"><g
       id="g226331"
       clip-path="url(#clipPath226335)"><path
         d="m 216.89386,44.325 h 4.12061 v 0.692926 h -4.12061 z"
         style="fill:#ff7f50;fill-opacity:1;fill-rule:nonzero;stroke:none"
         id="path226337" /></g></g><g
     id="g226339"
     transform="matrix(0.35277776,0,0,-0.35277778,-6.87343e-6,94.884878)"><g
       id="g226341"
       clip-path="url(#clipPath226345)"><path
         d="m 227.19539,44.325 h 4.12062 v 0.395958 h -4.12062 z"
         style="fill:#ff7f50;fill-opacity:1;fill-rule:nonzero;stroke:none"
         id="path226347" /></g></g><g
     id="g226349"
     transform="matrix(0.35277776,0,0,-0.35277778,-6.87343e-6,94.884878)"><g
       id="g226351"
       clip-path="url(#clipPath226355)"><path
         d="m 237.49693,44.325 h 4.12062 v 0.494947 h -4.12062 z"
         style="fill:#ff7f50;fill-opacity:1;fill-rule:nonzero;stroke:none"
         id="path226357" /></g></g><g
     id="g226359"
     transform="matrix(0.35277776,0,0,-0.35277778,-6.87343e-6,94.884878)"><g
       id="g226361"
       clip-path="url(#clipPath226365)"><path
         d="m 247.79847,44.325 h 4.12062 v 0 z"
         style="fill:#ff7f50;fill-opacity:1;fill-rule:nonzero;stroke:none"
         id="path226367" /></g></g><g
     id="g226369"
     transform="matrix(0.35277776,0,0,-0.35277778,-6.87343e-6,94.884878)"><g
       id="g226371"
       clip-path="url(#clipPath226375)"><path
         d="m 258.10001,44.325 h 4.12061 v 0.197979 h -4.12061 z"
         style="fill:#ff7f50;fill-opacity:1;fill-rule:nonzero;stroke:none"
         id="path226377" /></g></g><g
     id="g226379"
     transform="matrix(0.35277776,0,0,-0.35277778,-6.87343e-6,94.884878)"><g
       id="g226381"
       clip-path="url(#clipPath226385)"><path
         d="m 268.40155,44.325 h 4.12061 v 0.09899 h -4.12061 z"
         style="fill:#ff7f50;fill-opacity:1;fill-rule:nonzero;stroke:none"
         id="path226387" /></g></g><g
     id="g226389"
     transform="matrix(0.35277776,0,0,-0.35277778,-6.87343e-6,94.884878)"><g
       id="g226391"
       clip-path="url(#clipPath226395)"><path
         d="m 278.70309,44.325 h 4.12061 v 0 z"
         style="fill:#ff7f50;fill-opacity:1;fill-rule:nonzero;stroke:none"
         id="path226397" /></g></g><g
     id="g226399"
     transform="matrix(0.35277776,0,0,-0.35277778,-6.87343e-6,94.884878)"><g
       id="g226401"
       clip-path="url(#clipPath226405)"><path
         d="m 289.00463,44.325 h 4.12061 v 0 z"
         style="fill:#ff7f50;fill-opacity:1;fill-rule:nonzero;stroke:none"
         id="path226407" /></g></g><g
     id="g226409"
     transform="matrix(0.35277776,0,0,-0.35277778,-6.87343e-6,94.884878)"><g
       id="g226411"
       clip-path="url(#clipPath226415)"><path
         d="m 299.30616,44.325 h 4.12062 v 0 z"
         style="fill:#ff7f50;fill-opacity:1;fill-rule:nonzero;stroke:none"
         id="path226417" /></g></g><g
     id="g226419"
     transform="matrix(0.35277776,0,0,-0.35277778,-6.87343e-6,94.884878)"><g
       id="g226421"
       clip-path="url(#clipPath226425)"><path
         d="m 309.6077,44.325 h 4.12062 v 0.09899 h -4.12062 z"
         style="fill:#ff7f50;fill-opacity:1;fill-rule:nonzero;stroke:none"
         id="path226427" /></g></g><g
     id="g226429"
     transform="matrix(0.35277776,0,0,-0.35277778,-6.87343e-6,94.884878)"><g
       id="g226431"
       clip-path="url(#clipPath226435)"><path
         d="m 319.90924,44.325 h 4.12062 v 0 z"
         style="fill:#ff7f50;fill-opacity:1;fill-rule:nonzero;stroke:none"
         id="path226437" /></g></g><g
     id="g226439"
     transform="matrix(0.35277776,0,0,-0.35277778,-6.87343e-6,94.884878)"><g
       id="g226441"
       clip-path="url(#clipPath226445)"><path
         d="m 330.21078,44.325 h 4.12061 v 0 z"
         style="fill:#ff7f50;fill-opacity:1;fill-rule:nonzero;stroke:none"
         id="path226447" /></g></g><g
     id="g226449"
     transform="matrix(0.35277776,0,0,-0.35277778,-6.87343e-6,94.884878)"><g
       id="g226451"
       clip-path="url(#clipPath226455)"><path
         d="m 340.51232,44.325 h 4.12061 v 0 z"
         style="fill:#ff7f50;fill-opacity:1;fill-rule:nonzero;stroke:none"
         id="path226457" /></g></g><g
     id="g226459"
     transform="matrix(0.35277776,0,0,-0.35277778,-6.87343e-6,94.884878)"><g
       id="g226461"
       clip-path="url(#clipPath226465)"><path
         d="m 350.81386,44.325 h 4.12061 v 0 z"
         style="fill:#ff7f50;fill-opacity:1;fill-rule:nonzero;stroke:none"
         id="path226467" /></g></g><g
     id="g226469"
     transform="matrix(0.35277776,0,0,-0.35277778,-6.87343e-6,94.884878)"><g
       id="g226471"
       clip-path="url(#clipPath226475)"><path
         d="m 361.11539,44.325 h 4.12062 v 0 z"
         style="fill:#ff7f50;fill-opacity:1;fill-rule:nonzero;stroke:none"
         id="path226477" /></g></g><g
     id="g226479"
     transform="matrix(0.35277776,0,0,-0.35277778,-6.87343e-6,94.884878)"><g
       id="g226481"
       clip-path="url(#clipPath226485)"><path
         d="m 371.41693,44.325 h 4.12062 v 0.09899 h -4.12062 z"
         style="fill:#ff7f50;fill-opacity:1;fill-rule:nonzero;stroke:none"
         id="path226487" /></g></g><g
     id="g226489"
     transform="matrix(0.35277776,0,0,-0.35277778,-6.87343e-6,94.884878)"><g
       id="g226491"
       clip-path="url(#clipPath226495)"><path
         d="m 381.71847,44.325 h 4.12062 v 0 z"
         style="fill:#ff7f50;fill-opacity:1;fill-rule:nonzero;stroke:none"
         id="path226497" /></g></g><g
     id="g226499"
     transform="matrix(0.35277776,0,0,-0.35277778,-6.87343e-6,94.884878)"><g
       id="g226501"
       clip-path="url(#clipPath226505)"><path
         d="M 66.491394,44.325 H 70.61201 V 176.067 H 66.491394 Z"
         style="fill:#2e8b57;fill-opacity:1;fill-rule:nonzero;stroke:none"
         id="path226507" /></g></g><g
     id="g226509"
     transform="matrix(0.35277776,0,0,-0.35277778,-6.87343e-6,94.884878)"><g
       id="g226511"
       clip-path="url(#clipPath226515)"><path
         d="m 76.792933,44.325 h 4.120615 v 207.08571 h -4.120615 z"
         style="fill:#2e8b57;fill-opacity:1;fill-rule:nonzero;stroke:none"
         id="path226517" /></g></g><g
     id="g226519"
     transform="matrix(0.35277776,0,0,-0.35277778,-6.87343e-6,94.884878)"><g
       id="g226521"
       clip-path="url(#clipPath226525)"><path
         d="m 87.094471,44.325 h 4.120616 v 148.05917 h -4.120616 z"
         style="fill:#2e8b57;fill-opacity:1;fill-rule:nonzero;stroke:none"
         id="path226527" /></g></g><g
     id="g226529"
     transform="matrix(0.35277776,0,0,-0.35277778,-6.87343e-6,94.884878)"><g
       id="g226531"
       clip-path="url(#clipPath226535)"><path
         d="m 97.39601,44.325 h 4.12062 v 104.14517 h -4.12062 z"
         style="fill:#2e8b57;fill-opacity:1;fill-rule:nonzero;stroke:none"
         id="path226537" /></g></g><g
     id="g226539"
     transform="matrix(0.35277776,0,0,-0.35277778,-6.87343e-6,94.884878)"><g
       id="g226541"
       clip-path="url(#clipPath226545)"><path
         d="m 107.69755,44.325 h 4.12061 v 67.3494 h -4.12061 z"
         style="fill:#2e8b57;fill-opacity:1;fill-rule:nonzero;stroke:none"
         id="path226547" /></g></g><g
     id="g226549"
     transform="matrix(0.35277776,0,0,-0.35277778,-6.87343e-6,94.884878)"><g
       id="g226551"
       clip-path="url(#clipPath226555)"><path
         d="m 117.99909,44.325 h 4.12061 v 53.00343 h -4.12061 z"
         style="fill:#2e8b57;fill-opacity:1;fill-rule:nonzero;stroke:none"
         id="path226557" /></g></g><g
     id="g226559"
     transform="matrix(0.35277776,0,0,-0.35277778,-6.87343e-6,94.884878)"><g
       id="g226561"
       clip-path="url(#clipPath226565)"><path
         d="m 128.30062,44.325 h 4.12062 v 32.634343 h -4.12062 z"
         style="fill:#2e8b57;fill-opacity:1;fill-rule:nonzero;stroke:none"
         id="path226567" /></g></g><g
     id="g226569"
     transform="matrix(0.35277776,0,0,-0.35277778,-6.87343e-6,94.884878)"><g
       id="g226571"
       clip-path="url(#clipPath226575)"><path
         d="m 138.60216,44.325 h 4.12062 v 22.887845 h -4.12062 z"
         style="fill:#2e8b57;fill-opacity:1;fill-rule:nonzero;stroke:none"
         id="path226577" /></g></g><g
     id="g226579"
     transform="matrix(0.35277776,0,0,-0.35277778,-6.87343e-6,94.884878)"><g
       id="g226581"
       clip-path="url(#clipPath226585)"><path
         d="m 148.9037,44.325 h 4.12062 v 17.631306 h -4.12062 z"
         style="fill:#2e8b57;fill-opacity:1;fill-rule:nonzero;stroke:none"
         id="path226587" /></g></g><g
     id="g226589"
     transform="matrix(0.35277776,0,0,-0.35277778,-6.87343e-6,94.884878)"><g
       id="g226591"
       clip-path="url(#clipPath226595)"><path
         d="m 159.20524,44.325 h 4.12062 v 8.870409 h -4.12062 z"
         style="fill:#2e8b57;fill-opacity:1;fill-rule:nonzero;stroke:none"
         id="path226597" /></g></g><g
     id="g226599"
     transform="matrix(0.35277776,0,0,-0.35277778,-6.87343e-6,94.884878)"><g
       id="g226601"
       clip-path="url(#clipPath226605)"><path
         d="m 169.50678,44.325 h 4.12061 v 7.446763 h -4.12061 z"
         style="fill:#2e8b57;fill-opacity:1;fill-rule:nonzero;stroke:none"
         id="path226607" /></g></g><g
     id="g226609"
     transform="matrix(0.35277776,0,0,-0.35277778,-6.87343e-6,94.884878)"><g
       id="g226611"
       clip-path="url(#clipPath226615)"><path
         d="m 179.80832,44.325 h 4.12061 v 4.161426 h -4.12061 z"
         style="fill:#2e8b57;fill-opacity:1;fill-rule:nonzero;stroke:none"
         id="path226617" /></g></g><g
     id="g226619"
     transform="matrix(0.35277776,0,0,-0.35277778,-6.87343e-6,94.884878)"><g
       id="g226621"
       clip-path="url(#clipPath226625)"><path
         d="m 190.10986,44.325 h 4.12061 v 3.504359 h -4.12061 z"
         style="fill:#2e8b57;fill-opacity:1;fill-rule:nonzero;stroke:none"
         id="path226627" /></g></g><g
     id="g226629"
     transform="matrix(0.35277776,0,0,-0.35277778,-6.87343e-6,94.884878)"><g
       id="g226631"
       clip-path="url(#clipPath226635)"><path
         d="m 200.41139,44.325 h 4.12062 v 2.956803 h -4.12062 z"
         style="fill:#2e8b57;fill-opacity:1;fill-rule:nonzero;stroke:none"
         id="path226637" /></g></g><g
     id="g226639"
     transform="matrix(0.35277776,0,0,-0.35277778,-6.87343e-6,94.884878)"><g
       id="g226641"
       clip-path="url(#clipPath226645)"><path
         d="m 210.71293,44.325 h 4.12062 v 2.73778 h -4.12062 z"
         style="fill:#2e8b57;fill-opacity:1;fill-rule:nonzero;stroke:none"
         id="path226647" /></g></g><g
     id="g226649"
     transform="matrix(0.35277776,0,0,-0.35277778,-6.87343e-6,94.884878)"><g
       id="g226651"
       clip-path="url(#clipPath226655)"><path
         d="m 221.01447,44.325 h 4.12062 v 1.204623 h -4.12062 z"
         style="fill:#2e8b57;fill-opacity:1;fill-rule:nonzero;stroke:none"
         id="path226657" /></g></g><g
     id="g226659"
     transform="matrix(0.35277776,0,0,-0.35277778,-6.87343e-6,94.884878)"><g
       id="g226661"
       clip-path="url(#clipPath226665)"><path
         d="m 231.31601,44.325 h 4.12061 v 1.095112 h -4.12061 z"
         style="fill:#2e8b57;fill-opacity:1;fill-rule:nonzero;stroke:none"
         id="path226667" /></g></g><g
     id="g226669"
     transform="matrix(0.35277776,0,0,-0.35277778,-6.87343e-6,94.884878)"><g
       id="g226671"
       clip-path="url(#clipPath226675)"><path
         d="m 241.61755,44.325 h 4.12061 v 0.438045 h -4.12061 z"
         style="fill:#2e8b57;fill-opacity:1;fill-rule:nonzero;stroke:none"
         id="path226677" /></g></g><g
     id="g226679"
     transform="matrix(0.35277776,0,0,-0.35277778,-6.87343e-6,94.884878)"><g
       id="g226681"
       clip-path="url(#clipPath226685)"><path
         d="m 251.91909,44.325 h 4.12061 v 0.438045 h -4.12061 z"
         style="fill:#2e8b57;fill-opacity:1;fill-rule:nonzero;stroke:none"
         id="path226687" /></g></g><g
     id="g226689"
     transform="matrix(0.35277776,0,0,-0.35277778,-6.87343e-6,94.884878)"><g
       id="g226691"
       clip-path="url(#clipPath226695)"><path
         d="m 262.22062,44.325 h 4.12062 v 0.109511 h -4.12062 z"
         style="fill:#2e8b57;fill-opacity:1;fill-rule:nonzero;stroke:none"
         id="path226697" /></g></g><g
     id="g226699"
     transform="matrix(0.35277776,0,0,-0.35277778,-6.87343e-6,94.884878)"><g
       id="g226701"
       clip-path="url(#clipPath226705)"><path
         d="m 272.52216,44.325 h 4.12062 v 0 z"
         style="fill:#2e8b57;fill-opacity:1;fill-rule:nonzero;stroke:none"
         id="path226707" /></g></g><g
     id="g226709"
     transform="matrix(0.35277776,0,0,-0.35277778,-6.87343e-6,94.884878)"><g
       id="g226711"
       clip-path="url(#clipPath226715)"><path
         d="m 282.8237,44.325 h 4.12062 v 0 z"
         style="fill:#2e8b57;fill-opacity:1;fill-rule:nonzero;stroke:none"
         id="path226717" /></g></g><g
     id="g226719"
     transform="matrix(0.35277776,0,0,-0.35277778,-6.87343e-6,94.884878)"><g
       id="g226721"
       clip-path="url(#clipPath226725)"><path
         d="m 293.12524,44.325 h 4.12062 v 0.328534 h -4.12062 z"
         style="fill:#2e8b57;fill-opacity:1;fill-rule:nonzero;stroke:none"
         id="path226727" /></g></g><g
     id="g226729"
     transform="matrix(0.35277776,0,0,-0.35277778,-6.87343e-6,94.884878)"><g
       id="g226731"
       clip-path="url(#clipPath226735)"><path
         d="m 303.42678,44.325 h 4.12061 v 0 z"
         style="fill:#2e8b57;fill-opacity:1;fill-rule:nonzero;stroke:none"
         id="path226737" /></g></g><g
     id="g226739"
     transform="matrix(0.35277776,0,0,-0.35277778,-6.87343e-6,94.884878)"><g
       id="g226741"
       clip-path="url(#clipPath226745)"><path
         d="m 313.72832,44.325 h 4.12061 v 0 z"
         style="fill:#2e8b57;fill-opacity:1;fill-rule:nonzero;stroke:none"
         id="path226747" /></g></g><g
     id="g226749"
     transform="matrix(0.35277776,0,0,-0.35277778,-6.87343e-6,94.884878)"><g
       id="g226751"
       clip-path="url(#clipPath226755)"><path
         d="m 324.02986,44.325 h 4.12061 v 0 z"
         style="fill:#2e8b57;fill-opacity:1;fill-rule:nonzero;stroke:none"
         id="path226757" /></g></g><g
     id="g226759"
     transform="matrix(0.35277776,0,0,-0.35277778,-6.87343e-6,94.884878)"><g
       id="g226761"
       clip-path="url(#clipPath226765)"><path
         d="m 334.33139,44.325 h 4.12062 v 0 z"
         style="fill:#2e8b57;fill-opacity:1;fill-rule:nonzero;stroke:none"
         id="path226767" /></g></g><g
     id="g226769"
     transform="matrix(0.35277776,0,0,-0.35277778,-6.87343e-6,94.884878)"><g
       id="g226771"
       clip-path="url(#clipPath226775)"><path
         d="m 344.63293,44.325 h 4.12062 v 0.109511 h -4.12062 z"
         style="fill:#2e8b57;fill-opacity:1;fill-rule:nonzero;stroke:none"
         id="path226777" /></g></g><g
     id="g226779"
     transform="matrix(0.35277776,0,0,-0.35277778,-6.87343e-6,94.884878)"><g
       id="g226781"
       clip-path="url(#clipPath226785)"><path
         d="m 354.93447,44.325 h 4.12062 v 0 z"
         style="fill:#2e8b57;fill-opacity:1;fill-rule:nonzero;stroke:none"
         id="path226787" /></g></g><g
     id="g226789"
     transform="matrix(0.35277776,0,0,-0.35277778,-6.87343e-6,94.884878)"><g
       id="g226791"
       clip-path="url(#clipPath226795)"><path
         d="m 365.23601,44.325 h 4.12061 v 0 z"
         style="fill:#2e8b57;fill-opacity:1;fill-rule:nonzero;stroke:none"
         id="path226797" /></g></g><g
     id="g226799"
     transform="matrix(0.35277776,0,0,-0.35277778,-6.87343e-6,94.884878)"><g
       id="g226801"
       clip-path="url(#clipPath226805)"><path
         d="m 375.53755,44.325 h 4.12061 v 0 z"
         style="fill:#2e8b57;fill-opacity:1;fill-rule:nonzero;stroke:none"
         id="path226807" /></g></g><g
     id="g226809"
     transform="matrix(0.35277776,0,0,-0.35277778,-6.87343e-6,94.884878)"><g
       id="g226811"
       clip-path="url(#clipPath226815)"><path
         d="m 385.83909,44.325 h 4.12061 v 0.109511 h -4.12061 z"
         style="fill:#2e8b57;fill-opacity:1;fill-rule:nonzero;stroke:none"
         id="path226817" /></g></g><g
     id="g226819"
     transform="matrix(0.35277776,0,0,-0.35277778,-6.87343e-6,94.884878)"
     style="stroke-width:1.98425;stroke-dasharray:none"><path
       d="m 61.340625,44.325 v -3.5"
       style="fill:#000000;fill-opacity:1;fill-rule:nonzero;stroke:#000000;stroke-width:1.98425;stroke-linecap:butt;stroke-linejoin:round;stroke-miterlimit:10;stroke-dasharray:none;stroke-opacity:1"
       id="path226821" /><g
       id="g226823"
       transform="translate(57.04375,27.075)"
       style="stroke-width:1.98425;stroke-dasharray:none"><text
         xml:space="preserve"
         transform="scale(1,-1)"
         style="font-variant:normal;font-weight:normal;font-size:13.5px;font-family:DejaVuSans;-inkscape-font-specification:DejaVuSans;writing-mode:lr-tb;fill:#000000;fill-opacity:1;fill-rule:nonzero;stroke:none;stroke-width:1.98425;stroke-dasharray:none"
         id="text226827"><tspan
           x="0"
           y="0"
           id="tspan226825"
           style="stroke-width:1.98425;stroke-dasharray:none">0</tspan></text></g><path
       d="m 125.72524,44.325 v -3.5"
       style="fill:#000000;fill-opacity:1;fill-rule:nonzero;stroke:#000000;stroke-width:1.98425;stroke-linecap:butt;stroke-linejoin:round;stroke-miterlimit:10;stroke-dasharray:none;stroke-opacity:1"
       id="path226829" /><g
       id="g226831"
       transform="translate(121.42837,27.075)"
       style="stroke-width:1.98425;stroke-dasharray:none"><text
         xml:space="preserve"
         transform="scale(1,-1)"
         style="font-variant:normal;font-weight:normal;font-size:13.5px;font-family:DejaVuSans;-inkscape-font-specification:DejaVuSans;writing-mode:lr-tb;fill:#000000;fill-opacity:1;fill-rule:nonzero;stroke:none;stroke-width:1.98425;stroke-dasharray:none"
         id="text226835"><tspan
           x="0"
           y="0"
           id="tspan226833"
           style="stroke-width:1.98425;stroke-dasharray:none">5</tspan></text></g><path
       d="m 190.10986,44.325 v -3.5"
       style="fill:#000000;fill-opacity:1;fill-rule:nonzero;stroke:#000000;stroke-width:1.98425;stroke-linecap:butt;stroke-linejoin:round;stroke-miterlimit:10;stroke-dasharray:none;stroke-opacity:1"
       id="path226837" /><g
       id="g226839"
       transform="translate(181.51611,27.075)"
       style="stroke-width:1.98425;stroke-dasharray:none"><text
         xml:space="preserve"
         transform="scale(1,-1)"
         style="font-variant:normal;font-weight:normal;font-size:13.5px;font-family:DejaVuSans;-inkscape-font-specification:DejaVuSans;writing-mode:lr-tb;fill:#000000;fill-opacity:1;fill-rule:nonzero;stroke:none;stroke-width:1.98425;stroke-dasharray:none"
         id="text226843"><tspan
           x="0 8.5860004"
           y="0"
           sodipodi:role="line"
           id="tspan226841">10</tspan></text></g><path
       d="m 254.49447,44.325 v -3.5"
       style="fill:#000000;fill-opacity:1;fill-rule:nonzero;stroke:#000000;stroke-width:1.98425;stroke-linecap:butt;stroke-linejoin:round;stroke-miterlimit:10;stroke-dasharray:none;stroke-opacity:1"
       id="path226845" /><g
       id="g226847"
       transform="translate(245.90072,27.075)"
       style="stroke-width:1.98425;stroke-dasharray:none"><text
         xml:space="preserve"
         transform="scale(1,-1)"
         style="font-variant:normal;font-weight:normal;font-size:13.5px;font-family:DejaVuSans;-inkscape-font-specification:DejaVuSans;writing-mode:lr-tb;fill:#000000;fill-opacity:1;fill-rule:nonzero;stroke:none;stroke-width:1.98425;stroke-dasharray:none"
         id="text226851"><tspan
           x="0 8.5860004"
           y="0"
           sodipodi:role="line"
           id="tspan226849">15</tspan></text></g><path
       d="m 318.87909,44.325 v -3.5"
       style="fill:#000000;fill-opacity:1;fill-rule:nonzero;stroke:#000000;stroke-width:1.98425;stroke-linecap:butt;stroke-linejoin:round;stroke-miterlimit:10;stroke-dasharray:none;stroke-opacity:1"
       id="path226853" /><g
       id="g226855"
       transform="translate(310.28534,27.075)"
       style="stroke-width:1.98425;stroke-dasharray:none"><text
         xml:space="preserve"
         transform="scale(1,-1)"
         style="font-variant:normal;font-weight:normal;font-size:13.5px;font-family:DejaVuSans;-inkscape-font-specification:DejaVuSans;writing-mode:lr-tb;fill:#000000;fill-opacity:1;fill-rule:nonzero;stroke:none;stroke-width:1.98425;stroke-dasharray:none"
         id="text226859"><tspan
           x="0 8.5860004"
           y="0"
           sodipodi:role="line"
           id="tspan226857">20</tspan></text></g><path
       d="m 383.2637,44.325 v -3.5"
       style="fill:#000000;fill-opacity:1;fill-rule:nonzero;stroke:#000000;stroke-width:1.98425;stroke-linecap:butt;stroke-linejoin:round;stroke-miterlimit:10;stroke-dasharray:none;stroke-opacity:1"
       id="path226861" /><g
       id="g226863"
       transform="translate(374.66995,27.075)"
       style="stroke-width:1.98425;stroke-dasharray:none"><text
         xml:space="preserve"
         transform="scale(1,-1)"
         style="font-variant:normal;font-weight:normal;font-size:13.5px;font-family:DejaVuSans;-inkscape-font-specification:DejaVuSans;writing-mode:lr-tb;fill:#000000;fill-opacity:1;fill-rule:nonzero;stroke:none;stroke-width:1.98425;stroke-dasharray:none"
         id="text226867"><tspan
           x="0 8.5860004"
           y="0"
           sodipodi:role="line"
           id="tspan226865">25</tspan></text></g><path
       d="m 61.340625,44.325 h -3.5"
       style="fill:#000000;fill-opacity:1;fill-rule:nonzero;stroke:#000000;stroke-width:1.98425;stroke-linecap:butt;stroke-linejoin:round;stroke-miterlimit:10;stroke-dasharray:none;stroke-opacity:1"
       id="path226875" /><g
       id="g226877"
       transform="translate(24.2625,39.2)"
       style="stroke-width:1.98425;stroke-dasharray:none"><text
         xml:space="preserve"
         transform="scale(1,-1)"
         style="font-variant:normal;font-weight:normal;font-size:13.5px;font-family:DejaVuSans;-inkscape-font-specification:DejaVuSans;writing-mode:lr-tb;fill:#000000;fill-opacity:1;fill-rule:nonzero;stroke:none;stroke-width:1.98425;stroke-dasharray:none"
         id="text226881"><tspan
           x="0 8.5860004 12.879 21.465"
           y="0"
           sodipodi:role="line"
           id="tspan226879">0.00</tspan></text></g><path
       d="m 61.340625,77.046952 h -3.5"
       style="fill:#000000;fill-opacity:1;fill-rule:nonzero;stroke:#000000;stroke-width:1.98425;stroke-linecap:butt;stroke-linejoin:round;stroke-miterlimit:10;stroke-dasharray:none;stroke-opacity:1"
       id="path226883" /><g
       id="g226885"
       transform="translate(24.2625,71.921952)"
       style="stroke-width:1.98425;stroke-dasharray:none"><text
         xml:space="preserve"
         transform="scale(1,-1)"
         style="font-variant:normal;font-weight:normal;font-size:13.5px;font-family:DejaVuSans;-inkscape-font-specification:DejaVuSans;writing-mode:lr-tb;fill:#000000;fill-opacity:1;fill-rule:nonzero;stroke:none;stroke-width:1.98425;stroke-dasharray:none"
         id="text226889"><tspan
           x="0 8.5860004 12.879 21.465"
           y="0"
           sodipodi:role="line"
           id="tspan226887">0.05</tspan></text></g><path
       d="m 61.340625,109.7689 h -3.5"
       style="fill:#000000;fill-opacity:1;fill-rule:nonzero;stroke:#000000;stroke-width:1.98425;stroke-linecap:butt;stroke-linejoin:round;stroke-miterlimit:10;stroke-dasharray:none;stroke-opacity:1"
       id="path226891" /><g
       id="g226893"
       transform="translate(24.2625,104.6439)"
       style="stroke-width:1.98425;stroke-dasharray:none"><text
         xml:space="preserve"
         transform="scale(1,-1)"
         style="font-variant:normal;font-weight:normal;font-size:13.5px;font-family:DejaVuSans;-inkscape-font-specification:DejaVuSans;writing-mode:lr-tb;fill:#000000;fill-opacity:1;fill-rule:nonzero;stroke:none;stroke-width:1.98425;stroke-dasharray:none"
         id="text226897"><tspan
           x="0 8.5860004 12.879 21.465"
           y="0"
           sodipodi:role="line"
           id="tspan226895">0.10</tspan></text></g><path
       d="m 61.340625,142.49086 h -3.5"
       style="fill:#000000;fill-opacity:1;fill-rule:nonzero;stroke:#000000;stroke-width:1.98425;stroke-linecap:butt;stroke-linejoin:round;stroke-miterlimit:10;stroke-dasharray:none;stroke-opacity:1"
       id="path226899" /><g
       id="g226901"
       transform="translate(24.2625,137.36586)"
       style="stroke-width:1.98425;stroke-dasharray:none"><text
         xml:space="preserve"
         transform="scale(1,-1)"
         style="font-variant:normal;font-weight:normal;font-size:13.5px;font-family:DejaVuSans;-inkscape-font-specification:DejaVuSans;writing-mode:lr-tb;fill:#000000;fill-opacity:1;fill-rule:nonzero;stroke:none;stroke-width:1.98425;stroke-dasharray:none"
         id="text226905"><tspan
           x="0 8.5860004 12.879 21.465"
           y="0"
           sodipodi:role="line"
           id="tspan226903">0.15</tspan></text></g><path
       d="m 61.340625,175.21281 h -3.5"
       style="fill:#000000;fill-opacity:1;fill-rule:nonzero;stroke:#000000;stroke-width:1.98425;stroke-linecap:butt;stroke-linejoin:round;stroke-miterlimit:10;stroke-dasharray:none;stroke-opacity:1"
       id="path226907" /><g
       id="g226909"
       transform="translate(24.2625,170.08781)"
       style="stroke-width:1.98425;stroke-dasharray:none"><text
         xml:space="preserve"
         transform="scale(1,-1)"
         style="font-variant:normal;font-weight:normal;font-size:13.5px;font-family:DejaVuSans;-inkscape-font-specification:DejaVuSans;writing-mode:lr-tb;fill:#000000;fill-opacity:1;fill-rule:nonzero;stroke:none;stroke-width:1.98425;stroke-dasharray:none"
         id="text226913"><tspan
           x="0 8.5860004 12.879 21.465"
           y="0"
           sodipodi:role="line"
           id="tspan226911">0.20</tspan></text></g><path
       d="m 61.340625,207.93476 h -3.5"
       style="fill:#000000;fill-opacity:1;fill-rule:nonzero;stroke:#000000;stroke-width:1.98425;stroke-linecap:butt;stroke-linejoin:round;stroke-miterlimit:10;stroke-dasharray:none;stroke-opacity:1"
       id="path226915" /><g
       id="g226917"
       transform="translate(24.2625,202.80976)"
       style="stroke-width:1.98425;stroke-dasharray:none"><text
         xml:space="preserve"
         transform="scale(1,-1)"
         style="font-variant:normal;font-weight:normal;font-size:13.5px;font-family:DejaVuSans;-inkscape-font-specification:DejaVuSans;writing-mode:lr-tb;fill:#000000;fill-opacity:1;fill-rule:nonzero;stroke:none;stroke-width:1.98425;stroke-dasharray:none"
         id="text226921"><tspan
           x="0 8.5860004 12.879 21.465"
           y="0"
           sodipodi:role="line"
           id="tspan226919">0.25</tspan></text></g><path
       d="m 61.340625,240.65671 h -3.5"
       style="fill:#000000;fill-opacity:1;fill-rule:nonzero;stroke:#000000;stroke-width:1.98425;stroke-linecap:butt;stroke-linejoin:round;stroke-miterlimit:10;stroke-dasharray:none;stroke-opacity:1"
       id="path226923" /><g
       id="g226925"
       transform="translate(24.2625,235.53171)"
       style="stroke-width:1.98425;stroke-dasharray:none"><text
         xml:space="preserve"
         transform="scale(1,-1)"
         style="font-variant:normal;font-weight:normal;font-size:13.5px;font-family:DejaVuSans;-inkscape-font-specification:DejaVuSans;writing-mode:lr-tb;fill:#000000;fill-opacity:1;fill-rule:nonzero;stroke:none;stroke-width:1.98425;stroke-dasharray:none"
         id="text226929"><tspan
           x="0 8.5860004 12.879 21.465"
           y="0"
           sodipodi:role="line"
           id="tspan226927">0.30</tspan></text></g><path
       d="m 61.340625,44.325 v 217.44"
       style="fill:none;stroke:#000000;stroke-width:1.98425;stroke-linecap:square;stroke-linejoin:miter;stroke-miterlimit:10;stroke-dasharray:none;stroke-opacity:1"
       id="path226937" /><path
       d="m 396.14063,44.325 v 217.44"
       style="fill:none;stroke:#000000;stroke-width:1.98425;stroke-linecap:square;stroke-linejoin:miter;stroke-miterlimit:10;stroke-dasharray:none;stroke-opacity:1"
       id="path226939" /><path
       d="M 61.340625,44.325 H 396.14063"
       style="fill:none;stroke:#000000;stroke-width:1.98425;stroke-linecap:square;stroke-linejoin:miter;stroke-miterlimit:10;stroke-dasharray:none;stroke-opacity:1"
       id="path226941" /><path
       d="M 61.340625,261.765 H 396.14063"
       style="fill:none;stroke:#000000;stroke-width:1.98425;stroke-linecap:square;stroke-linejoin:miter;stroke-miterlimit:10;stroke-dasharray:none;stroke-opacity:1"
       id="path226943" /><path
       d="m 222.3375,191.5275 h 164.35312 c 1.8,0 2.7,0.9 2.7,2.7 v 58.0875 c 0,1.8 -0.9,2.7 -2.7,2.7 H 222.3375 c -1.8,0 -2.7,-0.9 -2.7,-2.7 v -58.0875 c 0,-1.8 0.9,-2.7 2.7,-2.7 z"
       style="fill:#ffffff;fill-opacity:0.8;fill-rule:nonzero;stroke:#cccccc;stroke-width:1.98425;stroke-linecap:butt;stroke-linejoin:miter;stroke-miterlimit:10;stroke-dasharray:none;stroke-opacity:0.8"
       id="path226945" /><g
       id="g226947"
       transform="translate(225.0375,239.365)"
       style="stroke-width:1.98425;stroke-dasharray:none"><g
         aria-label="Average transition time"
         transform="scale(1,-1)"
         id="text226951"
         style="font-size:13.5px;font-family:DejaVuSans;-inkscape-font-specification:DejaVuSans;stroke-width:1.98425;stroke-dasharray:none"><path
           d="M 9.0571289,0 H 7.6662598 L 6.7038574,-2.7355957 H 2.4587402 L 1.4963379,0 H 0.17138672 L 3.7441406,-9.8151855 H 5.484375 Z M 6.3017578,-3.8562012 4.5812988,-8.6748047 2.854248,-3.8562012 Z"
           id="path235839"
           style="stroke-width:1.98425;stroke-dasharray:none" /><path
           d="M 16.039908,-7.3630371 13.060416,0 H 11.814567 L 8.8548498,-7.3630371 h 1.3447262 l 2.280762,5.8601074 2.260986,-5.8601074 z"
           id="path235841"
           style="stroke-width:1.98425;stroke-dasharray:none" /><path
           d="m 23.827562,-3.5529785 h -5.425048 q 0,0.6789551 0.204345,1.1865234 0.204346,0.5009766 0.560303,0.8239746 0.342773,0.3164063 0.810791,0.4746094 0.474609,0.15820313 1.041504,0.15820313 0.751465,0 1.509521,-0.29663083 0.764649,-0.3032227 1.087647,-0.5932617 h 0.06592 v 1.35131831 q -0.626221,0.26367188 -1.278809,0.44165039 -0.652588,0.17797852 -1.371094,0.17797852 -1.832519,0 -2.860839,-0.98876953 -1.028321,-0.99536129 -1.028321,-2.82128909 0,-1.8061523 0.982178,-2.8674316 0.98877,-1.0612793 2.597168,-1.0612793 1.489746,0 2.293945,0.8701172 0.810791,0.8701172 0.810791,2.4719238 z m -1.206298,-0.9492188 q -0.0066,-0.9755859 -0.494385,-1.5095214 -0.481201,-0.5339356 -1.469971,-0.5339356 -0.995361,0 -1.588623,0.5866699 -0.58667,0.5866699 -0.665771,1.4567871 z"
           id="path235843"
           style="stroke-width:1.98425;stroke-dasharray:none" /><path
           d="m 30.561214,-6.0117187 h -0.06592 q -0.276855,-0.065918 -0.540527,-0.092285 -0.25708,-0.032959 -0.613037,-0.032959 -0.573486,0 -1.107422,0.2570801 -0.533935,0.2504883 -1.02832,0.6525879 V 0 H 25.96673 v -7.3630371 h 1.239258 v 1.0876465 q 0.738281,-0.5932617 1.298584,-0.8371582 0.566894,-0.2504883 1.153564,-0.2504883 0.322998,0 0.468018,0.019775 0.145019,0.013184 0.435058,0.059326 z"
           id="path235845"
           style="stroke-width:1.98425;stroke-dasharray:none" /><path
           d="m 37.236912,0 h -1.232666 v -0.78442383 q -0.164795,0.11206055 -0.448242,0.31640625 -0.276856,0.19775391 -0.540528,0.31640625 Q 34.705662,0 34.303562,0.09887695 33.901463,0.2043457 33.360935,0.2043457 q -0.995361,0 -1.6875,-0.65917968 -0.692138,-0.65917972 -0.692138,-1.68090822 0,-0.8371582 0.355957,-1.3513183 0.362548,-0.520752 1.02832,-0.8173829 0.672363,-0.2966308 1.61499,-0.4020996 0.942627,-0.1054687 2.023682,-0.1582031 v -0.1911621 q 0,-0.421875 -0.151612,-0.6987305 -0.145019,-0.2768554 -0.421875,-0.4350586 -0.263671,-0.1516113 -0.632812,-0.2043457 -0.369141,-0.052734 -0.77124,-0.052734 -0.487793,0 -1.087647,0.1318359 -0.599853,0.1252441 -1.239258,0.3691406 h -0.06592 V -7.204834 q 0.362549,-0.098877 1.048096,-0.2175293 0.685547,-0.1186523 1.351318,-0.1186523 0.777833,0 1.351319,0.1318359 0.580078,0.1252442 1.001953,0.4350586 0.415283,0.3032227 0.632812,0.7844238 0.21753,0.4812012 0.21753,1.1931153 z M 36.004246,-1.8127441 V -3.862793 q -0.566895,0.032959 -1.338135,0.098877 -0.764648,0.065918 -1.212891,0.1911621 -0.533935,0.1516113 -0.863525,0.4746094 -0.32959,0.3164062 -0.32959,0.876709 0,0.6328125 0.382324,0.9558105 0.382325,0.31640625 1.166748,0.31640625 0.652588,0 1.193116,-0.25048825 0.540527,-0.2570801 1.001953,-0.6130371 z"
           id="path235847"
           style="stroke-width:1.98425;stroke-dasharray:none" /><path
           d="m 45.762901,-0.8371582 q 0,1.8720703 -0.850341,2.7487793 -0.850342,0.876709 -2.616944,0.876709 -0.58667,0 -1.146973,-0.085693 -0.55371,-0.079101 -1.094238,-0.2307129 v -1.265625 h 0.06592 q 0.303223,0.1186524 0.962403,0.2900391 0.659179,0.1779785 1.318359,0.1779785 0.632812,0 1.048096,-0.1516113 0.415283,-0.1516114 0.645996,-0.421875 0.230713,-0.2570801 0.32959,-0.61962893 0.09888,-0.36254883 0.09888,-0.81079101 V -1.0019531 q -0.560302,0.44824216 -1.074462,0.67236326 -0.507569,0.21752929 -1.298584,0.21752929 -1.31836,0 -2.096192,-0.94921875 -0.77124,-0.9558105 -0.77124,-2.6894531 0,-0.9492188 0.263672,-1.6347656 0.270264,-0.6921387 0.731689,-1.1931153 0.428467,-0.4680176 1.041504,-0.7250976 0.613037,-0.2636719 1.219483,-0.2636719 0.639404,0 1.067871,0.1318359 0.435058,0.1252442 0.916259,0.388916 l 0.0791,-0.3164062 h 1.160156 z m -1.239258,-1.1865234 v -4.0144043 q -0.494384,-0.2241211 -0.922851,-0.3164063 -0.421875,-0.098877 -0.84375,-0.098877 -1.021729,0 -1.608399,0.6855468 -0.586669,0.6855469 -0.586669,1.9907227 0,1.2392578 0.435058,1.8786621 0.435059,0.6394043 1.443604,0.6394043 0.540527,0 1.081054,-0.2043457 0.54712,-0.2109375 1.001953,-0.5603026 z"
           id="path235849"
           style="stroke-width:1.98425;stroke-dasharray:none" /><path
           d="m 54.526562,-3.5529785 h -5.425049 q 0,0.6789551 0.204346,1.1865234 0.204345,0.5009766 0.560302,0.8239746 0.342774,0.3164063 0.810791,0.4746094 0.47461,0.15820313 1.041504,0.15820313 0.751465,0 1.509522,-0.29663083 0.764648,-0.3032227 1.087646,-0.5932617 h 0.06592 v 1.35131831 q -0.62622,0.26367188 -1.278808,0.44165039 -0.652588,0.17797852 -1.371094,0.17797852 -1.83252,0 -2.86084,-0.98876953 -1.02832,-0.99536129 -1.02832,-2.82128909 0,-1.8061523 0.982177,-2.8674316 0.98877,-1.0612793 2.597168,-1.0612793 1.489747,0 2.293946,0.8701172 0.810791,0.8701172 0.810791,2.4719238 z m -1.206299,-0.9492188 q -0.0066,-0.9755859 -0.494385,-1.5095214 -0.481201,-0.5339356 -1.469971,-0.5339356 -0.995361,0 -1.588623,0.5866699 -0.58667,0.5866699 -0.665771,1.4567871 z"
           id="path235851"
           style="stroke-width:1.98425;stroke-dasharray:none" /><path
           d="m 64.781975,-0.06591797 q -0.349365,0.09228516 -0.764649,0.15161133 -0.408691,0.05932617 -0.731689,0.05932617 -1.127197,0 -1.713867,-0.60644531 Q 60.9851,-1.0678711 60.9851,-2.4060059 V -6.3215332 H 60.147942 V -7.3630371 H 60.9851 v -2.1159668 h 1.239258 v 2.1159668 h 2.557617 v 1.0415039 h -2.557617 v 3.3552246 q 0,0.5800781 0.02637,0.909668 0.02637,0.322998 0.18457,0.6064453 0.14502,0.2636719 0.395508,0.388916 0.25708,0.11865235 0.777832,0.11865235 0.303223,0 0.632812,-0.0856934 0.32959,-0.092285 0.47461,-0.1516113 h 0.06592 z"
           id="path235853"
           style="stroke-width:1.98425;stroke-dasharray:none" /><path
           d="m 70.845215,-6.0117187 h -0.06592 q -0.276856,-0.065918 -0.540527,-0.092285 -0.257081,-0.032959 -0.613038,-0.032959 -0.573486,0 -1.107421,0.2570801 -0.533936,0.2504883 -1.028321,0.6525879 V 0 H 66.25073 v -7.3630371 h 1.239258 v 1.0876465 q 0.738281,-0.5932617 1.298584,-0.8371582 0.566895,-0.2504883 1.153565,-0.2504883 0.322998,0 0.468017,0.019775 0.14502,0.013184 0.435059,0.059326 z"
           id="path235855"
           style="stroke-width:1.98425;stroke-dasharray:none" /><path
           d="m 77.520912,0 h -1.232666 v -0.78442383 q -0.164795,0.11206055 -0.448242,0.31640625 -0.276856,0.19775391 -0.540527,0.31640625 Q 74.989662,0 74.587563,0.09887695 q -0.4021,0.10546875 -0.942627,0.10546875 -0.995362,0 -1.6875,-0.65917968 -0.692139,-0.65917972 -0.692139,-1.68090822 0,-0.8371582 0.355957,-1.3513183 0.362549,-0.520752 1.02832,-0.8173829 0.672364,-0.2966308 1.614991,-0.4020996 0.942626,-0.1054687 2.023681,-0.1582031 v -0.1911621 q 0,-0.421875 -0.151611,-0.6987305 -0.14502,-0.2768554 -0.421875,-0.4350586 -0.263672,-0.1516113 -0.632813,-0.2043457 -0.36914,-0.052734 -0.77124,-0.052734 -0.487793,0 -1.087646,0.1318359 -0.599854,0.1252441 -1.239258,0.3691406 h -0.06592 V -7.204834 q 0.362549,-0.098877 1.048096,-0.2175293 0.685546,-0.1186523 1.351318,-0.1186523 0.777832,0 1.351318,0.1318359 0.580078,0.1252442 1.001953,0.4350586 0.415284,0.3032227 0.632813,0.7844238 0.217529,0.4812012 0.217529,1.1931153 z M 76.288246,-1.8127441 V -3.862793 q -0.566894,0.032959 -1.338135,0.098877 -0.764648,0.065918 -1.21289,0.1911621 -0.533936,0.1516113 -0.863526,0.4746094 -0.329589,0.3164062 -0.329589,0.876709 0,0.6328125 0.382324,0.9558105 0.382324,0.31640625 1.166748,0.31640625 0.652588,0 1.193115,-0.25048825 0.540527,-0.2570801 1.001953,-0.6130371 z"
           id="path235857"
           style="stroke-width:1.98425;stroke-dasharray:none" /><path
           d="M 86.231468,0 H 84.99221 v -4.1923828 q 0,-0.5075684 -0.05933,-0.9492188 -0.05933,-0.4482421 -0.217529,-0.6987304 -0.164795,-0.2768555 -0.474609,-0.4086914 -0.309815,-0.1384278 -0.8042,-0.1384278 -0.507568,0 -1.061279,0.2504883 -0.553711,0.2504883 -1.061279,0.6394043 V 0 H 80.07473 v -7.3630371 h 1.239258 v 0.8173828 q 0.580078,-0.4812012 1.199707,-0.7514648 0.619629,-0.2702637 1.272217,-0.2702637 1.193115,0 1.819335,0.7185058 0.626221,0.7185059 0.626221,2.0698243 z"
           id="path235859"
           style="stroke-width:1.98425;stroke-dasharray:none" /><path
           d="m 93.89399,-2.1225586 q 0,1.0085449 -0.837159,1.65454102 -0.830566,0.6459961 -2.27417,0.6459961 -0.817382,0 -1.502929,-0.19116211 -0.678955,-0.19775391 -1.140381,-0.4284668 V -1.8325195 h 0.06592 q 0.58667,0.4416504 1.305176,0.7053222 0.718506,0.25708011 1.377685,0.25708011 0.817383,0 1.278809,-0.26367191 0.461426,-0.2636718 0.461426,-0.8305664 0,-0.4350586 -0.250489,-0.6591797 -0.250488,-0.2241211 -0.962402,-0.3823242 -0.263672,-0.059326 -0.692139,-0.1384277 -0.421875,-0.079102 -0.77124,-0.1713867 -0.968994,-0.2570801 -1.377686,-0.7514649 -0.402099,-0.5009765 -0.402099,-1.2260742 0,-0.454834 0.18457,-0.8569336 0.191162,-0.4020996 0.573487,-0.7185058 0.36914,-0.3098145 0.936035,-0.487793 0.573486,-0.1845703 1.278808,-0.1845703 0.65918,0 1.331543,0.1647949 0.678955,0.1582031 1.127198,0.388916 v 1.3249512 h -0.06592 q -0.47461,-0.3493652 -1.153565,-0.5866699 -0.678955,-0.2438965 -1.331543,-0.2438965 -0.678955,0 -1.146973,0.2636719 -0.468017,0.25708 -0.468017,0.7712402 0,0.454834 0.283447,0.6855469 0.276856,0.2307129 0.896485,0.3757324 0.342773,0.079102 0.764648,0.1582031 0.428467,0.079102 0.711914,0.1450195 0.863525,0.1977539 1.331543,0.6789551 0.468018,0.487793 0.468018,1.2919922 z"
           id="path235861"
           style="stroke-width:1.98425;stroke-dasharray:none" /><path
           d="m 96.998772,-8.5957031 h -1.397461 v -1.2854004 h 1.397461 z M 96.91967,0 h -1.239258 v -7.3630371 h 1.239258 z"
           id="path235863"
           style="stroke-width:1.98425;stroke-dasharray:none" /><path
           d="m 103.24348,-0.06591797 q -0.34937,0.09228516 -0.76465,0.15161133 -0.40869,0.05932617 -0.73169,0.05932617 -1.1272,0 -1.71387,-0.60644531 -0.586668,-0.60644532 -0.586668,-1.94458012 v -3.9155273 h -0.837158 v -1.0415039 h 0.837158 v -2.1159668 h 1.239258 v 2.1159668 h 2.55762 v 1.0415039 h -2.55762 v 3.3552246 q 0,0.5800781 0.0264,0.909668 0.0264,0.322998 0.18457,0.6064453 0.14502,0.2636719 0.3955,0.388916 0.25709,0.11865235 0.77784,0.11865235 0.30322,0 0.63281,-0.0856934 0.32959,-0.092285 0.47461,-0.1516113 h 0.0659 z"
           id="path235865"
           style="stroke-width:1.98425;stroke-dasharray:none" /><path
           d="m 106.04378,-8.5957031 h -1.39746 v -1.2854004 h 1.39746 z M 105.96468,0 h -1.23926 v -7.3630371 h 1.23926 z"
           id="path235867"
           style="stroke-width:1.98425;stroke-dasharray:none" /><path
           d="m 114.74062,-3.6782227 q 0,1.7995606 -0.92285,2.8410645 -0.92285,1.0415039 -2.47192,1.0415039 -1.56226,0 -2.48511,-1.0415039 -0.91626,-1.0415039 -0.91626,-2.8410645 0,-1.7995605 0.91626,-2.8410644 0.92285,-1.0480957 2.48511,-1.0480957 1.54907,0 2.47192,1.0480957 0.92285,1.0415039 0.92285,2.8410644 z m -1.27881,0 q 0,-1.4304199 -0.5603,-2.1225585 -0.5603,-0.6987305 -1.55566,-0.6987305 -1.00855,0 -1.56885,0.6987305 -0.55371,0.6921386 -0.55371,2.1225585 0,1.3842774 0.5603,2.1027832 0.5603,0.71191411 1.56226,0.71191411 0.98877,0 1.54907,-0.70532231 0.56689,-0.711914 0.56689,-2.109375 z"
           id="path235869"
           style="stroke-width:1.98425;stroke-dasharray:none" /><path
           d="m 122.88397,0 h -1.23926 v -4.1923828 q 0,-0.5075684 -0.0593,-0.9492188 -0.0593,-0.4482421 -0.21753,-0.6987304 -0.1648,-0.2768555 -0.47461,-0.4086914 -0.30981,-0.1384278 -0.8042,-0.1384278 -0.50757,0 -1.06128,0.2504883 -0.55371,0.2504883 -1.06128,0.6394043 V 0 h -1.23926 v -7.3630371 h 1.23926 v 0.8173828 q 0.58008,-0.4812012 1.19971,-0.7514648 0.61963,-0.2702637 1.27222,-0.2702637 1.19311,0 1.81933,0.7185058 0.62622,0.7185059 0.62622,2.0698243 z"
           id="path235871"
           style="stroke-width:1.98425;stroke-dasharray:none" /><path
           d="m 133.40248,-0.06591797 q -0.34936,0.09228516 -0.76465,0.15161133 -0.40869,0.05932617 -0.73169,0.05932617 -1.12719,0 -1.71386,-0.60644531 -0.58667,-0.60644532 -0.58667,-1.94458012 v -3.9155273 h -0.83716 v -1.0415039 h 0.83716 v -2.1159668 h 1.23925 v 2.1159668 h 2.55762 v 1.0415039 h -2.55762 v 3.3552246 q 0,0.5800781 0.0264,0.909668 0.0264,0.322998 0.18457,0.6064453 0.14502,0.2636719 0.39551,0.388916 0.25708,0.11865235 0.77783,0.11865235 0.30322,0 0.63281,-0.0856934 0.32959,-0.092285 0.47461,-0.1516113 h 0.0659 z"
           id="path235873"
           style="stroke-width:1.98425;stroke-dasharray:none" /><path
           d="m 136.20277,-8.5957031 h -1.39746 v -1.2854004 h 1.39746 z M 136.12367,0 h -1.23926 v -7.3630371 h 1.23926 z"
           id="path235875"
           style="stroke-width:1.98425;stroke-dasharray:none" /><path
           d="m 149.36887,0 h -1.23926 v -4.1923828 q 0,-0.4746094 -0.0461,-0.9162598 -0.0396,-0.4416504 -0.17798,-0.7053222 -0.15161,-0.2834473 -0.43506,-0.4284668 -0.28345,-0.1450196 -0.81738,-0.1450196 -0.52076,0 -1.04151,0.2636719 -0.52075,0.2570801 -1.0415,0.6591797 0.0198,0.1516113 0.033,0.355957 0.0132,0.1977539 0.0132,0.3955078 V 0 h -1.23926 v -4.1923828 q 0,-0.487793 -0.0461,-0.9228516 -0.0395,-0.4416504 -0.17798,-0.7053222 -0.15161,-0.2834473 -0.43506,-0.421875 -0.28344,-0.1450196 -0.81738,-0.1450196 -0.50757,0 -1.02173,0.2504883 -0.50757,0.2504883 -1.01514,0.6394043 V 0 h -1.23925 v -7.3630371 h 1.23925 v 0.8173828 q 0.58008,-0.4812012 1.15357,-0.7514648 0.58008,-0.2702637 1.23267,-0.2702637 0.75146,0 1.27221,0.3164062 0.52735,0.3164063 0.78443,0.876709 0.75146,-0.6328125 1.37109,-0.9096679 0.61963,-0.2834473 1.32495,-0.2834473 1.21289,0 1.78638,0.7382812 0.58008,0.7316895 0.58008,2.0500489 z"
           id="path235877"
           style="stroke-width:1.98425;stroke-dasharray:none" /><path
           d="m 157.93657,-3.5529785 h -5.42505 q 0,0.6789551 0.20435,1.1865234 0.20434,0.5009766 0.5603,0.8239746 0.34277,0.3164063 0.81079,0.4746094 0.47461,0.15820313 1.0415,0.15820313 0.75147,0 1.50953,-0.29663083 0.76464,-0.3032227 1.08764,-0.5932617 h 0.0659 v 1.35131831 q -0.62622,0.26367188 -1.27881,0.44165039 -0.65259,0.17797852 -1.37109,0.17797852 -1.83252,0 -2.86084,-0.98876953 -1.02832,-0.99536129 -1.02832,-2.82128909 0,-1.8061523 0.98217,-2.8674316 0.98877,-1.0612793 2.59717,-1.0612793 1.48975,0 2.29395,0.8701172 0.81079,0.8701172 0.81079,2.4719238 z m -1.2063,-0.9492188 q -0.007,-0.9755859 -0.49438,-1.5095214 -0.48121,-0.5339356 -1.46998,-0.5339356 -0.99536,0 -1.58862,0.5866699 -0.58667,0.5866699 -0.66577,1.4567871 z"
           id="path235879"
           style="stroke-width:1.98425;stroke-dasharray:none" /></g></g><path
       d="m 234.43437,219.5525 h 27 v 9.45 h -27 z"
       style="fill:#ff7f50;fill-opacity:1;fill-rule:nonzero;stroke:none;stroke-width:1.98425;stroke-dasharray:none"
       id="path226953" /><g
       id="g226955"
       transform="translate(272.23437,219.5525)"
       style="stroke-width:1.98425;stroke-dasharray:none"><g
         aria-label="True: 2.34"
         transform="scale(1,-1)"
         id="text226959"
         style="font-size:13.5px;font-family:DejaVuSans;-inkscape-font-specification:DejaVuSans;stroke-width:1.98425;stroke-dasharray:none"><path
           d="M 8.3188477,-8.6550293 H 4.8120117 V 0 H 3.5068359 V -8.6550293 H 0 v -1.1601562 h 8.3188477 z"
           id="path235882"
           style="stroke-width:1.98425;stroke-dasharray:none" /><path
           d="m 12.07809,-6.0117187 h -0.06592 q -0.276856,-0.065918 -0.540528,-0.092285 -0.25708,-0.032959 -0.613037,-0.032959 -0.573486,0 -1.1074216,0.2570801 -0.5339355,0.2504883 -1.0283203,0.6525879 V 0 H 7.4836073 v -7.3630371 h 1.2392578 v 1.0876465 q 0.7382813,-0.5932617 1.2985839,-0.8371582 0.566895,-0.2504883 1.153565,-0.2504883 0.322998,0 0.468017,0.019775 0.14502,0.013184 0.435059,0.059326 z"
           id="path235884"
           style="stroke-width:1.98425;stroke-dasharray:none" /><path
           d="m 19.136111,0 h -1.239258 v -0.81738281 q -0.62622,0.49438476 -1.199707,0.75805664 -0.573486,0.26367187 -1.265625,0.26367187 -1.160156,0 -1.806152,-0.70532226 -0.645996,-0.71191404 -0.645996,-2.08300784 v -4.7790527 h 1.239258 v 4.1923828 q 0,0.5603027 0.05273,0.9624023 0.05274,0.3955079 0.224121,0.6789551 0.177979,0.2900391 0.461426,0.421875 0.283447,0.13183596 0.823975,0.13183596 0.481201,0 1.048095,-0.25048826 0.573487,-0.2504883 1.067871,-0.6394043 v -5.4975586 h 1.239258 z"
           id="path235886"
           style="stroke-width:1.98425;stroke-dasharray:none" /><path
           d="M 27.754438,-3.5529785 H 22.32939 q 0,0.6789551 0.204345,1.1865234 0.204346,0.5009766 0.560303,0.8239746 0.342773,0.3164063 0.810791,0.4746094 0.474609,0.15820313 1.041504,0.15820313 0.751465,0 1.509521,-0.29663083 0.764649,-0.3032227 1.087647,-0.5932617 h 0.06592 v 1.35131831 q -0.626221,0.26367188 -1.278809,0.44165039 -0.652588,0.17797852 -1.371093,0.17797852 -1.83252,0 -2.86084,-0.98876953 -1.028321,-0.99536129 -1.028321,-2.82128909 0,-1.8061523 0.982178,-2.8674316 0.98877,-1.0612793 2.597168,-1.0612793 1.489746,0 2.293945,0.8701172 0.810791,0.8701172 0.810791,2.4719238 z M 26.54814,-4.5021973 q -0.0066,-0.9755859 -0.494385,-1.5095214 -0.481201,-0.5339356 -1.469971,-0.5339356 -0.995361,0 -1.588623,0.5866699 -0.58667,0.5866699 -0.665771,1.4567871 z"
           id="path235888"
           style="stroke-width:1.98425;stroke-dasharray:none" /><path
           d="m 32.530327,-5.484375 h -1.57544 v -1.8786621 h 1.57544 z m 0,5.484375 h -1.57544 v -1.8786621 h 1.57544 z"
           id="path235890"
           style="stroke-width:1.98425;stroke-dasharray:none" /><path
           d="m 45.222435,0 h -6.644531 v -1.3776855 q 0.692138,-0.5932618 1.384277,-1.1865235 0.698731,-0.5932617 1.298584,-1.1799316 1.265625,-1.2260742 1.733643,-1.9445801 0.468017,-0.7250977 0.468017,-1.5622559 0,-0.7646484 -0.507568,-1.1931152 -0.500977,-0.4350586 -1.404053,-0.4350586 -0.599853,0 -1.298584,0.2109375 -0.69873,0.2109375 -1.364502,0.6459961 H 38.8218 v -1.3842773 q 0.468018,-0.2307129 1.24585,-0.421875 0.784424,-0.1911619 1.516113,-0.1911619 1.509522,0 2.366455,0.7316892 0.856934,0.7250977 0.856934,1.9709473 0,0.5603027 -0.14502,1.0480957 -0.138427,0.4812011 -0.415283,0.9162597 -0.25708,0.4086914 -0.606445,0.8041993 -0.342774,0.3955078 -0.837158,0.8767089 -0.705323,0.6921387 -1.456788,1.3447266 -0.751464,0.6459961 -1.404052,1.199707 h 5.280029 z"
           id="path235892"
           style="stroke-width:1.98425;stroke-dasharray:none" /><path
           d="m 49.345791,0 h -1.57544 v -1.8786621 h 1.57544 z"
           id="path235894"
           style="stroke-width:1.98425;stroke-dasharray:none" /><path
           d="m 57.237911,-4.7263184 q 0.316406,0.2834473 0.520752,0.7119141 0.204346,0.4284668 0.204346,1.1074219 0,0.6723633 -0.243897,1.232666 -0.243896,0.5603027 -0.685546,0.97558593 -0.494385,0.46142578 -1.166749,0.68554688 -0.665771,0.21752929 -1.463378,0.21752929 -0.817383,0 -1.608399,-0.1977539 -0.791015,-0.19116211 -1.298584,-0.421875 v -1.3776855 h 0.09888 q 0.560303,0.3691406 1.318359,0.6130371 0.758057,0.24389644 1.463379,0.24389644 0.415284,0 0.883301,-0.13842774 0.468018,-0.1384277 0.758057,-0.4086914 0.303222,-0.2900391 0.448242,-0.6394043 0.151611,-0.3493652 0.151611,-0.8833008 0,-0.5273437 -0.171386,-0.8701172 -0.164795,-0.3493652 -0.461426,-0.5471191 -0.296631,-0.2043457 -0.718506,-0.2768555 -0.421875,-0.079102 -0.909668,-0.079102 H 53.764034 V -5.873291 h 0.461426 q 1.001953,0 1.595215,-0.4152832 0.599853,-0.421875 0.599853,-1.2260742 0,-0.3559571 -0.151611,-0.6196289 -0.151611,-0.2702637 -0.421875,-0.4416504 -0.283447,-0.1713868 -0.606445,-0.2373047 -0.322998,-0.065918 -0.73169,-0.065918 -0.62622,0 -1.331543,0.2241211 -0.705322,0.2241211 -1.331543,0.6328125 h -0.06592 v -1.3776855 q 0.468018,-0.2307129 1.24585,-0.421875 0.784424,-0.1977537 1.516113,-0.1977537 0.718506,0 1.265625,0.1318357 0.547119,0.1318359 0.98877,0.421875 0.474609,0.3164062 0.718506,0.7646484 0.243896,0.4482422 0.243896,1.0480957 0,0.8173828 -0.580078,1.43042 -0.573486,0.6064453 -1.35791,0.7646484 v 0.092285 q 0.316406,0.052734 0.725098,0.2241211 0.408691,0.164795 0.692138,0.4152832 z"
           id="path235896"
           style="stroke-width:1.98425;stroke-dasharray:none" /><path
           d="M 66.911556,-2.7619629 H 65.454769 V 0 h -1.265625 v -2.7619629 h -4.699951 v -1.5161133 l 4.752686,-5.5371093 h 1.21289 v 5.9985351 h 1.456787 z m -2.722412,-1.0546875 v -4.4296875 l -3.803467,4.4296875 z"
           id="path235898"
           style="stroke-width:1.98425;stroke-dasharray:none" /></g></g><path
       d="m 234.43437,199.74 h 27 v 9.45 h -27 z"
       style="fill:#2e8b57;fill-opacity:1;fill-rule:nonzero;stroke:none;stroke-width:1.98425;stroke-dasharray:none"
       id="path226961" /><g
       id="g226963"
       transform="translate(272.23437,199.74)"
       style="stroke-width:1.98425;stroke-dasharray:none"><g
         aria-label="Predicted: 2.59"
         transform="scale(1,-1)"
         id="text226967"
         style="font-size:13.5px;font-family:DejaVuSans;-inkscape-font-specification:DejaVuSans;stroke-width:1.98425;stroke-dasharray:none"><path
           d="m 7.7387695,-6.848877 q 0,0.6525879 -0.2307129,1.2128907 -0.2241211,0.5537109 -0.6328125,0.9624023 -0.5075683,0.5075684 -1.199707,0.7646485 -0.6921387,0.2504882 -1.7468262,0.2504882 H 2.6235352 V 0 H 1.3183594 v -9.8151855 h 2.6630859 q 0.8833008,0 1.4963379,0.1516113 0.6130371,0.1450195 1.0876465,0.4614258 0.5603027,0.3757324 0.8635254,0.9360351 0.3098144,0.5603028 0.3098144,1.4172363 z m -1.3579101,0.032959 q 0,-0.5075683 -0.1779785,-0.8833007 Q 6.0249023,-8.0749512 5.6623535,-8.3122559 5.3459473,-8.5166016 4.9372559,-8.6022949 4.5351562,-8.6945801 3.9155273,-8.6945801 H 2.6235352 v 3.9221192 h 1.10083 q 0.7910157,0 1.2854004,-0.1384278 0.4943848,-0.1450195 0.8041992,-0.454834 0.3098145,-0.3164062 0.4350586,-0.6657714 0.131836,-0.3493653 0.131836,-0.7844239 z"
           id="path235901"
           style="stroke-width:1.98425;stroke-dasharray:none" /><path
           d="m 13.72009,-6.0117187 h -0.06592 q -0.276856,-0.065918 -0.540527,-0.092285 -0.25708,-0.032959 -0.613038,-0.032959 -0.573486,0 -1.107421,0.2570801 -0.533936,0.2504883 -1.028321,0.6525879 V 0 H 9.1256075 v -7.3630371 h 1.2392575 v 1.0876465 q 0.738282,-0.5932617 1.298584,-0.8371582 0.566895,-0.2504883 1.153565,-0.2504883 0.322998,0 0.468017,0.019775 0.14502,0.013184 0.435059,0.059326 z"
           id="path235903"
           style="stroke-width:1.98425;stroke-dasharray:none" /><path
           d="m 20.540563,-3.5529785 h -5.425049 q 0,0.6789551 0.204346,1.1865234 0.204345,0.5009766 0.560302,0.8239746 0.342774,0.3164063 0.810791,0.4746094 0.47461,0.15820313 1.041504,0.15820313 0.751465,0 1.509522,-0.29663083 0.764648,-0.3032227 1.087646,-0.5932617 h 0.06592 v 1.35131831 q -0.626221,0.26367188 -1.278808,0.44165039 -0.652588,0.17797852 -1.371094,0.17797852 -1.83252,0 -2.86084,-0.98876953 -1.02832,-0.99536129 -1.02832,-2.82128909 0,-1.8061523 0.982177,-2.8674316 0.98877,-1.0612793 2.597168,-1.0612793 1.489746,0 2.293946,0.8701172 0.810791,0.8701172 0.810791,2.4719238 z m -1.206299,-0.9492188 q -0.0066,-0.9755859 -0.494385,-1.5095214 -0.481201,-0.5339356 -1.469971,-0.5339356 -0.995361,0 -1.588623,0.5866699 -0.58667,0.5866699 -0.665771,1.4567871 z"
           id="path235905"
           style="stroke-width:1.98425;stroke-dasharray:none" /><path
           d="m 28.651901,0 h -1.239258 v -0.77124023 q -0.533935,0.46142578 -1.114013,0.71850586 -0.580078,0.25708007 -1.259033,0.25708007 -1.31836,0 -2.096192,-1.01513672 -0.77124,-1.01513668 -0.77124,-2.81469728 0,-0.9360351 0.263672,-1.6677246 0.270263,-0.7316894 0.725097,-1.2458496 0.448243,-0.5009766 1.041504,-0.7646484 0.599854,-0.2636719 1.239258,-0.2636719 0.580078,0 1.02832,0.1252441 0.448243,0.1186524 0.942627,0.3757325 v -3.1904298 h 1.239258 z m -1.239258,-1.8127441 v -4.2253418 q -0.500976,-0.2241211 -0.896484,-0.3098145 -0.395508,-0.085693 -0.863525,-0.085693 -1.041504,0 -1.621582,0.7250976 -0.580078,0.7250977 -0.580078,2.0566406 0,1.3117676 0.448242,1.9973145 0.448242,0.67895506 1.437011,0.67895506 0.527344,0 1.067872,-0.23071286 0.540527,-0.2373047 1.008544,-0.6064456 z"
           id="path235907"
           style="stroke-width:1.98425;stroke-dasharray:none" /><path
           d="m 32.583775,-8.5957031 h -1.397461 v -1.2854004 h 1.397461 z M 32.504673,0 h -1.239258 v -7.3630371 h 1.239258 z"
           id="path235909"
           style="stroke-width:1.98425;stroke-dasharray:none" /><path
           d="M 40.450058,-0.46142578 Q 39.830429,-0.16479492 39.270126,0 q -0.553711,0.16479492 -1.179931,0.16479492 -0.797608,0 -1.463379,-0.23071289 -0.665772,-0.23730469 -1.140381,-0.71191406 -0.481201,-0.47460937 -0.744873,-1.19970707 -0.263672,-0.7250976 -0.263672,-1.6940918 0,-1.8061523 0.98877,-2.8344726 0.995361,-1.0283203 2.623535,-1.0283203 0.632812,0 1.239258,0.1779785 0.613037,0.1779785 1.120605,0.4350586 v 1.3776855 h -0.06592 q -0.566895,-0.4416504 -1.17334,-0.678955 -0.599853,-0.2373047 -1.17334,-0.2373047 -1.054687,0 -1.667724,0.711914 -0.606446,0.7053223 -0.606446,2.076416 0,1.331543 0.593262,2.0500489 0.599854,0.71191403 1.680908,0.71191403 0.375733,0 0.764649,-0.0988769 0.388916,-0.098877 0.69873,-0.2570801 0.270264,-0.1384277 0.507569,-0.2900391 0.237304,-0.1582031 0.375732,-0.2702636 h 0.06592 z"
           id="path235911"
           style="stroke-width:1.98425;stroke-dasharray:none" /><path
           d="m 46.253475,-0.06591797 q -0.349365,0.09228516 -0.764648,0.15161133 -0.408692,0.05932617 -0.73169,0.05932617 -1.127197,0 -1.713867,-0.60644531 Q 42.4566,-1.0678711 42.4566,-2.4060059 V -6.3215332 H 41.619442 V -7.3630371 H 42.4566 v -2.1159668 h 1.239258 v 2.1159668 h 2.557617 v 1.0415039 h -2.557617 v 3.3552246 q 0,0.5800781 0.02637,0.909668 0.02637,0.322998 0.184571,0.6064453 0.145019,0.2636719 0.395507,0.388916 0.25708,0.11865235 0.777832,0.11865235 0.303223,0 0.632813,-0.0856934 0.32959,-0.092285 0.474609,-0.1516113 h 0.06592 z"
           id="path235913"
           style="stroke-width:1.98425;stroke-dasharray:none" /><path
           d="m 53.885563,-3.5529785 h -5.425049 q 0,0.6789551 0.204346,1.1865234 0.204345,0.5009766 0.560303,0.8239746 0.342773,0.3164063 0.810791,0.4746094 0.474609,0.15820313 1.041503,0.15820313 0.751465,0 1.509522,-0.29663083 0.764648,-0.3032227 1.087646,-0.5932617 h 0.06592 v 1.35131831 q -0.62622,0.26367188 -1.278808,0.44165039 -0.652588,0.17797852 -1.371094,0.17797852 -1.83252,0 -2.86084,-0.98876953 -1.02832,-0.99536129 -1.02832,-2.82128909 0,-1.8061523 0.982178,-2.8674316 0.988769,-1.0612793 2.597168,-1.0612793 1.489746,0 2.293945,0.8701172 0.810791,0.8701172 0.810791,2.4719238 z m -1.206299,-0.9492188 q -0.0066,-0.9755859 -0.494385,-1.5095214 -0.481201,-0.5339356 -1.46997,-0.5339356 -0.995362,0 -1.588623,0.5866699 -0.58667,0.5866699 -0.665772,1.4567871 z"
           id="path235915"
           style="stroke-width:1.98425;stroke-dasharray:none" /><path
           d="m 61.996899,0 h -1.239258 v -0.77124023 q -0.533936,0.46142578 -1.114014,0.71850586 -0.580078,0.25708007 -1.259033,0.25708007 -1.318359,0 -2.096191,-1.01513672 -0.771241,-1.01513668 -0.771241,-2.81469728 0,-0.9360351 0.263672,-1.6677246 0.270264,-0.7316894 0.725098,-1.2458496 0.448242,-0.5009766 1.041504,-0.7646484 0.599853,-0.2636719 1.239258,-0.2636719 0.580078,0 1.02832,0.1252441 0.448242,0.1186524 0.942627,0.3757325 v -3.1904298 h 1.239258 z m -1.239258,-1.8127441 v -4.2253418 q -0.500977,-0.2241211 -0.896485,-0.3098145 -0.395507,-0.085693 -0.863525,-0.085693 -1.041504,0 -1.621582,0.7250976 -0.580078,0.7250977 -0.580078,2.0566406 0,1.3117676 0.448242,1.9973145 0.448242,0.67895506 1.437012,0.67895506 0.527344,0 1.067871,-0.23071286 0.540527,-0.2373047 1.008545,-0.6064456 z"
           id="path235917"
           style="stroke-width:1.98425;stroke-dasharray:none" /><path
           d="m 67.233952,-5.484375 h -1.57544 v -1.8786621 h 1.57544 z m 0,5.484375 h -1.57544 v -1.8786621 h 1.57544 z"
           id="path235919"
           style="stroke-width:1.98425;stroke-dasharray:none" /><path
           d="m 79.926064,0 h -6.644532 v -1.3776855 q 0.692139,-0.5932618 1.384278,-1.1865235 0.69873,-0.5932617 1.298584,-1.1799316 1.265625,-1.2260742 1.733642,-1.9445801 0.468018,-0.7250977 0.468018,-1.5622559 0,-0.7646484 -0.507569,-1.1931152 -0.500976,-0.4350586 -1.404052,-0.4350586 -0.599854,0 -1.298584,0.2109375 -0.698731,0.2109375 -1.364502,0.6459961 h -0.06592 v -1.3842773 q 0.468017,-0.2307129 1.245849,-0.421875 0.784424,-0.1911619 1.516114,-0.1911619 1.509521,0 2.366455,0.7316892 0.856933,0.7250977 0.856933,1.9709473 0,0.5603027 -0.145019,1.0480957 -0.138428,0.4812011 -0.415283,0.9162597 -0.25708,0.4086914 -0.606446,0.8041993 -0.342773,0.3955078 -0.837158,0.8767089 -0.705322,0.6921387 -1.456787,1.3447266 -0.751465,0.6459961 -1.404053,1.199707 h 5.28003 z"
           id="path235921"
           style="stroke-width:1.98425;stroke-dasharray:none" /><path
           d="m 84.049416,0 h -1.57544 v -1.8786621 h 1.57544 z"
           id="path235923"
           style="stroke-width:1.98425;stroke-dasharray:none" /><path
           d="m 92.72596,-3.1179199 q 0,0.6855469 -0.250489,1.3117676 -0.250488,0.6262207 -0.685546,1.05468746 -0.47461,0.46142578 -1.133789,0.71191406 -0.652588,0.24389648 -1.516114,0.24389648 -0.804199,0 -1.549072,-0.17138672 -0.744873,-0.16479492 -1.259033,-0.40209961 V -1.7600098 h 0.09228 q 0.540527,0.3427735 1.265625,0.58667 0.725098,0.23730464 1.423828,0.23730464 0.468018,0 0.903076,-0.13183594 0.441651,-0.1318359 0.784424,-0.4614258 0.290039,-0.2834472 0.435059,-0.6789551 0.151611,-0.3955078 0.151611,-0.9162597 0,-0.5075684 -0.177979,-0.8569336 -0.171386,-0.3493652 -0.481201,-0.5603027 -0.342773,-0.2504883 -0.837158,-0.3493653 -0.487793,-0.1054687 -1.094238,-0.1054687 -0.580078,0 -1.120606,0.079102 -0.533935,0.079102 -0.922851,0.1582032 V -9.815185 h 5.90625 v 1.1535644 h -4.634033 v 2.6103516 q 0.283447,-0.026367 0.580078,-0.039551 0.296631,-0.013184 0.51416,-0.013184 0.797607,0 1.397461,0.1384277 0.599853,0.131836 1.10083,0.4746094 0.527344,0.3625488 0.817383,0.9360352 0.290039,0.5734863 0.290039,1.4370117 z"
           id="path235925"
           style="stroke-width:1.98425;stroke-dasharray:none" /><path
           d="m 101.37788,-5.4975586 q 0,1.2854004 -0.29663,2.3334961 -0.29004,1.0480957 -0.88331,1.786377 -0.599849,0.7514648 -1.502925,1.1601562 -0.903076,0.40869141 -2.122559,0.40869141 -0.342773,0 -0.645996,-0.0395508 -0.303222,-0.032959 -0.540527,-0.11206055 V -1.2194824 h 0.06592 q 0.191162,0.098877 0.540527,0.1911621 0.349365,0.0856934 0.777832,0.0856934 1.456787,0 2.280762,-0.8701171 0.830566,-0.8767091 0.962396,-2.4125977 -0.613031,0.3691405 -1.153558,0.5273437 -0.540527,0.1582032 -1.179932,0.1582032 -0.606445,0 -1.10083,-0.1186525 -0.487793,-0.1186523 -0.982178,-0.4614257 -0.580078,-0.4020997 -0.876709,-1.0217286 -0.290039,-0.6196289 -0.290039,-1.4831543 0,-1.5029296 0.98877,-2.4455566 0.988769,-0.9426265 2.412598,-0.9426265 0.711914,0 1.318359,0.2241206 0.606445,0.2175294 1.061279,0.6591797 0.5603,0.5471192 0.86352,1.4106446 0.30323,0.8569336 0.30323,2.2214355 z m -1.33155,-0.2834473 q 0,-1.0217285 -0.210934,-1.6413574 -0.210938,-0.6196289 -0.580078,-0.9624023 -0.309815,-0.2966309 -0.665772,-0.421875 -0.355957,-0.131836 -0.77124,-0.131836 -0.949219,0 -1.50293,0.5932618 -0.547119,0.5932617 -0.547119,1.6677246 0,0.6262207 0.177979,1.0217285 0.177978,0.3955078 0.599853,0.6921387 0.296631,0.2043457 0.652588,0.2768554 0.355957,0.065918 0.791016,0.065918 0.51416,0 1.041504,-0.1384277 0.527343,-0.1384278 0.988773,-0.4020997 0.007,-0.1384277 0.0132,-0.2702636 0.0132,-0.1384278 0.0132,-0.3493653 z"
           id="path235927"
           style="stroke-width:1.98425;stroke-dasharray:none" /></g></g></g></svg>
