<?xml version="1.0" encoding="UTF-8" standalone="no"?>
<!-- Created with Inkscape (http://www.inkscape.org/) -->

<svg
   width="143.35895mm"
   height="97.919312mm"
   viewBox="0 0 143.35895 97.919312"
   version="1.1"
   id="svg5"
   xml:space="preserve"
   xmlns="http://www.w3.org/2000/svg"
   xmlns:svg="http://www.w3.org/2000/svg"><defs
     id="defs2"><clipPath
       clipPathUnits="userSpaceOnUse"
       id="clipPath224"><path
         d="M -1021,-463 H 1794 V 1233 H -1021 Z"
         id="path222" /></clipPath><clipPath
       clipPathUnits="userSpaceOnUse"
       id="clipPath244"><path
         d="M -1021,-463 H 1794 V 1233 H -1021 Z"
         id="path242" /></clipPath><clipPath
       clipPathUnits="userSpaceOnUse"
       id="clipPath288"><path
         d="m 54.825,47.23125 h 334.8 v 217.44 h -334.8 z"
         id="path286" /></clipPath><clipPath
       clipPathUnits="userSpaceOnUse"
       id="clipPath298"><path
         d="m 54.825,47.23125 h 334.8 v 217.44 h -334.8 z"
         id="path296" /></clipPath><clipPath
       clipPathUnits="userSpaceOnUse"
       id="clipPath308"><path
         d="m 54.825,47.23125 h 334.8 v 217.44 h -334.8 z"
         id="path306" /></clipPath></defs><path
     d="m 18.786967,81.257182 v 1.234723"
     style="fill:#000000;fill-opacity:1;fill-rule:nonzero;stroke:#000000;stroke-width:0.282868;stroke-linecap:butt;stroke-linejoin:round;stroke-miterlimit:10;stroke-dasharray:none;stroke-opacity:1"
     id="path146" /><g
     id="g148"
     transform="matrix(0.35439338,0,0,-0.35277778,17.095295,87.744986)"><text
       xml:space="preserve"
       transform="scale(1,-1)"
       style="font-variant:normal;font-weight:normal;font-size:15px;font-family:DejaVuSans;-inkscape-font-specification:DejaVuSans;writing-mode:lr-tb;fill:#000000;fill-opacity:1;fill-rule:nonzero;stroke:none"
       id="text152"><tspan
         x="0"
         y="0"
         id="tspan150">0</tspan></text></g><path
     d="m 38.562118,81.257182 v 1.234723"
     style="fill:#000000;fill-opacity:1;fill-rule:nonzero;stroke:#000000;stroke-width:0.282868;stroke-linecap:butt;stroke-linejoin:round;stroke-miterlimit:10;stroke-dasharray:none;stroke-opacity:1"
     id="path154" /><g
     id="g156"
     transform="matrix(0.35439338,0,0,-0.35277778,36.870446,87.744986)"><text
       xml:space="preserve"
       transform="scale(1,-1)"
       style="font-variant:normal;font-weight:normal;font-size:15px;font-family:DejaVuSans;-inkscape-font-specification:DejaVuSans;writing-mode:lr-tb;fill:#000000;fill-opacity:1;fill-rule:nonzero;stroke:none"
       id="text160"><tspan
         x="0"
         y="0"
         id="tspan158">5</tspan></text></g><path
     d="m 58.33727,81.257182 v 1.234723"
     style="fill:#000000;fill-opacity:1;fill-rule:nonzero;stroke:#000000;stroke-width:0.282868;stroke-linecap:butt;stroke-linejoin:round;stroke-miterlimit:10;stroke-dasharray:none;stroke-opacity:1"
     id="path162" /><g
     id="g164"
     transform="matrix(0.35439338,0,0,-0.35277778,54.953916,87.744986)"><text
       xml:space="preserve"
       transform="scale(1,-1)"
       style="font-variant:normal;font-weight:normal;font-size:15px;font-family:DejaVuSans;-inkscape-font-specification:DejaVuSans;writing-mode:lr-tb;fill:#000000;fill-opacity:1;fill-rule:nonzero;stroke:none"
       id="text168"><tspan
         x="0 9.54"
         y="0"
         id="tspan166">10</tspan></text></g><path
     d="m 78.112421,81.257182 v 1.234723"
     style="fill:#000000;fill-opacity:1;fill-rule:nonzero;stroke:#000000;stroke-width:0.282868;stroke-linecap:butt;stroke-linejoin:round;stroke-miterlimit:10;stroke-dasharray:none;stroke-opacity:1"
     id="path170" /><g
     id="g172"
     transform="matrix(0.35439338,0,0,-0.35277778,74.729067,87.744986)"><text
       xml:space="preserve"
       transform="scale(1,-1)"
       style="font-variant:normal;font-weight:normal;font-size:15px;font-family:DejaVuSans;-inkscape-font-specification:DejaVuSans;writing-mode:lr-tb;fill:#000000;fill-opacity:1;fill-rule:nonzero;stroke:none"
       id="text176"><tspan
         x="0 9.54"
         y="0"
         id="tspan174">15</tspan></text></g><path
     d="m 97.887573,81.257182 v 1.234723"
     style="fill:#000000;fill-opacity:1;fill-rule:nonzero;stroke:#000000;stroke-width:0.282868;stroke-linecap:butt;stroke-linejoin:round;stroke-miterlimit:10;stroke-dasharray:none;stroke-opacity:1"
     id="path178" /><g
     id="g180"
     transform="matrix(0.35439338,0,0,-0.35277778,94.504219,87.744986)"><text
       xml:space="preserve"
       transform="scale(1,-1)"
       style="font-variant:normal;font-weight:normal;font-size:15px;font-family:DejaVuSans;-inkscape-font-specification:DejaVuSans;writing-mode:lr-tb;fill:#000000;fill-opacity:1;fill-rule:nonzero;stroke:none"
       id="text184"><tspan
         x="0 9.54"
         y="0"
         id="tspan182">20</tspan></text></g><path
     d="m 117.66272,81.257182 v 1.234723"
     style="fill:#000000;fill-opacity:1;fill-rule:nonzero;stroke:#000000;stroke-width:0.282868;stroke-linecap:butt;stroke-linejoin:round;stroke-miterlimit:10;stroke-dasharray:none;stroke-opacity:1"
     id="path186" /><g
     id="g188"
     transform="matrix(0.35439338,0,0,-0.35277778,114.27937,87.744986)"><text
       xml:space="preserve"
       transform="scale(1,-1)"
       style="font-variant:normal;font-weight:normal;font-size:15px;font-family:DejaVuSans;-inkscape-font-specification:DejaVuSans;writing-mode:lr-tb;fill:#000000;fill-opacity:1;fill-rule:nonzero;stroke:none"
       id="text192"><tspan
         x="0 9.54"
         y="0"
         id="tspan190">25</tspan></text></g><path
     d="m 137.43787,81.257182 v 1.234723"
     style="fill:#000000;fill-opacity:1;fill-rule:nonzero;stroke:#000000;stroke-width:0.282868;stroke-linecap:butt;stroke-linejoin:round;stroke-miterlimit:10;stroke-dasharray:none;stroke-opacity:1"
     id="path194" /><g
     id="g196"
     transform="matrix(0.35439338,0,0,-0.35277778,134.05452,87.744986)"><text
       xml:space="preserve"
       transform="scale(1,-1)"
       style="font-variant:normal;font-weight:normal;font-size:15px;font-family:DejaVuSans;-inkscape-font-specification:DejaVuSans;writing-mode:lr-tb;fill:#000000;fill-opacity:1;fill-rule:nonzero;stroke:none"
       id="text200"><tspan
         x="0 9.54"
         y="0"
         id="tspan198">30</tspan></text></g><path
     d="M 18.786967,81.257182 H 17.546592"
     style="fill:#000000;fill-opacity:1;fill-rule:nonzero;stroke:#000000;stroke-width:0.282868;stroke-linecap:butt;stroke-linejoin:round;stroke-miterlimit:10;stroke-dasharray:none;stroke-opacity:1"
     id="path208" /><g
     id="g210"
     transform="matrix(0.35439338,0,0,-0.35277778,8.4707973,83.266362)"><text
       xml:space="preserve"
       transform="matrix(1,0,0,-1,12.568359,0)"
       style="font-variant:normal;font-weight:normal;font-size:15px;font-family:DejaVuSans;-inkscape-font-specification:DejaVuSans;writing-mode:lr-tb;fill:#000000;fill-opacity:1;fill-rule:nonzero;stroke:none"
       id="text214"><tspan
         x="0"
         y="0"
         id="tspan212">2</tspan></text><g
       id="g216"
       transform="scale(0.015)"><g
         id="g218"><g
           id="g220"
           clip-path="url(#clipPath224)"><path
             d="M 106,355 H 732 V 272 H 106 Z"
             style="fill:#000000;fill-opacity:1;fill-rule:nonzero;stroke:none"
             id="path226" /></g></g></g></g><path
     d="M 18.786967,62.080182 H 17.546592"
     style="fill:#000000;fill-opacity:1;fill-rule:nonzero;stroke:#000000;stroke-width:0.282868;stroke-linecap:butt;stroke-linejoin:round;stroke-miterlimit:10;stroke-dasharray:none;stroke-opacity:1"
     id="path228" /><g
     id="g230"
     transform="matrix(0.35439338,0,0,-0.35277778,8.4707973,64.089362)"><text
       xml:space="preserve"
       transform="matrix(1,0,0,-1,12.568359,0)"
       style="font-variant:normal;font-weight:normal;font-size:15px;font-family:DejaVuSans;-inkscape-font-specification:DejaVuSans;writing-mode:lr-tb;fill:#000000;fill-opacity:1;fill-rule:nonzero;stroke:none"
       id="text234"><tspan
         x="0"
         y="0"
         id="tspan232">1</tspan></text><g
       id="g236"
       transform="scale(0.015)"><g
         id="g238"><g
           id="g240"
           clip-path="url(#clipPath244)"><path
             d="M 106,355 H 732 V 272 H 106 Z"
             style="fill:#000000;fill-opacity:1;fill-rule:nonzero;stroke:none"
             id="path246" /></g></g></g></g><path
     d="M 18.786967,42.903182 H 17.546592"
     style="fill:#000000;fill-opacity:1;fill-rule:nonzero;stroke:#000000;stroke-width:0.282868;stroke-linecap:butt;stroke-linejoin:round;stroke-miterlimit:10;stroke-dasharray:none;stroke-opacity:1"
     id="path248" /><g
     id="g250"
     transform="matrix(0.35439338,0,0,-0.35277778,12.922864,44.912361)"><text
       xml:space="preserve"
       transform="scale(1,-1)"
       style="font-variant:normal;font-weight:normal;font-size:15px;font-family:DejaVuSans;-inkscape-font-specification:DejaVuSans;writing-mode:lr-tb;fill:#000000;fill-opacity:1;fill-rule:nonzero;stroke:none"
       id="text254"><tspan
         x="0"
         y="0"
         id="tspan252">0</tspan></text></g><path
     d="M 18.786967,23.726182 H 17.546592"
     style="fill:#000000;fill-opacity:1;fill-rule:nonzero;stroke:#000000;stroke-width:0.282868;stroke-linecap:butt;stroke-linejoin:round;stroke-miterlimit:10;stroke-dasharray:none;stroke-opacity:1"
     id="path256" /><g
     id="g258"
     transform="matrix(0.35439338,0,0,-0.35277778,12.922864,25.735361)"><text
       xml:space="preserve"
       transform="scale(1,-1)"
       style="font-variant:normal;font-weight:normal;font-size:15px;font-family:DejaVuSans;-inkscape-font-specification:DejaVuSans;writing-mode:lr-tb;fill:#000000;fill-opacity:1;fill-rule:nonzero;stroke:none"
       id="text262"><tspan
         x="0"
         y="0"
         id="tspan260">1</tspan></text></g><path
     d="M 18.786967,4.5491822 H 17.546592"
     style="fill:#000000;fill-opacity:1;fill-rule:nonzero;stroke:#000000;stroke-width:0.282868;stroke-linecap:butt;stroke-linejoin:round;stroke-miterlimit:10;stroke-dasharray:none;stroke-opacity:1"
     id="path264" /><g
     id="g266"
     transform="matrix(0.35439338,0,0,-0.35277778,12.922864,6.558361)"><text
       xml:space="preserve"
       transform="scale(1,-1)"
       style="font-variant:normal;font-weight:normal;font-size:15px;font-family:DejaVuSans;-inkscape-font-specification:DejaVuSans;writing-mode:lr-tb;fill:#000000;fill-opacity:1;fill-rule:nonzero;stroke:none"
       id="text270"><tspan
         x="0"
         y="0"
         id="tspan268">2</tspan></text></g><g
     id="g282"
     transform="matrix(0.35439338,0,0,-0.35277778,-0.64264931,97.919318)"><g
       id="g284"
       clip-path="url(#clipPath288)"><path
         d="m 54.825,210.31125 h 334.8"
         style="fill:none;stroke:#000080;stroke-width:1.5;stroke-linecap:butt;stroke-linejoin:round;stroke-miterlimit:10;stroke-dasharray:5.55, 2.4;stroke-dashoffset:0;stroke-opacity:0.5"
         id="path290" /></g></g><g
     id="g292"
     transform="matrix(0.35439338,0,0,-0.35277778,-0.64264931,97.919318)"><g
       id="g294"
       clip-path="url(#clipPath298)"><path
         d="m 54.825,101.59125 h 334.8"
         style="fill:none;stroke:#000080;stroke-width:1.5;stroke-linecap:butt;stroke-linejoin:round;stroke-miterlimit:10;stroke-dasharray:5.55, 2.4;stroke-dashoffset:0;stroke-opacity:0.5"
         id="path300" /></g></g><g
     id="g302"
     transform="matrix(0.35439338,0,0,-0.35277778,-0.64264931,97.919318)"><g
       id="g304"
       clip-path="url(#clipPath308)"><path
         d="m 54.825,237.49125 0.1116,8.07264 0.2232,-12.23054 0.2232,23.24475 0.3348,-29.94318 0.1116,5.07919 0.1116,-7.04393 0.1116,9.93644 0.1116,-12.52875 0.2232,15.08576 0.1116,5.7048 0.1116,-21.92133 0.1116,3.04081 0.1116,8.7293 0.3348,-33.8842 0.2232,16.13665 0.2232,-17.91606 0.2232,10.62236 0.2232,-33.80544 0.1116,-4.19047 0.1116,1.74483 0.1116,5.30203 0.1116,-16.20389 0.1116,1.66668 0.1116,-7.69782 0.3348,20.09877 0.1116,-2.16204 0.1116,11.9497 0.1116,-7.28647 0.2232,6.95775 0.1116,1.91469 0.1116,-1.47899 0.2232,7.23636 0.1116,12.24245 0.1116,-10.91912 0.3348,14.55317 0.3348,-18.6812 0.2232,-15.26 0.2232,3.62415 0.1116,-2.48659 0.1116,8.35236 0.1116,-3.6979 0.1116,18.24707 0.2232,-4.91497 0.2232,19.98738 0.1116,4.36141 0.558,-51.6363 0.2232,18.27023 0.1116,-3.05142 0.1116,1.3495 0.1116,19.4064 0.2232,-29.72168 0.1116,-0.41123 0.1116,-4.12198 0.1116,6.22486 0.2232,-24.51146 0.1116,-10.91789 0.1116,5.21759 0.1116,-0.50437 0.1116,-22.20281 0.1116,7.13222 0.1116,-9.83132 0.2232,11.71909 0.1116,-3.3145 0.1116,-20.45887 0.2232,26.75235 0.1116,-0.37862 0.1116,-1.64202 0.1116,4.14776 0.2232,14.88543 0.1116,-13.00552 0.2232,5.63821 0.3348,-28.4148 0.1116,8.18431 0.1116,0.01 0.1116,10.45699 0.2232,-16.68703 0.1116,8.08013 0.1116,-0.1524 0.2232,-18.97676 0.1116,19.73256 0.2232,-6.7449 0.1116,0.48685 0.1116,-1.17719 0.1116,-10.2471 0.3348,30.43259 0.558,7.89748 0.1116,-0.39936 0.1116,6.52774 0.2232,-10.73634 0.2232,-17.27476 0.3348,18.23573 0.1116,-5.03309 0.1116,5.27798 0.1116,-2.83107 0.2232,26.95195 0.2232,35.834 0.1116,-4.25203 0.1116,21.4725 0.1116,-5.49148 0.1116,8.51905 0.2232,-26.5993 0.2232,-9.44508 0.2232,25.75951 0.1116,-13.91179 0.2232,5.89588 0.2232,27.39295 0.1116,7.02636 0.1116,-0.0294 0.1116,-12.21489 0.1116,22.13823 0.2232,-31.31631 0.1116,7.40343 0.1116,-4.74753 0.1116,7.89847 0.3348,-14.10956 0.1116,1.82337 0.1116,-2.1725 0.1116,0.61729 0.1116,-13.3956 0.4464,22.03547 0.4464,-34.30933 0.2232,16.35759 0.1116,-6.18645 0.1116,10.99884 0.2232,-21.70691 0.2232,21.40792 0.1116,1.23199 0.1116,-17.6713 0.1116,4.02304 0.2232,-2.74091 0.2232,-10.50407 0.4464,-33.47814 0.1116,4.89644 0.1116,-7.42926 0.1116,28.88377 0.1116,-15.62815 0.3348,20.28392 0.2232,-11.3238 0.2232,17.61053 0.1116,4.64101 0.2232,13.05808 0.1116,10.30949 0.1116,-16.67632 0.2232,10.71004 0.1116,-3.40297 0.3348,3.65709 0.2232,-0.37166 0.1116,-2.97358 0.1116,-11.61565 0.3348,26.51702 0.1116,0.12612 0.1116,-6.88139 0.1116,5.55024 0.1116,-1.2205 0.1116,2.63791 0.1116,-4.62937 0.2232,-18.16803 0.2232,22.98055 0.1116,-8.479 0.1116,1.96308 0.1116,-7.81524 0.1116,23.10639 0.1116,-5.98657 0.1116,0.51789 0.2232,-12.91362 0.1116,12.61389 0.1116,-16.06993 0.2232,13.99661 0.2232,21.75618 0.1116,5.56413 0.1116,-2.95512 0.2232,18.66864 0.3348,-30.697 0.1116,-7.86801 0.2232,5.33519 0.1116,9.05472 0.1116,-2.05809 0.1116,-5.24508 0.2232,-27.81239 0.2232,21.86941 0.1116,-5.95465 0.2232,9.16128 0.2232,-11.03337 0.1116,-16.95687 0.2232,7.45751 0.1116,-0.12572 0.1116,1.68042 0.1116,11.16974 0.1116,-0.791 0.1116,-22.10091 0.1116,6.06755 0.1116,-4.64967 0.1116,7.1881 0.1116,-7.36924 0.2232,-30.67971 0.3348,31.31854 0.1116,6.64509 0.1116,-0.55118 0.1116,-1.91942 0.1116,9.59731 0.2232,-11.25097 0.1116,-0.3668 0.1116,5.13208 0.1116,-5.09679 0.1116,3.92715 0.1116,-3.79185 0.1116,-9.84281 0.1116,2.40448 0.1116,-3.8329 0.1116,-19.90765 0.3348,12.12751 0.3348,37.67376 0.1116,-0.0178 0.2232,-8.72521 0.1116,-2.0808 0.3348,3.57729 0.1116,-19.41945 0.1116,0.83325 0.2232,16.42522 0.1116,-2.05448 0.2232,-13.36169 0.1116,15.30502 0.2232,-21.77998 0.2232,24.03996 0.2232,6.98392 0.1116,12.07565 0.2232,-7.48445 0.1116,-4.18141 0.3348,-26.05681 0.1116,3.17351 0.1116,14.03506 0.1116,-11.24584 0.2232,17.35949 0.1116,-8.58074 0.1116,5.50414 0.2232,-5.99375 0.1116,16.33909 0.2232,-9.35482 0.1116,-3.41545 0.1116,0.57267 0.1116,13.81008 0.1116,-14.60492 0.3348,24.92181 0.1116,-14.01871 0.1116,8.20295 0.2232,-18.75138 0.1116,-3.25491 0.2232,-12.56116 0.2232,12.10327 0.2232,-39.17446 0.1116,1.43541 0.3348,29.27787 0.1116,-9.10285 0.2232,10.24163 0.2232,-23.32235 0.1116,-5.01033 0.1116,7.59979 0.1116,-13.82661 0.2232,31.66531 0.1116,-4.69815 0.2232,-16.6587 0.2232,9.81176 0.1116,-16.47034 0.2232,25.49775 0.1116,-7.34248 0.2232,17.4319 0.2232,-16.40845 0.1116,4.49604 0.1116,-12.2315 0.1116,0.73283 0.1116,-2.76241 0.3348,28.95966 0.1116,15.41242 0.1116,-0.15854 0.1116,-10.49296 0.2232,2.82029 0.1116,-1.74582 0.1116,15.00999 0.4464,-17.79323 0.1116,7.36648 0.2232,-7.25181 0.2232,9.30319 0.1116,-5.60697 0.2232,-13.09101 0.1116,12.41534 0.4464,-53.63481 0.1116,7.96537 0.3348,-23.14818 0.1116,-8.23558 0.1116,9.50057 0.2232,-25.7094 0.1116,14.75364 0.1116,-9.55037 0.1116,8.95155 0.1116,-1.45092 0.2232,-9.36738 0.2232,-6.65936 0.1116,1.98884 0.1116,-11.44005 0.1116,0.0738 0.1116,-3.73142 0.1116,-22.519551 0.1116,0.07948 0.1116,3.634505 0.1116,-13.075424 0.1116,0.872289 0.3348,23.724701 0.1116,8.91612 0.1116,-15.072951 0.1116,4.798725 0.1116,-4.570686 0.1116,3.17029 0.1116,10.301882 0.1116,-4.88248 0.1116,6.73218 0.1116,-12.581816 0.2232,22.970726 0.1116,-18.35503 0.2232,18.47877 0.2232,-5.58336 0.1116,-10.32433 0.2232,9.08238 0.2232,13.1559 0.1116,1.17191 0.2232,-33.044584 0.1116,-1.484139 0.1116,-15.821283 0.1116,5.010657 0.1116,11.837719 0.1116,-2.887189 0.1116,-6.553677 0.1116,-16.486566 0.3348,16.215311 0.1116,-5.112939 0.1116,11.585967 0.1116,-14.211087 0.1116,0.255476 0.2232,9.630496 0.1116,-5.06937 0.1116,7.168272 0.1116,-8.165658 0.2232,6.84336 0.1116,0.629642 0.1116,-3.665652 0.2232,46.083434 0.1116,1.67326 0.1116,15.08551 0.1116,-17.70919 0.2232,6.32059 0.2232,-20.71332 0.1116,6.11058 0.2232,22.96804 0.1116,1.67863 0.1116,-0.31463 0.1116,0.31463 0.1116,-19.78453 0.558,23.45677 0.1116,0.71906 0.1116,10.46721 0.1116,-15.03922 0.1116,18.73299 0.2232,-29.17784 0.1116,-8.61159 0.2232,27.2993 0.1116,-7.84931 0.2232,-20.61702 0.2232,3.51694 0.1116,-10.7744 0.1116,6.55811 0.4464,-17.98108 0.1116,11.07459 0.1116,-5.94911 0.1116,12.72143 0.2232,-26.282273 0.1116,-16.856239 0.2232,16.451485 0.1116,-2.230449 0.2232,-24.709742 0.2232,10.258058 0.2232,31.87799 0.1116,-0.69087 0.1116,6.99097 0.1116,-4.71747 0.2232,15.98408 0.1116,-1.51691 0.2232,12.44187 0.2232,-2.41784 0.2232,-11.35692 0.1116,4.24852 0.1116,-19.51449 0.1116,4.59 0.1116,-3.1312 0.1116,-19.146796 0.2232,15.035566 0.2232,-19.729519 0.2232,14.005009 0.1116,11.40195 0.1116,-10.01093 0.1116,-22.297241 0.1116,0.940135 0.1116,8.924656 0.2232,-15.248638 0.1116,-1.983257 0.1116,8.863546 0.1116,20.800739 0.1116,-3.78133 0.1116,4.40821 0.4464,-29.501209 0.1116,14.807458 0.1116,-3.742473 0.1116,0.375942 0.2232,5.91128 0.1116,12.995482 0.1116,-0.8462 0.2232,-10.22051 0.1116,-1.256235 0.1116,6.184395 0.2232,23.58986 0.2232,-12.67297 0.1116,3.70959 0.1116,-6.56742 0.1116,8.42639 0.2232,-9.59005 0.2232,28.19015 0.3348,-49.721 0.1116,-0.234326 0.1116,34.840416 0.1116,-10.64413 0.3348,20.37655 0.1116,-7.52405 0.1116,1.93015 0.1116,-5.04594 0.1116,1.06982 0.1116,-19.12056 0.1116,8.08666 0.1116,-9.27267 0.2232,29.91785 0.1116,-7.36532 0.2232,10.02704 0.1116,-20.00511 0.1116,5.39133 0.1116,-6.4253 0.2232,23.66191 0.1116,-1.97887 0.2232,2.83483 0.1116,13.87139 0.1116,-15.60491 0.1116,5.52873 0.2232,-18.61114 0.4464,31.32762 0.2232,-5.64175 0.2232,-17.90143 0.2232,22.62753 0.1116,7.26332 0.1116,-3.61709 0.2232,19.25181 0.2232,-23.20392 0.1116,-3.29868 0.1116,3.15408 0.3348,-14.55779 0.1116,-10.12015 0.2232,9.06131 0.1116,-1.18564 0.1116,-5.90475 0.1116,1.11605 0.1116,5.43822 0.6696,-27.14829 0.1116,17.49527 0.1116,-11.39013 0.1116,5.89191 0.1116,-3.77595 0.1116,14.21501 0.1116,-2.30366 0.1116,-9.55554 0.1116,4.23713 0.1116,-6.56802 0.1116,0.8071 0.1116,12.10792 0.1116,-4.89789 0.1116,14.21082 0.1116,-2.40761 0.1116,2.16877 0.1116,-9.54025 0.1116,4.01063 0.2232,-13.68339 0.2232,18.33778 0.2232,-14.25982 0.1116,-10.3729 0.3348,36.52964 0.1116,-2.38946 0.2232,-11.76357 0.1116,8.3668 0.1116,-3.99086 0.2232,3.81598 0.1116,4.67142 0.3348,40.14801 0.1116,-16.05842 0.2232,13.35867 0.1116,3.59649 0.1116,-6.38144 0.1116,1.77984 0.1116,-15.59369 0.1116,0.29463 0.2232,-19.11855 0.3348,4.18073 0.3348,-17.54064 0.2232,19.32486 0.2232,-16.37794 0.2232,13.19603 0.1116,-3.8534 0.2232,-33.84087 0.1116,18.27503 0.1116,-7.71803 0.1116,-0.0168 0.1116,8.62429 0.558,-61.248866 0.1116,2.778288 0.2232,23.073634 0.1116,4.414704 0.3348,20.27933 0.1116,1.90526 0.1116,-5.04328 0.2232,11.27886 0.1116,-10.23711 0.1116,4.43019 0.2232,-8.36803 0.1116,1.64364 0.1116,7.09161 0.1116,-10.57895 0.1116,8.65397 0.2232,-13.73422 0.2232,-19.353277 0.2232,-19.597297 0.2232,18.614875 0.1116,-0.922379 0.1116,8.718133 0.1116,-16.474561 0.2232,12.705396 0.1116,-1.053401 0.1116,4.140088 0.1116,-11.720554 0.1116,24.699207 0.1116,-18.326841 0.1116,5.620444 0.2232,-3.749825 0.2232,-10.522875 0.1116,20.007617 0.2232,-6.941781 0.4464,42.105601 0.1116,-0.93967 0.2232,-21.98645 0.2232,30.98934 0.1116,-15.95567 0.1116,1.04598 0.1116,-1.74582 0.2232,-16.51366 0.3348,-24.196975 0.2232,6.505979 0.2232,-1.50749 0.2232,-11.938325 0.1116,1.827962 0.1116,14.94932 0.1116,-0.608246 0.1116,2.585995 0.1116,-9.279063 0.2232,17.080283 0.1116,8.79809 0.2232,-3.55125 0.1116,2.2023 0.2232,11.48378 0.1116,-14.90651 0.1116,1.6223 0.1116,-6.68065 0.1116,9.59579 0.3348,-39.697371 0.1116,-1.477177 0.1116,24.454268 0.1116,-5.147567 0.1116,18.707777 0.2232,-25.908334 0.1116,3.120797 0.1116,-1.754853 0.1116,-18.910523 0.1116,2.924393 0.1116,27.38785 0.1116,-15.311758 0.2232,23.608518 0.1116,-3.49075 0.3348,11.13561 0.1116,2.7344 0.2232,16.9461 0.1116,-3.35839 0.2232,9.51553 0.1116,-4.49471 0.1116,15.46629 0.1116,-10.37521 0.1116,4.35234 0.2232,-23.4415 0.1116,2.4376 0.1116,-0.47293 0.1116,-6.28167 0.1116,4.69783 0.1116,-7.26 0.1116,5.48345 0.2232,25.71385 0.1116,-0.64256 0.2232,13.73674 0.3348,-16.47722 0.2232,2.45326 0.1116,1.92586 0.1116,-8.8407 0.1116,16.16976 0.1116,-2.68101 0.2232,7.26832 0.1116,-10.66774 0.1116,5.23616 0.2232,-12.2356 0.1116,-0.50802 0.2232,-24.94922 0.2232,15.56045 0.1116,3.20643 0.2232,17.85229 0.4464,-41.68617 0.1116,7.35375 0.2232,-16.53952 0.2232,4.99824 0.1116,-32.547056 0.1116,11.177528 0.2232,-9.57002 0.1116,6.238946 0.1116,21.050062 0.2232,-22.079828 0.1116,4.643622 0.1116,15.656356 0.2232,-11.492437 0.2232,2.444796 0.1116,-9.404582 0.1116,1.471808 0.1116,-26.38975 0.4464,53.039745 0.1116,-0.2393 0.1116,0.0775 0.1116,-2.89951 0.1116,-6.94631 0.2232,-34.099412 0.3348,31.137382 0.1116,14.85497 0.1116,-3.60124 0.2232,-17.45331 0.1116,0.408046 0.1116,-0.781494 0.1116,1.562801 0.2232,18.686077 0.1116,-2.97487 0.3348,11.08682 0.2232,25.47958 0.1116,-4.85977 0.1116,3.29417 0.1116,-2.45873 0.1116,-6.96926 0.1116,-14.99467 0.1116,6.0534 0.1116,-0.64882 0.3348,20.30431 0.2232,-13.34135 0.1116,-2.59405 0.1116,6.54411 0.1116,-7.91587 0.1116,11.10415 0.558,-44.599694 0.1116,-0.800076 0.1116,-11.382222 0.1116,7.926525 0.2232,-13.90943 0.1116,-7.398973 0.1116,2.17254 0.2232,18.16446 0.2232,8.87006 0.1116,-1.661277 0.1116,-5.773293 0.1116,5.067082 0.1116,-4.27377 0.1116,9.543378 0.1116,-2.36176 0.2232,17.01633 0.2232,-4.96961 0.1116,1.09217 0.1116,6.83642 0.1116,-0.14562 0.1116,-3.27587 0.1116,5.719 0.1116,-4.3613 0.1116,0.0889 0.1116,7.94207 0.1116,-6.36302 0.1116,-17.22321 0.2232,5.41706 0.2232,22.1221 0.2232,-18.03037 0.3348,-11.01044 0.1116,0.99293 0.1116,4.34254 0.1116,-3.23881 0.1116,-19.763958 0.1116,6.541899 0.1116,-0.04212 0.1116,-0.642721 0.1116,4.043834 0.1116,14.588146 0.1116,-4.94768 0.1116,6.26412 0.1116,-4.06707 0.1116,5.4248 0.1116,-8.62217 0.2232,15.13733 0.1116,-2.29121 0.1116,-12.37632 0.1116,15.11551 0.1116,-15.66733 0.1116,0.18071 0.2232,8.5846 0.1116,-5.71689 0.1116,2.35979 0.2232,-12.103026 0.2232,14.010046 0.2232,-7.98668 0.1116,12.37357 0.4464,-25.983551 0.1116,7.541245 0.2232,27.310166 0.1116,4.38718 0.2232,-15.34672 0.1116,-1.17008 0.1116,7.21162 0.2232,-11.57543 0.3348,-7.914822 0.1116,-3.389671 0.4464,42.882263 0.3348,-33.1427 0.1116,0.37516 0.1116,-0.72837 0.1116,6.66243 0.1116,-5.25215 0.1116,-12.979365 0.1116,22.925075 0.2232,-16.52138 0.3348,20.09023 0.3348,1.80903 0.1116,-0.55829 0.2232,-7.37398 0.1116,-4.86013 0.3348,-28.756523 0.1116,2.482782 0.1116,-10.108042 0.1116,15.255126 0.1116,-8.873924 0.1116,6.036352 0.1116,-13.453284 0.2232,0.638893 0.2232,14.9757 0.2232,19.21689 0.2232,-12.730817 0.1116,-1.216887 0.1116,0.306696 0.1116,-0.643975 0.2232,31.398093 0.2232,11.1652 0.1116,0.19034 0.1116,6.81363 0.1116,-13.29057 0.2232,17.79719 0.1116,-2.86493 0.3348,-25.61029 0.2232,-7.9332 0.1116,-0.32075 0.1116,-4.45419 0.2232,-15.757453 0.1116,-1.198636 0.1116,12.573389 0.1116,-4.901823 0.3348,17.115093 0.2232,-15.29687 0.1116,-1.406156 0.1116,-3.290467 0.1116,3.133975 0.1116,10.967608 0.1116,-3.35551 0.2232,-13.372264 0.1116,18.647964 0.2232,-10.488075 0.2232,-9.828598 0.2232,26.771363 0.1116,2.40818 0.1116,-17.76058 0.1116,3.66699 0.1116,-2.12717 0.1116,-17.023207 0.1116,4.538209 0.2232,-14.395048 0.2232,18.065278 0.1116,0.524652 0.1116,5.827132 0.1116,16.123544 0.1116,-8.43837 0.1116,20.24376 0.1116,-8.84035 0.1116,2.5758 0.2232,-15.45584 0.1116,0.64862 0.2232,-11.565335 0.1116,3.016135 0.1116,-0.977993 0.1116,-3.295169 0.1116,14.783452 0.1116,-5.5736 0.1116,4.0279 0.1116,-4.76484 0.1116,0.30555 0.1116,-1.25263 0.1116,4.91278 0.1116,-6.757476 0.2232,-20.890003 0.1116,5.692201 0.2232,21.985258 0.1116,-3.06123 0.2232,-21.806802 0.1116,-0.03138 0.1116,2.685571 0.1116,-10.23224 0.3348,17.609407 0.1116,2.267127 0.1116,-3.503555 0.1116,17.397502 0.1116,-0.21587 0.2232,27.67577 0.1116,-14.5223 0.2232,11.63509 0.1116,-5.55242 0.1116,8.85649 0.2232,-13.68826 0.2232,5.64277 0.1116,-5.28087 0.1116,-12.33273 0.1116,5.46023 0.2232,-10.5817 0.1116,8.53889 0.1116,-11.04741 0.4464,15.36512 0.1116,7.78249 0.3348,-14.86654 0.3348,11.07473 0.1116,14.35032 0.1116,-3.9586 0.2232,-16.08626 0.1116,-3.92352 0.2232,-32.922728 0.3348,20.894501 0.1116,1.854097 0.2232,19.83065 0.1116,2.07645 0.2232,-9.67048 0.2232,-31.500096 0.1116,-4.229605 0.1116,20.295164 0.1116,-4.035161 0.1116,-14.319817 0.2232,17.773484 0.1116,1.813588 0.3348,-22.139094 0.4464,39.263797 0.1116,-4.66709 0.2232,-20.823798 0.1116,2.420515 0.1116,-8.719252 0.2232,12.417675 0.1116,1.369933 0.1116,8.612727 0.2232,24.89242 0.1116,-6.3231 0.2232,3.6906 0.1116,-17.0707 0.1116,3.38942 0.1116,-1.92906 0.1116,2.47059 0.1116,-13.18023 0.1116,4.82643 0.3348,-29.900801 0.2232,27.080051 0.2232,-11.669137 0.2232,22.211627 0.1116,-13.62016 0.558,73.03878 0.3348,-32.86088 0.4464,47.63299 0.1116,-2.55513 0.1116,-0.61594 0.1116,9.42708 0.1116,-3.30991 0.1116,9.33179 0.1116,-6.95092 0.2232,19.43706 0.2232,12.52341 0.1116,5.82956 0.1116,-9.60692 0.1116,2.96795 0.1116,-10.82089 0.1116,7.1388 0.3348,-20.22902 0.1116,5.34617 0.1116,12.54432 0.2232,-22.97399 0.1116,2.94271 0.2232,29.17019 0.1116,-8.17205 0.1116,8.2714 0.1116,-20.1895 0.1116,5.86186 0.1116,-2.582 0.2232,11.4987 0.1116,-5.60389 0.2232,-27.63269 0.1116,4.08659 0.2232,-13.26329 0.1116,-3.8407 0.2232,19.15721 0.1116,-16.68283 0.1116,5.31753 0.1116,-10.26091 0.1116,8.12046 0.2232,-7.18627 0.1116,-32.64291 0.1116,1.17496 0.1116,-0.51268 0.2232,-28.82923 0.1116,4.09469 0.1116,-6.44294 0.2232,36.01018 0.1116,-16.37964 0.1116,13.68656 0.1116,-10.95884 0.1116,9.19448 0.1116,-0.0712 0.1116,-5.02458 0.1116,-20.8246 0.4464,38.80086 0.1116,-4.15697 0.1116,7.75261 0.2232,22.90269 0.2232,-4.36555 0.1116,16.99373 0.1116,-8.45513 0.1116,23.0979 0.1116,-2.37699 0.1116,2.47797 0.1116,-0.29619 0.2232,-24.1643 0.2232,20.45841 0.1116,0.78294 0.1116,-5.24176 0.1116,12.26191 0.1116,-11.13983 0.2232,15.84866 0.1116,-4.88587 0.1116,2.06272 0.2232,-1.7997 0.1116,-4.45322 0.2232,10.96966 0.1116,-4.01183 0.2232,11.66086 0.1116,-1.23609 0.3348,-46.0433 0.1116,1.34355 0.1116,-14.62709 0.1116,5.83936 0.1116,-0.0268 0.1116,-4.45584 0.2232,-29.01153 0.2232,-11.61501 0.1116,3.85288 0.1116,19.98144 0.1116,-3.54059 0.1116,13.70499 0.1116,-2.14507 0.1116,5.05404 0.2232,-11.21562 0.1116,-6.42816 0.2232,-39.85793 0.1116,15.36114 0.2232,-39.775597 0.1116,17.894177 0.1116,-13.723155 0.1116,0.323549 0.1116,-12.360241 0.1116,14.438253 0.1116,-1.932933 0.2232,-7.421933 0.1116,-1.849164 0.1116,-6.023021 0.2232,9.778998 0.1116,-1.931581 0.1116,0.499423 0.1116,-15.928118 0.4464,41.139303 0.1116,2.98488 0.2232,-14.000083 0.2232,-8.134979 0.1116,6.135743 0.2232,-6.467688 0.1116,2.783985 0.1116,10.853482 0.1116,-0.86242 0.1116,3.74849 0.2232,-15.731637 0.2232,-9.670678 0.1116,0.09539 0.1116,-18.111916 0.2232,25.156118 0.1116,-6.440855 0.2232,43.288988 0.1116,-19.6742 0.2232,9.67182 0.1116,5.4018 0.4464,66.36067 0.2232,-13.95369 0.1116,0.35608 0.1116,16.9625 0.2232,-11.16397 0.1116,-3.48155 0.2232,15.03604 0.1116,-18.24394 0.1116,10.41282 0.1116,-2.93449 0.1116,-7.35075 0.1116,4.68903 0.1116,-4.02802 0.1116,2.16532 0.1116,4.36003 0.1116,-9.0041 0.2232,23.2715 0.1116,-6.48214 0.1116,8.79275 0.1116,-0.44348 0.1116,8.73209 0.1116,-4.30663 0.1116,6.84439 0.2232,-11.21989 0.1116,3.80721 0.1116,-1.67988 0.1116,4.90999 0.1116,-1.88587 0.3348,23.04073 0.1116,0.22727 0.1116,12.14085 0.2232,-10.46125 0.2232,8.5304 0.1116,-1.55119 0.1116,-9.48662 0.1116,2.71179 0.1116,-1.56738 0.1116,-18.30609 0.3348,14.18613 0.3348,39.25775 0.2232,-25.32887 0.1116,-4.02864 0.1116,5.79482 0.1116,-0.11198 0.1116,-13.24296 0.1116,2.24653 0.1116,-8.53608 0.1116,2.71321 0.2232,28.53695 0.1116,-11.15536 0.2232,-27.37098 0.1116,-6.43929 0.2232,-35.65879 0.2232,24.87747 0.1116,0.043 0.1116,-15.63332 0.2232,1.22107 0.2232,12.06361 0.1116,-0.61609 0.1116,-5.44317 0.558,33.83247 0.2232,9.10148 0.2232,13.67895 0.2232,-33.79095 0.1116,13.06666 0.1116,-0.74096 0.1116,6.88689 0.1116,-1.66426 0.1116,1.42755 0.1116,-1.23265 0.1116,-5.11223 0.2232,10.55305 0.3348,-28.90508 0.1116,-2.26998 0.1116,19.62479 0.1116,-4.34119 0.2232,7.05057 0.1116,15.18983 0.2232,-28.36837 0.2232,7.79989 0.2232,-18.92691 0.4464,36.61536 0.2232,-5.21291 0.1116,-1.32005 0.1116,-19.07238 0.1116,0.65373 0.2232,28.80633 0.1116,-5.20458 0.1116,3.50802 0.1116,-4.59701 0.3348,13.83172 0.1116,-4.43699 0.2232,-25.63713 0.2232,3.82709 0.1116,-3.85079 0.1116,13.65552 0.1116,-1.94935 0.3348,-25.80146 0.3348,11.30791 0.1116,-0.59477 0.2232,12.38719 0.1116,10.51979 0.2232,-26.74113 0.3348,28.41219 0.1116,-1.2908 0.1116,-4.72437 0.1116,-11.08415 0.1116,9.26811 0.1116,-10.05551 0.2232,4.39092 0.1116,-1.09924 0.1116,-4.05548 0.1116,3.12969 0.2232,-10.22239 0.1116,-2.58032 0.1116,3.88209 0.2232,-10.45783 0.1116,6.79016 0.1116,-2.5607 0.2232,5.35592 0.2232,17.60107 0.2232,-20.65679 0.1116,-5.35996 0.2232,22.51019 0.3348,-12.67378 0.3348,28.25524 0.2232,-20.15232 0.4464,-21.02518 0.2232,4.82316 0.2232,17.08901 0.1116,-1.69166 0.2232,-34.4319 0.1116,2.25075 0.3348,28.719 0.1116,-16.99024 0.1116,11.11192 0.558,-55.67664 0.3348,28.27026 0.3348,-6.83707 0.1116,-7.62156 0.2232,30.70455 0.1116,7.56524 0.2232,-30.04118 0.1116,2.35427 0.2232,14.81816 0.1116,3.66874 0.1116,-0.61333 0.1116,16.088 0.1116,-8.70197 0.2232,21.30063 0.4464,-45.49921 0.1116,-3.52596 0.1116,1.19496 0.1116,-3.82774 0.2232,20.28774 0.1116,-18.26332 0.1116,0.81029 0.1116,-15.06486 0.2232,12.74378 0.2232,-4.00415 0.2232,13.5335 0.1116,1.08168 0.2232,-6.83818 0.1116,3.19655 0.1116,16.96675 0.1116,-0.16185 0.1116,12.10393 0.1116,-24.70728 0.1116,22.55088 0.1116,-1.9628 0.1116,10.82492 0.2232,-3.14987 0.1116,7.21341 0.1116,-6.66731 0.1116,1.56539 0.2232,14.80119 0.1116,2.53116 0.1116,-9.99522 0.1116,1.87825 0.1116,6.09716 0.558,-39.48506 0.1116,1.60617 0.1116,23.778 0.1116,-12.6955 0.2232,30.68797 0.3348,-35.71023 0.1116,-0.32277 0.2232,28.28579 0.1116,-0.76905 0.2232,5.56187 0.2232,8.03049 0.1116,-11.5541 0.2232,12.45992 0.3348,-8.23285 0.1116,-17.75133 0.1116,1.65763 0.1116,-12.91267 0.1116,6.33241 0.2232,-0.0858 0.1116,5.09716 0.2232,-15.24544 0.558,27.57528 0.3348,-15.82542 0.1116,18.34292 0.1116,-5.82055 0.2232,20.89847 0.3348,-25.73131 0.1116,1.80738 0.1116,-1.94365 0.2232,17.40265 0.1116,-3.83938 0.1116,11.30279 0.1116,-14.93727 0.1116,7.65909 0.2232,-16.0304 0.2232,27.83574 0.2232,-33.49234 0.1116,7.77299 0.2232,-17.66319 0.2232,-2.69186 0.1116,-13.91068 0.3348,26.16222 0.1116,3.20527 0.1116,-6.49211 0.1116,1.81721 0.1116,-7.87181 0.2232,10.30143 0.1116,-9.9534 0.1116,0.0704 0.2232,-11.48659 0.1116,-0.23405 0.1116,8.5802 0.1116,-5.07223 0.1116,3.67028 0.1116,-6.65793 0.1116,21.00024 0.4464,-15.86636 0.1116,12.49923 0.1116,-12.8167 0.2232,11.33351 0.1116,-2.71764 0.1116,-9.61924 0.3348,16.67688 0.1116,-5.49262 0.1116,-14.64187 0.1116,0.41889 0.1116,-4.62722 0.2232,10.09373 0.2232,18.16641 0.1116,-18.00458 0.1116,5.01092 0.1116,-8.09867 0.1116,7.49824 0.1116,-6.67376 0.2232,4.91285 0.1116,10.93321 0.1116,-7.03643 0.1116,1.28483 0.1116,-3.9164 0.1116,0.0905 0.1116,-0.11994 0.1116,4.01309 0.2232,27.67865 0.1116,-5.51716 0.2232,9.14584 0.2232,-16.34735 0.2232,-19.30413 0.1116,13.45203 0.1116,-0.81076 0.1116,-16.00712 0.3348,15.92842 0.1116,12.76132 0.1116,-8.83238 0.1116,3.52863 0.1116,-18.40919 0.2232,12.19949 0.2232,-21.25068 0.1116,-24.00476 0.1116,6.24847 0.1116,22.47729 0.1116,-10.64845 0.1116,10.38371 0.2232,-20.41509 0.1116,1.96406 0.2232,12.91724 0.3348,19.49692 0.1116,-6.59862 0.1116,3.80773 0.2232,-15.33773 0.2232,-9.48866 0.1116,17.13992 0.4464,-27.68892 0.2232,25.623 0.1116,-10.38744 0.3348,28.10624 0.1116,-1.88467 0.1116,4.73276 0.2232,19.58969 0.1116,-3.31358 0.4464,-24.90497 0.3348,25.07173 0.2232,-26.03422 0.2232,15.76644 0.2232,-18.01152 0.1116,-2.8253 0.1116,1.8736 0.2232,-14.35615 0.4464,30.78464 0.1116,-14.31154 0.2232,14.48394 0.1116,-12.37955 0.1116,5.32301 0.1116,-3.75792 0.2232,33.48574 0.1116,-2.11947 0.1116,-7.44298 0.1116,-15.76738 0.1116,5.53267 0.1116,-4.23637 0.1116,2.00298 0.2232,-30.89038 0.3348,-28.75468 0.2232,-4.05022 0.558,41.80137 0.558,-62.60068 0.1116,8.4179 0.1116,-3.21301 0.1116,3.42736 0.1116,7.02275 0.1116,-8.01894 0.1116,-19.1564 0.2232,7.95616 0.1116,-14.08038 0.2232,21.48296 0.1116,-4.65375 0.1116,1.46805 0.1116,5.482 0.1116,15.57454 0.1116,-1.28598 0.1116,-7.20465 0.2232,21.87855 0.2232,-38.99239 0.1116,-6.17913 0.1116,12.39196 0.1116,-0.14362 0.1116,9.10546 0.1116,-4.15659 0.1116,0.31392 0.1116,-2.95159 0.2232,-39.18071 0.1116,1.93921 0.1116,-0.88585 0.1116,1.45264 0.1116,13.40115 0.3348,-12.92027 0.2232,8.60324 0.1116,-3.46528 0.2232,-20.293226 0.1116,-6.878664 0.1116,0.494904 0.1116,4.677215 0.1116,-9.799104 0.4464,42.642405 0.1116,-11.1209 0.1116,0.0598 0.1116,-14.660588 0.2232,18.564918 0.2232,-16.07565 0.1116,19.50672 0.1116,-19.43521 0.1116,0.20085 0.2232,-18.658997 0.1116,-0.763786 0.2232,-19.026313 0.1116,0.795431 0.1116,2.134261 0.2232,-3.459379 0.1116,8.507662 0.1116,-2.732096 0.1116,13.451788 0.1116,-12.525627 0.2232,12.800056 0.1116,15.543176 0.1116,-9.444011 0.2232,21.540125 0.1116,1.88101 0.1116,-0.1 0.4464,33.65732 0.1116,-16.30318 0.2232,15.67942 0.2232,-4.48849 0.2232,-12.48559 0.1116,-10.56501 0.3348,18.01668 0.1116,-8.17394 0.2232,4.64415 0.1116,-9.25727 0.1116,0.92575 0.1116,6.93628 0.558,-41.861149 0.2232,5.66988 0.1116,-1.790442 0.1116,-7.754397 0.3348,39.290958 0.1116,-1.42955 0.2232,-26.55291 0.2232,15.62446 0.2232,9.97755 0.1116,-4.16509 0.2232,6.10616 0.1116,-7.83299 0.1116,0.89908 0.2232,-19.382033 0.2232,-4.380694 0.1116,8.116597 0.2232,-23.544297 0.1116,16.129466 0.1116,-4.995056 0.1116,0.821552 0.2232,7.968195 0.1116,-7.206317 0.1116,1.610707 0.3348,-13.897137 0.2232,32.667227 0.1116,-9.28505 0.1116,6.58259 0.1116,-3.56143 0.1116,0.8109 0.1116,3.65569 0.1116,-1.83269 0.2232,-36.468977 0.3348,13.778667 0.2232,-19.604015 0.1116,10.895096 0.1116,-3.747258 0.2232,18.671601 0.1116,-2.937775 0.1116,0.691595 0.1116,6.909964 0.3348,-14.475745 0.1116,-20.255321 0.1116,13.339446 0.1116,-6.717026 0.1116,3.898981 0.1116,-7.391756 0.2232,7.379295 0.1116,22.974223 0.1116,-4.271989 0.1116,24.973064 0.1116,-4.17811 0.2232,2.71862 0.2232,4.73577 0.2232,-6.89717 0.1116,-1.98262 0.1116,4.43289 0.2232,-27.954041 0.2232,10.413635 0.1116,0.194254 0.1116,28.864242 0.2232,-22.06211 0.2232,-14.985706 0.558,28.636166 0.1116,-3.89693 0.1116,4.55403 0.1116,11.76912 0.1116,-3.84918 0.1116,5.5388 0.1116,-8.1114 0.1116,7.55065 0.1116,-7.24394 0.3348,11.03382 0.1116,-15.8077 0.1116,2.75905 0.1116,-1.16623 0.1116,-2.76362 0.1116,-9.90973 0.4464,31.81274 0.1116,-11.47177 0.1116,14.34606 0.1116,-4.23356 0.1116,-8.60818 0.1116,2.37259 0.3348,-13.60709 0.1116,19.07433 0.1116,-1.16136 0.1116,-2.77959 0.1116,-6.18316 0.1116,5.84822 0.1116,-9.14758 0.1116,-0.0295 0.3348,-9.66317 0.1116,2.85244 0.2232,-9.99913 0.1116,11.6273 0.1116,-20.77889 0.1116,1.356574 0.1116,8.707406 0.1116,-6.30058 0.1116,1.13339 0.1116,8.54084 0.1116,-0.86577 0.1116,-12.527136 0.2232,15.446046 0.1116,-3.48367 0.2232,22.98948 0.1116,13.95797 0.1116,-0.33651 0.7812,-65.100388 0.1116,0.506525 0.1116,1.624455 0.1116,-2.67972 0.1116,7.503766 0.1116,-13.920098 0.3348,25.513683 0.1116,-5.170951 0.1116,30.165258 0.1116,-2.83039 0.1116,-9.17975 0.2232,8.7724 0.2232,-32.248251 0.1116,7.11988 0.1116,-7.177797 0.1116,4.392643 0.1116,9.552385 0.2232,-22.37851 0.1116,-0.429758 0.1116,-11.218825 0.2232,25.633634 0.1116,-10.500964 0.2232,30.596693 0.1116,-24.73785 0.2232,11.96081 0.1116,0.58011 0.1116,6.41504 0.1116,-13.955284 0.1116,17.125334 0.1116,-10.84776 0.1116,12.15127 0.3348,-25.293998 0.1116,-0.216821 0.1116,-23.065572 0.1116,12.603181 0.1116,-3.49457 0.1116,-15.129433 0.2232,42.349263 0.1116,-5.91295 0.1116,4.61715 0.2232,-25.743068 0.1116,-0.568318 0.1116,-8.80577 0.2232,15.484187 0.1116,-10.827537 0.1116,12.194062 0.1116,-5.563717 0.2232,36.455571 0.2232,-15.388773 0.1116,16.180423 0.1116,-13.3804 0.2232,24.0814 0.1116,-0.36758 0.2232,-31.133702 0.1116,-1.929975 0.1116,3.404768 0.2232,20.943549 0.2232,-21.323357 0.2232,2.398203 0.1116,7.498894 0.1116,-3.54806 0.2232,16.44479 0.1116,0.0222 0.2232,25.50281 0.1116,-4.37118 0.2232,-17.76137 0.1116,1.73551 0.1116,-14.72142 0.1116,10.95823 0.3348,-35.592444 0.1116,4.421322 0.1116,-0.02 0.1116,-5.778977 0.2232,21.365689 0.3348,-24.917889 0.1116,25.587059 0.1116,-3.520225 0.2232,-16.546813 0.1116,-3.220016 0.1116,3.604769 0.4464,-18.337559 0.1116,9.296599 0.1116,-1.717797 0.2232,11.576122 0.1116,10.614662 0.1116,-7.899657 0.1116,3.913623 0.2232,32.072532 0.2232,-16.97093 0.1116,2.53801 0.2232,24.29076 0.1116,-5.8724 0.1116,7.01789 0.2232,-4.34518 0.1116,0.31124 0.1116,-3.46318 0.1116,2.20439 0.1116,-4.24304 0.1116,5.24369 0.1116,13.97322 0.1116,-8.75244 0.2232,20.36096 0.2232,-18.85475 0.1116,19.41103 0.2232,-10.52062 0.2232,23.4389 0.1116,-6.72778 0.1116,5.3708 0.1116,-3.74456 0.1116,13.9835 0.1116,-8.23115 0.2232,18.27739 0.2232,-8.99319 0.1116,-5.16362 0.3348,21.16547 0.2232,-19.37174 0.1116,0.15805 0.1116,14.7312 0.1116,-4.18758 0.2232,-12.59287 0.2232,14.37251 0.1116,-4.32852 0.1116,1.92365 0.1116,4.5814 0.1116,-16.09852 0.1116,4.32342 0.2232,20.06442 0.1116,3.39303 0.1116,11.73822 0.1116,-11.07445 0.2232,15.24991 0.1116,9.90277 0.2232,-15.45093 0.1116,19.23665 0.3348,-34.12771 0.4464,43.02891 0.2232,-19.92724 0.1116,11.23797 0.1116,-14.83571 0.2232,20.27415 0.1116,-4.09802 0.1116,2.10629 0.1116,-15.96146 0.1116,1.50684 0.2232,-29.44561 0.1116,16.08867 0.1116,-0.68093 0.1116,-2.65482 0.1116,17.38248 0.8928,-68.51143 0.1116,0.52452 0.3348,-22.35482 0.1116,12.10922 0.1116,-4.98769 0.1116,-17.13045 0.1116,4.16436 0.1116,-1.36462 0.1116,-7.57176 0.1116,0.88967 0.2232,-22.813264 0.2232,3.420564 0.2232,-22.483183 0.2232,27.373773 0.1116,-15.701221 0.1116,15.192051 0.1116,-13.053811 0.1116,6.452334 0.1116,-5.398023 0.2232,11.59346 0.1116,-4.841258 0.2232,17.364958 0.1116,12.15829 0.1116,-1.85601 0.1116,-6.19629 0.1116,5.82878 0.1116,-8.34307 0.2232,-24.656101 0.3348,4.152821 0.1116,0.02932 0.3348,-15.676906 0.1116,10.764414 0.1116,-5.797298 0.1116,5.753813 0.1116,-5.997384 0.2232,17.991791 0.1116,2.47328 0.1116,10.28113 0.2232,-20.12168 0.1116,7.88419 0.3348,-10.63825 0.1116,7.768454 0.1116,-2.909245 0.1116,3.524101 0.2232,-15.4113 0.1116,6.241901 0.2232,-20.487308 0.1116,21.692671 0.1116,-0.032 0.2232,25.878756 0.1116,-8.00141 0.1116,10.26102 0.1116,-15.71645 0.1116,3.17846 0.1116,15.40284 0.1116,-17.35909 0.1116,1.72175 0.1116,8.03017 0.1116,-8.68365 0.1116,8.98175 0.1116,-7.80478 0.1116,2.25819 0.1116,-6.43711 0.1116,8.1837 0.1116,-4.11208 0.1116,1.31463 0.1116,-7.01094 0.3348,19.00125 0.3348,-50.16512 0.2232,26.409314 0.1116,6.565646 0.3348,-25.007247 0.1116,19.75811 0.2232,-14.034899 0.1116,-3.831057 0.1116,5.007196 0.1116,-2.036755 0.2232,20.027422 0.2232,-27.901821 0.1116,-1.892213 0.2232,16.088901 0.2232,-2.985444 0.2232,17.510107 0.1116,-19.444209 0.1116,0.533384 0.1116,-13.629414 0.1116,0.790256 0.2232,22.617158 0.1116,-11.073597 0.2232,8.700855 0.1116,-2.052968 0.1116,-6.553556 0.1116,22.835431 0.1116,-5.10207 0.1116,4.76143 0.1116,-1.48386 0.558,35.36111 0.2232,-25.24393 0.3348,15.38552 0.3348,-14.08545 0.1116,4.18616 0.1116,-9.74183 0.2232,1.02382 0.1116,6.66232 0.1116,-6.09171 0.2232,-20.695667 0.1116,8.887487 0.1116,-6.411984 0.2232,14.775034 0.1116,-4.33524 0.1116,9.82941 0.1116,-26.924562 0.1116,5.057068 0.1116,-6.378322 0.1116,23.921506 0.2232,-11.816596 0.1116,17.206196 0.1116,-3.27011 0.2232,-9.73489 0.1116,8.26874 0.1116,-13.853358 0.2232,11.464348 0.1116,-1.68051 0.1116,0.59205 0.1116,-2.96209 0.1116,15.53046 0.1116,-10.59846 0.2232,14.94944 0.2232,-1.36273 0.1116,4.34912 0.1116,-3.12542 0.3348,-23.8047 0.1116,1.47471 0.4464,27.0682 0.2232,-5.39187 0.1116,2.88338 0.1116,-5.84486 0.1116,0.27889 0.1116,10.47205 0.1116,-1.85345 0.1116,7.69418 0.2232,-16.14873 0.1116,3.11058 0.1116,11.63495 0.1116,-0.36833 0.1116,-0.97418 0.2232,-13.72756 0.1116,0.0897 0.1116,-7.03634 0.2232,4.0306 0.1116,0.41304 0.1116,-5.5636 0.1116,-15.930504 0.1116,10.719134 0.1116,-10.598797 0.1116,18.730087 0.2232,-11.36735 0.1116,-4.24677 0.1116,-15.494376 0.2232,5.348506 0.2232,28.90001 0.1116,0.65353 0.1116,-1.23252 0.2232,24.8385 0.1116,-1.27801 0.1116,8.35104 0.2232,-14.38932 0.1116,-1.05725 0.2232,-24.66965 0.2232,23.59376 0.2232,-6.65761 0.1116,11.07407 0.2232,-11.78749 0.1116,9.46904 0.1116,-1.51021 0.1116,-24.26993 0.3348,18.37981 0.4464,-17.09124 0.1116,23.36709 0.2232,-16.51272 0.4464,25.90846 0.2232,-13.69189 0.2232,8.08844 0.2232,-23.34454 0.2232,19.12787 0.2232,-7.17664 0.2232,3.44096 0.1116,-2.64526 0.1116,-7.97014 0.1116,0.6676 0.1116,11.41886 0.2232,-15.32931 0.1116,8.81539 0.2232,-44.445952 0.1116,4.534984 0.1116,-3.622539 0.2232,22.767047 0.1116,-12.790568 0.1116,4.734481 0.1116,12.116957 0.558,-44.810559 0.1116,2.742644 0.2232,13.693873 0.2232,32.896482 0.1116,-4.7411 0.2232,6.28277 0.2232,-18.270216 0.1116,-1.088881 0.1116,-7.172154 0.2232,18.349841 0.1116,2.72699 0.1116,7.50986 0.2232,-20.873422 0.1116,0.278624 0.2232,15.970188 0.1116,-3.4369 0.2232,-15.662174 0.1116,-2.622857 0.2232,-18.587596 0.3348,19.599298 0.1116,-0.174258 0.1116,-11.110564 0.3348,37.280711 0.2232,-16.78524 0.1116,11.51236 0.1116,-8.27238 0.1116,8.53837 0.2232,-20.474416 0.1116,-0.29428 0.2232,-3.928715 0.3348,11.245885 0.1116,-5.600036 0.2232,21.439432 0.1116,-2.09326 0.3348,16.36065 0.2232,-15.56727 0.1116,-4.73828 0.1116,7.58446 0.2232,28.36827 0.4464,-16.06628 0.2232,27.85042 0.2232,-13.3144 0.1116,-3.15682 0.558,-38.17394 0.1116,-8.825618 0.1116,5.854649 0.2232,18.011379 0.1116,-4.01155 0.1116,-13.2019 0.1116,6.36488 0.1116,-2.21932 0.1116,4.07396 0.1116,-0.67064 0.1116,2.3754 0.1116,18.67147 0.2232,-10.5889 0.1116,2.38243 0.2232,-17.26146 0.2232,3.69587 0.4464,20.41978 0.1116,-1.01076 0.1116,-5.27622 0.1116,5.78905 0.2232,-28.009377 0.1116,11.736777 0.1116,-5.9395 0.2232,-16.939197 0.1116,-2.324381 0.2232,18.181398 0.2232,-26.014442 0.1116,5.325552 0.1116,-11.139293 0.1116,6.86565 0.2232,-8.618372 0.1116,12.334867 0.1116,-3.137967 0.2232,20.258303 0.2232,-16.70693 0.1116,21.676452 0.1116,-9.62201 0.1116,14.45582 0.1116,-1.96423 0.2232,-13.434073 0.1116,5.287532 0.1116,-2.184861 0.1116,3.226332 0.1116,-11.024137 0.2232,4.396697 0.2232,-17.865549 0.2232,16.935132 0.2232,-8.136224 0.1116,1.56232 0.1116,5.744377 0.2232,19.274804 0.1116,-0.56612 0.1116,1.2051 0.2232,-20.956834 0.1116,0.810582 0.1116,6.857273 0.1116,-15.219072 0.1116,0.16136 0.1116,-19.194097 0.1116,14.168253 0.1116,-6.766108 0.2232,18.44241 0.1116,6.37277 0.1116,-11.864501 0.3348,29.209884 0.2232,-7.91927 0.1116,0.60203 0.1116,-1.14285 0.1116,5.70429 0.3348,-22.932756 0.2232,34.321716 0.2232,-34.394112 0.1116,4.615094 0.2232,37.287848 0.1116,0.0436 0.2232,13.88232 0.1116,-4.68449 0.2232,-14.92259 0.2232,4.31097 0.3348,-45.266423 0.1116,-2.98915 0.1116,-9.956359 0.3348,43.470822 0.1116,-13.37275 0.1116,9.93203 0.1116,-7.32687 0.1116,10.37097 0.1116,-8.99953 0.1116,1.09974 0.1116,-7.940321 0.3348,21.423921 0.1116,-6.81261 0.1116,0.14213 0.2232,-17.103681 0.1116,8.194491 0.1116,-0.48473 0.2232,5.19177 0.2232,-6.8782 0.1116,4.25007 0.1116,23.65916 0.1116,-2.4082 0.1116,15.32735 0.2232,-14.6025 0.1116,11.09166 0.1116,-9.33159 v 0"
         style="fill:none;stroke:#ff7f50;stroke-width:1;stroke-linecap:square;stroke-linejoin:round;stroke-miterlimit:10;stroke-dasharray:none;stroke-opacity:1"
         id="path310" /></g></g><g
     id="g312"
     transform="matrix(0.35439338,0,0,-0.35277778,-0.64264931,97.919318)"
     style="stroke-width:1.98425;stroke-dasharray:none"><path
       d="m 54.825,47.23125 v 217.44"
       style="fill:none;stroke:#000000;stroke-width:1.98425;stroke-linecap:square;stroke-linejoin:miter;stroke-miterlimit:10;stroke-dasharray:none;stroke-opacity:1"
       id="path314" /><path
       d="m 389.625,47.23125 v 217.44"
       style="fill:none;stroke:#000000;stroke-width:1.98425;stroke-linecap:square;stroke-linejoin:miter;stroke-miterlimit:10;stroke-dasharray:none;stroke-opacity:1"
       id="path316" /><path
       d="m 54.825,47.23125 h 334.8"
       style="fill:none;stroke:#000000;stroke-width:1.98425;stroke-linecap:square;stroke-linejoin:miter;stroke-miterlimit:10;stroke-dasharray:none;stroke-opacity:1"
       id="path318" /><path
       d="m 54.825,264.67125 h 334.8"
       style="fill:none;stroke:#000000;stroke-width:1.98425;stroke-linecap:square;stroke-linejoin:miter;stroke-miterlimit:10;stroke-dasharray:none;stroke-opacity:1"
       id="path320" /></g></svg>
